{"glyphs":{"0":{"ha":779,"x_min":64,"x_max":715,"o":"m 378 -17 q 147 90 229 -17 q 64 428 64 197 q 107 681 64 578 q 226 833 150 783 q 401 883 301 883 q 633 776 550 883 q 715 439 715 669 q 624 99 715 214 q 378 -17 533 -17 m 389 39 q 558 133 499 39 q 617 422 617 228 q 589 650 617 560 q 510 784 561 740 q 390 828 460 828 q 267 787 318 828 q 190 660 217 746 q 163 444 163 575 q 190 219 163 310 q 269 83 218 128 q 389 39 321 39 z "},"1":{"ha":408,"x_min":19,"x_max":289,"o":"m 278 267 q 279 142 278 197 q 283 52 281 88 q 289 6 286 17 l 289 6 l 289 6 l 289 0 q 284 0 288 0 q 277 0 281 0 q 272 0 274 0 l 190 0 q 185 0 189 0 q 179 0 181 0 l 179 6 q 182 51 181 15 q 184 142 183 88 q 185 267 185 197 l 185 699 l 19 699 l 19 735 q 157 788 89 747 q 263 878 225 829 l 278 878 l 278 267 z "},"2":{"ha":535,"x_min":39,"x_max":485,"o":"m 39 61 q 97 128 68 94 q 151 193 125 161 q 280 363 228 286 q 361 514 332 440 q 390 656 390 588 q 370 756 390 715 q 313 818 350 797 q 224 839 275 839 q 167 834 193 839 q 121 819 142 829 q 86 798 103 811 q 56 767 69 785 l 44 767 l 44 850 q 117 874 76 865 q 217 883 157 883 q 417 831 349 883 q 485 650 485 779 q 428 456 485 557 q 290 263 372 354 q 107 83 207 171 q 153 78 124 79 q 219 78 182 78 l 289 78 q 339 78 315 78 q 383 81 363 79 q 431 84 408 82 q 472 89 453 86 l 479 89 l 479 0 l 39 0 l 39 61 z "},"3":{"ha":604,"x_min":33,"x_max":540,"o":"m 44 122 q 63 104 53 113 q 86 88 74 96 q 174 44 125 61 q 269 28 222 28 q 369 53 329 28 q 428 120 408 78 q 449 217 447 163 q 371 353 450 306 q 151 422 292 401 l 146 433 q 272 528 211 476 q 372 636 332 581 q 413 739 411 692 q 393 792 413 769 q 342 826 374 814 q 274 839 310 839 q 236 836 256 839 q 199 828 217 833 q 133 800 165 818 q 74 756 100 782 l 63 756 l 69 850 q 165 874 111 864 q 279 883 219 883 q 447 846 389 883 q 506 739 504 808 q 469 638 506 686 q 374 547 433 589 q 240 467 315 504 l 236 489 q 381 447 311 481 q 496 358 451 413 q 540 239 540 304 q 507 103 540 161 q 409 15 474 46 q 254 -17 344 -17 q 139 -7 200 -17 q 39 17 78 3 l 33 122 l 44 122 z "},"4":{"ha":674,"x_min":15,"x_max":640,"o":"m 499 267 q 500 142 499 197 q 504 52 501 88 q 510 6 507 17 l 510 6 l 510 6 l 510 0 q 505 0 508 0 q 498 0 501 0 q 493 0 494 0 l 410 0 q 404 0 408 0 q 399 0 400 0 l 399 6 q 401 51 400 15 q 403 142 403 88 q 404 267 404 197 l 404 761 l 436 783 l 58 239 l 44 272 l 640 272 l 635 194 l 32 194 l 15 250 l 446 878 l 499 861 l 499 267 z "},"5":{"ha":567,"x_min":40,"x_max":522,"o":"m 51 111 q 144 50 92 74 q 202 33 172 39 q 264 28 232 28 q 387 96 343 28 q 431 261 431 164 q 381 398 431 351 q 257 444 331 444 q 180 435 221 444 q 92 406 139 426 l 75 406 l 117 867 l 442 867 q 458 867 450 867 q 474 869 467 868 q 495 874 486 871 q 511 883 504 878 l 517 883 l 511 844 q 507 815 510 828 q 499 794 504 801 q 478 781 492 783 q 435 778 465 778 l 261 778 q 200 777 231 778 q 150 772 169 776 l 125 506 q 191 522 161 517 q 264 528 221 528 q 385 499 325 528 q 483 413 444 471 q 522 272 522 356 q 481 113 522 178 q 378 15 440 47 q 250 -17 315 -17 q 144 -6 206 -17 q 46 17 82 4 l 40 111 l 51 111 z "},"6":{"ha":700,"x_min":64,"x_max":642,"o":"m 163 300 q 188 165 163 224 q 259 72 214 106 q 361 39 304 39 q 499 99 454 39 q 543 272 544 160 q 519 401 543 349 q 454 480 496 454 q 356 506 413 506 q 210 453 258 506 q 163 300 163 400 l 156 469 q 240 537 188 513 q 372 561 293 561 q 515 532 454 561 q 608 442 575 503 q 642 289 642 381 q 610 133 642 201 q 513 24 578 64 q 356 -17 449 -17 q 136 81 208 -17 q 64 378 64 179 q 100 657 64 546 q 216 826 136 768 q 425 883 296 883 q 519 872 469 883 q 603 844 568 861 l 608 761 l 596 761 q 542 799 574 783 q 483 820 515 813 q 414 828 451 828 q 277 785 331 828 q 197 659 224 742 q 165 451 171 576 l 163 300 z "},"7":{"ha":546,"x_min":26,"x_max":542,"o":"m 86 0 l 86 11 l 472 828 l 431 867 l 542 867 l 183 0 l 86 0 m 26 778 l 26 867 l 461 867 l 481 806 l 472 783 q 417 788 460 788 q 335 789 374 789 l 260 789 q 133 786 197 789 q 80 783 101 785 q 44 778 58 781 l 26 778 z "},"8":{"ha":697,"x_min":64,"x_max":633,"o":"m 535 222 q 509 301 535 269 q 444 351 483 332 q 339 394 406 369 q 206 452 257 425 q 118 530 154 479 q 82 661 82 581 q 117 773 82 722 q 216 853 153 824 q 361 883 279 883 q 544 822 478 883 q 610 656 610 761 q 550 500 610 563 q 376 422 490 438 l 379 461 q 482 526 447 472 q 517 650 517 581 q 497 741 517 700 q 440 805 478 782 q 349 828 401 828 q 224 781 267 828 q 181 656 181 733 q 206 577 181 608 q 271 527 232 546 q 376 483 310 508 q 510 426 458 453 q 597 348 561 399 q 633 217 633 297 q 597 99 633 153 q 494 15 561 46 q 336 -17 426 -17 q 137 48 210 -17 q 64 222 64 113 q 133 385 64 318 q 321 467 201 451 l 319 428 q 199 360 242 417 q 157 228 157 303 q 181 134 157 178 q 247 65 204 90 q 349 39 290 39 q 487 90 439 39 q 535 222 535 140 z "},"9":{"ha":697,"x_min":56,"x_max":633,"o":"m 535 567 q 509 702 535 643 q 438 794 483 761 q 336 828 393 828 q 198 767 243 828 q 154 594 153 707 q 178 465 154 518 q 243 387 201 413 q 342 361 285 361 q 487 414 439 361 q 535 567 535 467 l 542 397 q 457 330 510 354 q 325 306 404 306 q 183 335 243 306 q 89 425 122 364 q 56 578 56 486 q 88 734 56 665 q 184 843 119 803 q 342 883 249 883 q 561 785 489 883 q 633 489 633 688 q 597 210 633 321 q 481 41 561 99 q 272 -17 401 -17 q 178 -6 228 -17 q 94 22 129 6 l 89 106 l 101 106 q 156 68 124 83 q 214 47 182 54 q 283 39 246 39 q 420 82 367 39 q 500 208 474 125 q 532 415 526 290 l 535 567 z "},"\r":{"ha":833,"x_min":0,"x_max":0,"o":""}," ":{"ha":300,"x_min":0,"x_max":0,"o":""},"A":{"ha":708,"x_min":36,"x_max":671,"o":"m 44 0 q 40 0 43 0 q 36 0 38 0 l 36 6 q 59 90 39 22 q 113 254 79 157 l 229 594 q 241 628 235 611 q 253 661 247 644 q 285 753 269 707 q 307 828 300 799 l 314 778 q 297 812 306 796 q 281 842 288 828 q 276 849 278 846 q 272 856 274 853 l 272 867 l 413 867 q 476 628 432 744 l 594 256 q 647 90 625 160 q 671 6 668 21 l 671 6 l 671 6 l 671 0 q 667 0 669 0 q 662 0 664 0 q 658 0 660 0 l 576 0 q 570 0 575 0 q 564 0 565 0 l 564 6 q 560 48 567 15 q 538 133 553 81 q 500 256 524 186 l 411 522 q 318 772 356 683 l 356 783 l 176 254 q 139 134 153 186 q 119 49 125 82 q 117 6 114 17 l 117 6 l 117 6 l 117 0 q 111 0 115 0 q 103 0 107 0 q 99 0 100 0 l 44 0 m 165 333 l 542 333 l 542 272 l 165 272 l 165 333 z "},"Á":{"ha":708,"x_min":36,"x_max":671,"o":"m 44 0 q 40 0 43 0 q 36 0 38 0 l 36 6 q 59 90 39 22 q 113 254 79 157 l 229 594 q 241 628 235 611 q 253 661 247 644 q 285 753 269 707 q 307 828 300 799 l 314 778 q 297 812 306 796 q 281 842 288 828 q 276 849 278 846 q 272 856 274 853 l 272 867 l 413 867 q 476 628 432 744 l 594 256 q 647 90 625 160 q 671 6 668 21 l 671 6 l 671 6 l 671 0 q 667 0 669 0 q 662 0 664 0 q 658 0 660 0 l 576 0 q 570 0 575 0 q 564 0 565 0 l 564 6 q 560 48 567 15 q 538 133 553 81 q 500 256 524 186 l 411 522 q 318 772 356 683 l 356 783 l 176 254 q 139 134 153 186 q 119 49 125 82 q 117 6 114 17 l 117 6 l 117 6 l 117 0 q 111 0 115 0 q 103 0 107 0 q 99 0 100 0 l 44 0 m 165 333 l 542 333 l 542 272 l 165 272 l 165 333 m 315 978 l 438 1172 l 571 1172 l 571 1161 l 351 967 l 315 978 z "},"Ă":{"ha":708,"x_min":36,"x_max":671,"o":"m 44 0 q 40 0 43 0 q 36 0 38 0 l 36 6 q 59 90 39 22 q 113 254 79 157 l 229 594 q 241 628 235 611 q 253 661 247 644 q 285 753 269 707 q 307 828 300 799 l 314 778 q 297 812 306 796 q 281 842 288 828 q 276 849 278 846 q 272 856 274 853 l 272 867 l 413 867 q 476 628 432 744 l 594 256 q 647 90 625 160 q 671 6 668 21 l 671 6 l 671 6 l 671 0 q 667 0 669 0 q 662 0 664 0 q 658 0 660 0 l 576 0 q 570 0 575 0 q 564 0 565 0 l 564 6 q 560 48 567 15 q 538 133 553 81 q 500 256 524 186 l 411 522 q 318 772 356 683 l 356 783 l 176 254 q 139 134 153 186 q 119 49 125 82 q 117 6 114 17 l 117 6 l 117 6 l 117 0 q 111 0 115 0 q 103 0 107 0 q 99 0 100 0 l 44 0 m 165 333 l 542 333 l 542 272 l 165 272 l 165 333 m 508 1167 q 466 1021 504 1075 q 356 967 428 967 q 247 1021 285 967 q 203 1167 208 1075 l 233 1172 q 277 1087 247 1118 q 356 1056 307 1056 q 433 1086 404 1056 q 478 1172 463 1117 l 508 1167 z "},"Ǎ":{"ha":708,"x_min":36,"x_max":671,"o":"m 44 0 q 40 0 43 0 q 36 0 38 0 l 36 6 q 59 90 39 22 q 113 254 79 157 l 229 594 q 241 628 235 611 q 253 661 247 644 q 285 753 269 707 q 307 828 300 799 l 314 778 q 297 812 306 796 q 281 842 288 828 q 276 849 278 846 q 272 856 274 853 l 272 867 l 413 867 q 476 628 432 744 l 594 256 q 647 90 625 160 q 671 6 668 21 l 671 6 l 671 6 l 671 0 q 667 0 669 0 q 662 0 664 0 q 658 0 660 0 l 576 0 q 570 0 575 0 q 564 0 565 0 l 564 6 q 560 48 567 15 q 538 133 553 81 q 500 256 524 186 l 411 522 q 318 772 356 683 l 356 783 l 176 254 q 139 134 153 186 q 119 49 125 82 q 117 6 114 17 l 117 6 l 117 6 l 117 0 q 111 0 115 0 q 103 0 107 0 q 99 0 100 0 l 44 0 m 165 333 l 542 333 l 542 272 l 165 272 l 165 333 m 471 1172 l 508 1167 l 368 967 l 343 967 l 208 1167 l 239 1172 l 356 1067 l 471 1172 z "},"Â":{"ha":708,"x_min":36,"x_max":671,"o":"m 44 0 q 40 0 43 0 q 36 0 38 0 l 36 6 q 59 90 39 22 q 113 254 79 157 l 229 594 q 241 628 235 611 q 253 661 247 644 q 285 753 269 707 q 307 828 300 799 l 314 778 q 297 812 306 796 q 281 842 288 828 q 276 849 278 846 q 272 856 274 853 l 272 867 l 413 867 q 476 628 432 744 l 594 256 q 647 90 625 160 q 671 6 668 21 l 671 6 l 671 6 l 671 0 q 667 0 669 0 q 662 0 664 0 q 658 0 660 0 l 576 0 q 570 0 575 0 q 564 0 565 0 l 564 6 q 560 48 567 15 q 538 133 553 81 q 500 256 524 186 l 411 522 q 318 772 356 683 l 356 783 l 176 254 q 139 134 153 186 q 119 49 125 82 q 117 6 114 17 l 117 6 l 117 6 l 117 0 q 111 0 115 0 q 103 0 107 0 q 99 0 100 0 l 44 0 m 165 333 l 542 333 l 542 272 l 165 272 l 165 333 m 471 967 l 354 1072 l 239 967 l 208 972 l 343 1172 l 367 1172 l 507 972 l 471 967 z "},"Ä":{"ha":708,"x_min":36,"x_max":671,"o":"m 44 0 q 40 0 43 0 q 36 0 38 0 l 36 6 q 59 90 39 22 q 113 254 79 157 l 229 594 q 241 628 235 611 q 253 661 247 644 q 285 753 269 707 q 307 828 300 799 l 314 778 q 297 812 306 796 q 281 842 288 828 q 276 849 278 846 q 272 856 274 853 l 272 867 l 413 867 q 476 628 432 744 l 594 256 q 647 90 625 160 q 671 6 668 21 l 671 6 l 671 6 l 671 0 q 667 0 669 0 q 662 0 664 0 q 658 0 660 0 l 576 0 q 570 0 575 0 q 564 0 565 0 l 564 6 q 560 48 567 15 q 538 133 553 81 q 500 256 524 186 l 411 522 q 318 772 356 683 l 356 783 l 176 254 q 139 134 153 186 q 119 49 125 82 q 117 6 114 17 l 117 6 l 117 6 l 117 0 q 111 0 115 0 q 103 0 107 0 q 99 0 100 0 l 44 0 m 165 333 l 542 333 l 542 272 l 165 272 l 165 333 m 164 1039 q 205 1085 164 1047 q 249 1122 246 1122 q 297 1085 258 1122 q 335 1039 335 1047 q 296 999 335 1036 q 249 961 257 961 q 205 999 246 961 q 164 1039 164 1038 m 383 1039 q 422 1085 383 1047 q 463 1122 460 1122 q 513 1085 472 1122 q 554 1039 554 1047 q 513 999 554 1036 q 463 961 471 961 q 422 999 460 961 q 383 1039 383 1038 z "},"À":{"ha":708,"x_min":36,"x_max":671,"o":"m 44 0 q 40 0 43 0 q 36 0 38 0 l 36 6 q 59 90 39 22 q 113 254 79 157 l 229 594 q 241 628 235 611 q 253 661 247 644 q 285 753 269 707 q 307 828 300 799 l 314 778 q 297 812 306 796 q 281 842 288 828 q 276 849 278 846 q 272 856 274 853 l 272 867 l 413 867 q 476 628 432 744 l 594 256 q 647 90 625 160 q 671 6 668 21 l 671 6 l 671 6 l 671 0 q 667 0 669 0 q 662 0 664 0 q 658 0 660 0 l 576 0 q 570 0 575 0 q 564 0 565 0 l 564 6 q 560 48 567 15 q 538 133 553 81 q 500 256 524 186 l 411 522 q 318 772 356 683 l 356 783 l 176 254 q 139 134 153 186 q 119 49 125 82 q 117 6 114 17 l 117 6 l 117 6 l 117 0 q 111 0 115 0 q 103 0 107 0 q 99 0 100 0 l 44 0 m 165 333 l 542 333 l 542 272 l 165 272 l 165 333 m 400 978 l 364 967 l 143 1161 l 143 1172 l 278 1172 l 400 978 z "},"Ā":{"ha":708,"x_min":36,"x_max":671,"o":"m 44 0 q 40 0 43 0 q 36 0 38 0 l 36 6 q 59 90 39 22 q 113 254 79 157 l 229 594 q 241 628 235 611 q 253 661 247 644 q 285 753 269 707 q 307 828 300 799 l 314 778 q 297 812 306 796 q 281 842 288 828 q 276 849 278 846 q 272 856 274 853 l 272 867 l 413 867 q 476 628 432 744 l 594 256 q 647 90 625 160 q 671 6 668 21 l 671 6 l 671 6 l 671 0 q 667 0 669 0 q 662 0 664 0 q 658 0 660 0 l 576 0 q 570 0 575 0 q 564 0 565 0 l 564 6 q 560 48 567 15 q 538 133 553 81 q 500 256 524 186 l 411 522 q 318 772 356 683 l 356 783 l 176 254 q 139 134 153 186 q 119 49 125 82 q 117 6 114 17 l 117 6 l 117 6 l 117 0 q 111 0 115 0 q 103 0 107 0 q 99 0 100 0 l 44 0 m 165 333 l 542 333 l 542 272 l 165 272 l 165 333 m 186 1072 l 529 1072 l 529 1011 l 186 1011 l 186 1072 z "},"Ą":{"ha":708,"x_min":36,"x_max":693,"o":"m 44 0 q 40 0 43 0 q 36 0 38 0 l 36 6 q 59 90 39 22 q 113 254 79 157 l 229 594 q 241 628 235 611 q 253 661 247 644 q 285 753 269 707 q 307 828 300 799 l 314 778 q 297 812 306 796 q 281 842 288 828 q 276 849 278 846 q 272 856 274 853 l 272 867 l 413 867 q 476 628 432 744 l 594 256 q 647 90 625 160 q 671 6 668 21 l 671 6 l 671 6 l 671 0 q 667 0 669 0 q 662 0 664 0 q 658 0 660 0 l 576 0 q 570 0 575 0 q 564 0 565 0 l 564 6 q 560 48 567 15 q 538 133 553 81 q 500 256 524 186 l 411 522 q 318 772 356 683 l 356 783 l 176 254 q 139 134 153 186 q 119 49 125 82 q 117 6 114 17 l 117 6 l 117 6 l 117 0 q 111 0 115 0 q 103 0 107 0 q 99 0 100 0 l 44 0 m 165 333 l 542 333 l 542 272 l 165 272 l 165 333 m 671 0 q 667 -5 669 -3 q 663 -8 665 -7 q 596 -87 621 -49 q 571 -172 571 -126 q 592 -218 571 -203 q 643 -233 613 -233 q 670 -230 657 -233 q 693 -222 683 -226 l 693 -239 q 643 -275 672 -261 q 582 -289 614 -289 q 506 -261 535 -289 q 476 -183 476 -233 q 530 -72 476 -128 q 649 6 583 -17 l 671 0 z "},"Å":{"ha":708,"x_min":36,"x_max":671,"o":"m 44 0 q 40 0 43 0 q 36 0 38 0 l 36 6 q 59 90 39 22 q 113 254 79 157 l 229 594 q 241 628 235 611 q 253 661 247 644 q 285 753 269 707 q 307 828 300 799 l 314 778 q 297 812 306 796 q 281 842 288 828 q 276 849 278 846 q 272 856 274 853 l 272 867 l 413 867 q 476 628 432 744 l 594 256 q 647 90 625 160 q 671 6 668 21 l 671 6 l 671 6 l 671 0 q 667 0 669 0 q 662 0 664 0 q 658 0 660 0 l 576 0 q 570 0 575 0 q 564 0 565 0 l 564 6 q 560 48 567 15 q 538 133 553 81 q 500 256 524 186 l 411 522 q 318 772 356 683 l 356 783 l 176 254 q 139 134 153 186 q 119 49 125 82 q 117 6 114 17 l 117 6 l 117 6 l 117 0 q 111 0 115 0 q 103 0 107 0 q 99 0 100 0 l 44 0 m 165 333 l 542 333 l 542 272 l 165 272 l 165 333 m 357 917 q 265 952 300 917 q 229 1044 229 988 q 265 1137 229 1101 q 357 1172 300 1172 q 449 1137 414 1172 q 485 1044 485 1101 q 449 952 485 988 q 357 917 414 917 m 357 967 q 410 988 390 967 q 429 1044 429 1008 q 410 1101 429 1081 q 357 1122 390 1122 q 304 1101 324 1122 q 285 1044 285 1081 q 304 988 285 1008 q 357 967 324 967 z "},"Ǻ":{"ha":708,"x_min":36,"x_max":671,"o":"m 44 0 q 40 0 43 0 q 36 0 38 0 l 36 6 q 59 90 39 22 q 113 254 79 157 l 229 594 q 241 628 235 611 q 253 661 247 644 q 285 753 269 707 q 307 828 300 799 l 314 778 q 297 812 306 796 q 281 842 288 828 q 276 849 278 846 q 272 856 274 853 l 272 867 l 413 867 q 476 628 432 744 l 594 256 q 647 90 625 160 q 671 6 668 21 l 671 6 l 671 6 l 671 0 q 667 0 669 0 q 662 0 664 0 q 658 0 660 0 l 576 0 q 570 0 575 0 q 564 0 565 0 l 564 6 q 560 48 567 15 q 538 133 553 81 q 500 256 524 186 l 411 522 q 318 772 356 683 l 356 783 l 176 254 q 139 134 153 186 q 119 49 125 82 q 117 6 114 17 l 117 6 l 117 6 l 117 0 q 111 0 115 0 q 103 0 107 0 q 99 0 100 0 l 44 0 m 165 333 l 542 333 l 542 272 l 165 272 l 165 333 m 357 917 q 265 952 300 917 q 229 1044 229 988 q 265 1137 229 1101 q 357 1172 300 1172 q 449 1137 414 1172 q 485 1044 485 1101 q 449 952 485 988 q 357 917 414 917 m 357 967 q 410 988 390 967 q 429 1044 429 1008 q 410 1101 429 1081 q 357 1122 390 1122 q 304 1101 324 1122 q 285 1044 285 1081 q 304 988 285 1008 q 357 967 324 967 m 315 1139 l 438 1333 l 571 1333 l 571 1322 l 351 1128 l 315 1139 z "},"Ã":{"ha":708,"x_min":36,"x_max":671,"o":"m 44 0 q 40 0 43 0 q 36 0 38 0 l 36 6 q 59 90 39 22 q 113 254 79 157 l 229 594 q 241 628 235 611 q 253 661 247 644 q 285 753 269 707 q 307 828 300 799 l 314 778 q 297 812 306 796 q 281 842 288 828 q 276 849 278 846 q 272 856 274 853 l 272 867 l 413 867 q 476 628 432 744 l 594 256 q 647 90 625 160 q 671 6 668 21 l 671 6 l 671 6 l 671 0 q 667 0 669 0 q 662 0 664 0 q 658 0 660 0 l 576 0 q 570 0 575 0 q 564 0 565 0 l 564 6 q 560 48 567 15 q 538 133 553 81 q 500 256 524 186 l 411 522 q 318 772 356 683 l 356 783 l 176 254 q 139 134 153 186 q 119 49 125 82 q 117 6 114 17 l 117 6 l 117 6 l 117 0 q 111 0 115 0 q 103 0 107 0 q 99 0 100 0 l 44 0 m 165 333 l 542 333 l 542 272 l 165 272 l 165 333 m 271 1156 q 351 1136 324 1156 q 403 1083 379 1117 q 429 1053 419 1061 q 454 1044 439 1044 q 498 1072 483 1044 q 521 1150 513 1099 l 551 1144 q 529 1018 553 1064 q 442 972 506 972 q 359 992 388 972 q 308 1046 331 1011 q 284 1074 294 1065 q 258 1083 274 1083 q 215 1058 229 1083 q 190 978 200 1032 l 160 983 q 183 1110 160 1065 q 271 1156 207 1156 z "},"B":{"ha":697,"x_min":124,"x_max":639,"o":"m 140 0 q 135 0 139 0 q 129 0 131 0 l 129 6 q 132 51 131 15 q 134 142 133 88 q 135 267 135 197 l 135 600 q 133 724 135 669 q 129 815 132 779 q 124 861 126 850 l 124 861 l 124 861 l 124 867 q 128 867 125 867 q 135 867 132 867 q 140 867 139 867 l 293 867 q 513 817 440 867 q 585 661 585 767 q 524 518 585 581 q 349 433 463 456 l 372 461 q 572 392 504 450 q 639 239 639 335 q 602 112 639 165 q 495 29 565 58 q 329 0 425 0 l 140 0 m 282 461 q 431 510 382 461 q 479 628 479 560 q 458 719 479 678 q 392 786 436 761 q 282 811 347 811 l 276 811 q 228 806 253 811 l 228 150 q 249 73 228 96 q 329 50 271 50 l 335 50 q 481 97 429 50 q 533 222 533 144 q 470 362 533 313 q 275 411 407 411 l 217 411 l 217 461 l 282 461 z "},"C":{"ha":749,"x_min":71,"x_max":726,"o":"m 685 728 q 636 774 663 754 q 578 807 610 794 q 523 823 551 818 q 464 828 494 828 q 314 783 379 828 q 213 653 249 738 q 176 456 176 569 q 215 251 176 340 q 319 111 253 161 q 467 61 386 61 q 615 87 549 61 q 708 178 682 113 l 726 172 q 628 34 710 85 q 439 -17 547 -17 q 251 38 335 -17 q 119 197 168 93 q 71 444 71 301 q 125 676 71 576 q 269 829 179 775 q 468 883 360 883 q 596 867 536 883 q 690 828 656 850 l 696 728 l 685 728 z "},"Ć":{"ha":749,"x_min":71,"x_max":726,"o":"m 685 728 q 636 774 663 754 q 578 807 610 794 q 523 823 551 818 q 464 828 494 828 q 314 783 379 828 q 213 653 249 738 q 176 456 176 569 q 215 251 176 340 q 319 111 253 161 q 467 61 386 61 q 615 87 549 61 q 708 178 682 113 l 726 172 q 628 34 710 85 q 439 -17 547 -17 q 251 38 335 -17 q 119 197 168 93 q 71 444 71 301 q 125 676 71 576 q 269 829 179 775 q 468 883 360 883 q 596 867 536 883 q 690 828 656 850 l 696 728 l 685 728 m 403 978 l 525 1172 l 658 1172 l 658 1161 l 439 967 l 403 978 z "},"Č":{"ha":749,"x_min":71,"x_max":726,"o":"m 685 728 q 636 774 663 754 q 578 807 610 794 q 523 823 551 818 q 464 828 494 828 q 314 783 379 828 q 213 653 249 738 q 176 456 176 569 q 215 251 176 340 q 319 111 253 161 q 467 61 386 61 q 615 87 549 61 q 708 178 682 113 l 726 172 q 628 34 710 85 q 439 -17 547 -17 q 251 38 335 -17 q 119 197 168 93 q 71 444 71 301 q 125 676 71 576 q 269 829 179 775 q 468 883 360 883 q 596 867 536 883 q 690 828 656 850 l 696 728 l 685 728 m 558 1172 l 596 1167 l 456 967 l 431 967 l 296 1167 l 326 1172 l 443 1067 l 558 1172 z "},"Ç":{"ha":749,"x_min":71,"x_max":726,"o":"m 685 728 q 636 774 663 754 q 578 807 610 794 q 523 823 551 818 q 464 828 494 828 q 314 783 379 828 q 213 653 249 738 q 176 456 176 569 q 215 251 176 340 q 319 111 253 161 q 467 61 386 61 q 615 87 549 61 q 708 178 682 113 l 726 172 q 628 34 710 85 q 439 -17 547 -17 q 251 38 335 -17 q 119 197 168 93 q 71 444 71 301 q 125 676 71 576 q 269 829 179 775 q 468 883 360 883 q 596 867 536 883 q 690 828 656 850 l 696 728 l 685 728 m 394 -294 q 317 -283 350 -294 l 328 -239 q 389 -256 361 -256 q 428 -242 413 -256 q 444 -206 444 -229 q 426 -170 444 -185 q 372 -150 408 -156 l 406 11 l 450 11 l 428 -117 l 422 -76 q 503 -119 474 -89 q 533 -193 533 -150 q 491 -267 533 -240 q 394 -294 449 -294 z "},"Ĉ":{"ha":749,"x_min":71,"x_max":726,"o":"m 685 728 q 636 774 663 754 q 578 807 610 794 q 523 823 551 818 q 464 828 494 828 q 314 783 379 828 q 213 653 249 738 q 176 456 176 569 q 215 251 176 340 q 319 111 253 161 q 467 61 386 61 q 615 87 549 61 q 708 178 682 113 l 726 172 q 628 34 710 85 q 439 -17 547 -17 q 251 38 335 -17 q 119 197 168 93 q 71 444 71 301 q 125 676 71 576 q 269 829 179 775 q 468 883 360 883 q 596 867 536 883 q 690 828 656 850 l 696 728 l 685 728 m 558 967 l 442 1072 l 326 967 l 296 972 l 431 1172 l 454 1172 l 594 972 l 558 967 z "},"Ċ":{"ha":749,"x_min":71,"x_max":726,"o":"m 685 728 q 636 774 663 754 q 578 807 610 794 q 523 823 551 818 q 464 828 494 828 q 314 783 379 828 q 213 653 249 738 q 176 456 176 569 q 215 251 176 340 q 319 111 253 161 q 467 61 386 61 q 615 87 549 61 q 708 178 682 113 l 726 172 q 628 34 710 85 q 439 -17 547 -17 q 251 38 335 -17 q 119 197 168 93 q 71 444 71 301 q 125 676 71 576 q 269 829 179 775 q 468 883 360 883 q 596 867 536 883 q 690 828 656 850 l 696 728 l 685 728 m 351 1039 q 394 1084 351 1046 q 443 1122 436 1122 q 469 1103 447 1122 q 513 1064 492 1085 q 535 1039 535 1043 q 513 1014 535 1035 q 469 974 492 993 q 443 956 447 956 q 416 974 439 956 q 372 1014 393 993 q 351 1039 351 1035 z "},"D":{"ha":861,"x_min":124,"x_max":790,"o":"m 140 0 q 135 0 139 0 q 129 0 131 0 l 129 6 q 132 51 131 15 q 134 142 133 88 q 135 267 135 197 l 135 600 q 133 724 135 669 q 129 815 132 779 q 124 861 126 850 l 124 861 l 124 861 l 124 867 q 128 867 125 867 q 135 867 132 867 q 140 867 139 867 l 335 867 q 676 758 561 867 q 790 433 790 649 q 737 203 790 300 q 582 53 683 106 q 340 0 481 0 l 140 0 m 199 800 l 228 844 l 228 150 q 238 92 228 114 q 273 60 249 71 q 340 50 297 50 l 353 50 q 601 145 518 50 q 685 417 685 240 q 640 627 685 536 q 514 767 596 718 q 324 817 432 817 l 318 817 q 248 813 282 817 q 199 800 214 808 z "},"Ð":{"ha":861,"x_min":51,"x_max":790,"o":"m 140 0 q 135 0 139 0 q 129 0 131 0 l 129 6 q 132 51 131 15 q 134 142 133 88 q 135 267 135 197 l 135 600 q 133 724 135 669 q 129 815 132 779 q 124 861 126 850 l 124 861 l 124 861 l 124 867 q 128 867 125 867 q 135 867 132 867 q 140 867 139 867 l 335 867 q 676 758 561 867 q 790 433 790 649 q 737 203 790 300 q 582 53 683 106 q 340 0 481 0 l 140 0 m 199 800 l 228 844 l 228 150 q 238 92 228 114 q 273 60 249 71 q 340 50 297 50 l 353 50 q 601 145 518 50 q 685 417 685 240 q 640 627 685 536 q 514 767 596 718 q 324 817 432 817 l 318 817 q 248 813 282 817 q 199 800 214 808 m 51 406 l 51 417 l 51 461 l 474 461 l 474 450 l 474 406 l 51 406 z "},"Ď":{"ha":861,"x_min":124,"x_max":790,"o":"m 140 0 q 135 0 139 0 q 129 0 131 0 l 129 6 q 132 51 131 15 q 134 142 133 88 q 135 267 135 197 l 135 600 q 133 724 135 669 q 129 815 132 779 q 124 861 126 850 l 124 861 l 124 861 l 124 867 q 128 867 125 867 q 135 867 132 867 q 140 867 139 867 l 335 867 q 676 758 561 867 q 790 433 790 649 q 737 203 790 300 q 582 53 683 106 q 340 0 481 0 l 140 0 m 199 800 l 228 844 l 228 150 q 238 92 228 114 q 273 60 249 71 q 340 50 297 50 l 353 50 q 601 145 518 50 q 685 417 685 240 q 640 627 685 536 q 514 767 596 718 q 324 817 432 817 l 318 817 q 248 813 282 817 q 199 800 214 808 m 538 1172 l 575 1167 l 435 967 l 410 967 l 275 1167 l 306 1172 l 422 1067 l 538 1172 z "},"Đ":{"ha":861,"x_min":51,"x_max":790,"o":"m 140 0 q 135 0 139 0 q 129 0 131 0 l 129 6 q 132 51 131 15 q 134 142 133 88 q 135 267 135 197 l 135 600 q 133 724 135 669 q 129 815 132 779 q 124 861 126 850 l 124 861 l 124 861 l 124 867 q 128 867 125 867 q 135 867 132 867 q 140 867 139 867 l 335 867 q 676 758 561 867 q 790 433 790 649 q 737 203 790 300 q 582 53 683 106 q 340 0 481 0 l 140 0 m 199 800 l 228 844 l 228 150 q 238 92 228 114 q 273 60 249 71 q 340 50 297 50 l 353 50 q 601 145 518 50 q 685 417 685 240 q 640 627 685 536 q 514 767 596 718 q 324 817 432 817 l 318 817 q 248 813 282 817 q 199 800 214 808 m 51 406 l 51 417 l 51 461 l 474 461 l 474 450 l 474 406 l 51 406 z "},"E":{"ha":611,"x_min":124,"x_max":540,"o":"m 135 600 q 133 724 135 669 q 129 815 132 779 q 124 861 126 850 l 124 861 l 124 861 l 124 867 q 128 867 125 867 q 135 867 132 867 q 140 867 139 867 l 228 867 l 228 0 l 140 0 q 135 0 139 0 q 129 0 131 0 l 129 6 q 132 51 131 15 q 134 142 133 88 q 135 267 135 197 l 135 600 m 204 867 l 522 867 l 522 794 l 511 794 q 478 799 497 797 q 431 803 458 801 q 387 805 411 804 q 335 806 363 806 l 311 806 q 247 805 278 806 q 204 800 217 804 l 204 867 m 228 67 q 247 63 235 64 q 284 61 260 61 q 346 61 308 61 l 375 61 q 419 62 399 61 q 458 64 439 63 q 497 67 478 65 q 535 72 515 69 l 540 72 l 540 0 l 458 0 l 228 0 l 228 67 m 204 494 l 208 494 q 270 490 233 490 q 340 489 307 489 q 369 489 356 489 q 394 489 382 489 q 440 491 415 490 q 499 494 465 492 l 506 494 q 506 478 506 488 q 506 460 506 469 q 506 439 506 449 q 506 422 506 429 l 493 422 q 448 425 469 424 q 408 426 426 426 q 370 428 389 428 q 335 428 351 428 q 282 427 310 428 q 226 425 254 426 q 215 424 221 424 q 204 422 210 424 l 204 494 z "},"É":{"ha":611,"x_min":124,"x_max":540,"o":"m 135 600 q 133 724 135 669 q 129 815 132 779 q 124 861 126 850 l 124 861 l 124 861 l 124 867 q 128 867 125 867 q 135 867 132 867 q 140 867 139 867 l 228 867 l 228 0 l 140 0 q 135 0 139 0 q 129 0 131 0 l 129 6 q 132 51 131 15 q 134 142 133 88 q 135 267 135 197 l 135 600 m 204 867 l 522 867 l 522 794 l 511 794 q 478 799 497 797 q 431 803 458 801 q 387 805 411 804 q 335 806 363 806 l 311 806 q 247 805 278 806 q 204 800 217 804 l 204 867 m 228 67 q 247 63 235 64 q 284 61 260 61 q 346 61 308 61 l 375 61 q 419 62 399 61 q 458 64 439 63 q 497 67 478 65 q 535 72 515 69 l 540 72 l 540 0 l 458 0 l 228 0 l 228 67 m 204 494 l 208 494 q 270 490 233 490 q 340 489 307 489 q 369 489 356 489 q 394 489 382 489 q 440 491 415 490 q 499 494 465 492 l 506 494 q 506 478 506 488 q 506 460 506 469 q 506 439 506 449 q 506 422 506 429 l 493 422 q 448 425 469 424 q 408 426 426 426 q 370 428 389 428 q 335 428 351 428 q 282 427 310 428 q 226 425 254 426 q 215 424 221 424 q 204 422 210 424 l 204 494 m 246 978 l 368 1172 l 501 1172 l 501 1161 l 282 967 l 246 978 z "},"Ĕ":{"ha":611,"x_min":124,"x_max":540,"o":"m 135 600 q 133 724 135 669 q 129 815 132 779 q 124 861 126 850 l 124 861 l 124 861 l 124 867 q 128 867 125 867 q 135 867 132 867 q 140 867 139 867 l 228 867 l 228 0 l 140 0 q 135 0 139 0 q 129 0 131 0 l 129 6 q 132 51 131 15 q 134 142 133 88 q 135 267 135 197 l 135 600 m 204 867 l 522 867 l 522 794 l 511 794 q 478 799 497 797 q 431 803 458 801 q 387 805 411 804 q 335 806 363 806 l 311 806 q 247 805 278 806 q 204 800 217 804 l 204 867 m 228 67 q 247 63 235 64 q 284 61 260 61 q 346 61 308 61 l 375 61 q 419 62 399 61 q 458 64 439 63 q 497 67 478 65 q 535 72 515 69 l 540 72 l 540 0 l 458 0 l 228 0 l 228 67 m 204 494 l 208 494 q 270 490 233 490 q 340 489 307 489 q 369 489 356 489 q 394 489 382 489 q 440 491 415 490 q 499 494 465 492 l 506 494 q 506 478 506 488 q 506 460 506 469 q 506 439 506 449 q 506 422 506 429 l 493 422 q 448 425 469 424 q 408 426 426 426 q 370 428 389 428 q 335 428 351 428 q 282 427 310 428 q 226 425 254 426 q 215 424 221 424 q 204 422 210 424 l 204 494 m 439 1167 q 397 1021 435 1075 q 286 967 358 967 q 177 1021 215 967 q 133 1167 139 1075 l 164 1172 q 208 1087 178 1118 q 286 1056 238 1056 q 364 1086 335 1056 q 408 1172 393 1117 l 439 1167 z "},"Ě":{"ha":611,"x_min":124,"x_max":540,"o":"m 135 600 q 133 724 135 669 q 129 815 132 779 q 124 861 126 850 l 124 861 l 124 861 l 124 867 q 128 867 125 867 q 135 867 132 867 q 140 867 139 867 l 228 867 l 228 0 l 140 0 q 135 0 139 0 q 129 0 131 0 l 129 6 q 132 51 131 15 q 134 142 133 88 q 135 267 135 197 l 135 600 m 204 867 l 522 867 l 522 794 l 511 794 q 478 799 497 797 q 431 803 458 801 q 387 805 411 804 q 335 806 363 806 l 311 806 q 247 805 278 806 q 204 800 217 804 l 204 867 m 228 67 q 247 63 235 64 q 284 61 260 61 q 346 61 308 61 l 375 61 q 419 62 399 61 q 458 64 439 63 q 497 67 478 65 q 535 72 515 69 l 540 72 l 540 0 l 458 0 l 228 0 l 228 67 m 204 494 l 208 494 q 270 490 233 490 q 340 489 307 489 q 369 489 356 489 q 394 489 382 489 q 440 491 415 490 q 499 494 465 492 l 506 494 q 506 478 506 488 q 506 460 506 469 q 506 439 506 449 q 506 422 506 429 l 493 422 q 448 425 469 424 q 408 426 426 426 q 370 428 389 428 q 335 428 351 428 q 282 427 310 428 q 226 425 254 426 q 215 424 221 424 q 204 422 210 424 l 204 494 m 401 1172 l 439 1167 l 299 967 l 274 967 l 139 1167 l 169 1172 l 286 1067 l 401 1172 z "},"Ê":{"ha":611,"x_min":124,"x_max":540,"o":"m 135 600 q 133 724 135 669 q 129 815 132 779 q 124 861 126 850 l 124 861 l 124 861 l 124 867 q 128 867 125 867 q 135 867 132 867 q 140 867 139 867 l 228 867 l 228 0 l 140 0 q 135 0 139 0 q 129 0 131 0 l 129 6 q 132 51 131 15 q 134 142 133 88 q 135 267 135 197 l 135 600 m 204 867 l 522 867 l 522 794 l 511 794 q 478 799 497 797 q 431 803 458 801 q 387 805 411 804 q 335 806 363 806 l 311 806 q 247 805 278 806 q 204 800 217 804 l 204 867 m 228 67 q 247 63 235 64 q 284 61 260 61 q 346 61 308 61 l 375 61 q 419 62 399 61 q 458 64 439 63 q 497 67 478 65 q 535 72 515 69 l 540 72 l 540 0 l 458 0 l 228 0 l 228 67 m 204 494 l 208 494 q 270 490 233 490 q 340 489 307 489 q 369 489 356 489 q 394 489 382 489 q 440 491 415 490 q 499 494 465 492 l 506 494 q 506 478 506 488 q 506 460 506 469 q 506 439 506 449 q 506 422 506 429 l 493 422 q 448 425 469 424 q 408 426 426 426 q 370 428 389 428 q 335 428 351 428 q 282 427 310 428 q 226 425 254 426 q 215 424 221 424 q 204 422 210 424 l 204 494 m 401 967 l 285 1072 l 169 967 l 139 972 l 274 1172 l 297 1172 l 438 972 l 401 967 z "},"Ë":{"ha":611,"x_min":94,"x_max":540,"o":"m 135 600 q 133 724 135 669 q 129 815 132 779 q 124 861 126 850 l 124 861 l 124 861 l 124 867 q 128 867 125 867 q 135 867 132 867 q 140 867 139 867 l 228 867 l 228 0 l 140 0 q 135 0 139 0 q 129 0 131 0 l 129 6 q 132 51 131 15 q 134 142 133 88 q 135 267 135 197 l 135 600 m 204 867 l 522 867 l 522 794 l 511 794 q 478 799 497 797 q 431 803 458 801 q 387 805 411 804 q 335 806 363 806 l 311 806 q 247 805 278 806 q 204 800 217 804 l 204 867 m 228 67 q 247 63 235 64 q 284 61 260 61 q 346 61 308 61 l 375 61 q 419 62 399 61 q 458 64 439 63 q 497 67 478 65 q 535 72 515 69 l 540 72 l 540 0 l 458 0 l 228 0 l 228 67 m 204 494 l 208 494 q 270 490 233 490 q 340 489 307 489 q 369 489 356 489 q 394 489 382 489 q 440 491 415 490 q 499 494 465 492 l 506 494 q 506 478 506 488 q 506 460 506 469 q 506 439 506 449 q 506 422 506 429 l 493 422 q 448 425 469 424 q 408 426 426 426 q 370 428 389 428 q 335 428 351 428 q 282 427 310 428 q 226 425 254 426 q 215 424 221 424 q 204 422 210 424 l 204 494 m 94 1039 q 135 1085 94 1047 q 179 1122 176 1122 q 227 1085 189 1122 q 265 1039 265 1047 q 226 999 265 1036 q 179 961 188 961 q 135 999 176 961 q 94 1039 94 1038 m 314 1039 q 352 1085 314 1047 q 393 1122 390 1122 q 444 1085 403 1122 q 485 1039 485 1047 q 443 999 485 1036 q 393 961 401 961 q 352 999 390 961 q 314 1039 314 1038 z "},"Ė":{"ha":611,"x_min":124,"x_max":540,"o":"m 135 600 q 133 724 135 669 q 129 815 132 779 q 124 861 126 850 l 124 861 l 124 861 l 124 867 q 128 867 125 867 q 135 867 132 867 q 140 867 139 867 l 228 867 l 228 0 l 140 0 q 135 0 139 0 q 129 0 131 0 l 129 6 q 132 51 131 15 q 134 142 133 88 q 135 267 135 197 l 135 600 m 204 867 l 522 867 l 522 794 l 511 794 q 478 799 497 797 q 431 803 458 801 q 387 805 411 804 q 335 806 363 806 l 311 806 q 247 805 278 806 q 204 800 217 804 l 204 867 m 228 67 q 247 63 235 64 q 284 61 260 61 q 346 61 308 61 l 375 61 q 419 62 399 61 q 458 64 439 63 q 497 67 478 65 q 535 72 515 69 l 540 72 l 540 0 l 458 0 l 228 0 l 228 67 m 204 494 l 208 494 q 270 490 233 490 q 340 489 307 489 q 369 489 356 489 q 394 489 382 489 q 440 491 415 490 q 499 494 465 492 l 506 494 q 506 478 506 488 q 506 460 506 469 q 506 439 506 449 q 506 422 506 429 l 493 422 q 448 425 469 424 q 408 426 426 426 q 370 428 389 428 q 335 428 351 428 q 282 427 310 428 q 226 425 254 426 q 215 424 221 424 q 204 422 210 424 l 204 494 m 194 1039 q 237 1084 194 1046 q 286 1122 279 1122 q 313 1103 290 1122 q 356 1064 335 1085 q 378 1039 378 1043 q 356 1014 378 1035 q 313 974 335 993 q 286 956 290 956 q 259 974 282 956 q 215 1014 236 993 q 194 1039 194 1035 z "},"È":{"ha":611,"x_min":74,"x_max":540,"o":"m 135 600 q 133 724 135 669 q 129 815 132 779 q 124 861 126 850 l 124 861 l 124 861 l 124 867 q 128 867 125 867 q 135 867 132 867 q 140 867 139 867 l 228 867 l 228 0 l 140 0 q 135 0 139 0 q 129 0 131 0 l 129 6 q 132 51 131 15 q 134 142 133 88 q 135 267 135 197 l 135 600 m 204 867 l 522 867 l 522 794 l 511 794 q 478 799 497 797 q 431 803 458 801 q 387 805 411 804 q 335 806 363 806 l 311 806 q 247 805 278 806 q 204 800 217 804 l 204 867 m 228 67 q 247 63 235 64 q 284 61 260 61 q 346 61 308 61 l 375 61 q 419 62 399 61 q 458 64 439 63 q 497 67 478 65 q 535 72 515 69 l 540 72 l 540 0 l 458 0 l 228 0 l 228 67 m 204 494 l 208 494 q 270 490 233 490 q 340 489 307 489 q 369 489 356 489 q 394 489 382 489 q 440 491 415 490 q 499 494 465 492 l 506 494 q 506 478 506 488 q 506 460 506 469 q 506 439 506 449 q 506 422 506 429 l 493 422 q 448 425 469 424 q 408 426 426 426 q 370 428 389 428 q 335 428 351 428 q 282 427 310 428 q 226 425 254 426 q 215 424 221 424 q 204 422 210 424 l 204 494 m 331 978 l 294 967 l 74 1161 l 74 1172 l 208 1172 l 331 978 z "},"Ē":{"ha":611,"x_min":117,"x_max":540,"o":"m 135 600 q 133 724 135 669 q 129 815 132 779 q 124 861 126 850 l 124 861 l 124 861 l 124 867 q 128 867 125 867 q 135 867 132 867 q 140 867 139 867 l 228 867 l 228 0 l 140 0 q 135 0 139 0 q 129 0 131 0 l 129 6 q 132 51 131 15 q 134 142 133 88 q 135 267 135 197 l 135 600 m 204 867 l 522 867 l 522 794 l 511 794 q 478 799 497 797 q 431 803 458 801 q 387 805 411 804 q 335 806 363 806 l 311 806 q 247 805 278 806 q 204 800 217 804 l 204 867 m 228 67 q 247 63 235 64 q 284 61 260 61 q 346 61 308 61 l 375 61 q 419 62 399 61 q 458 64 439 63 q 497 67 478 65 q 535 72 515 69 l 540 72 l 540 0 l 458 0 l 228 0 l 228 67 m 204 494 l 208 494 q 270 490 233 490 q 340 489 307 489 q 369 489 356 489 q 394 489 382 489 q 440 491 415 490 q 499 494 465 492 l 506 494 q 506 478 506 488 q 506 460 506 469 q 506 439 506 449 q 506 422 506 429 l 493 422 q 448 425 469 424 q 408 426 426 426 q 370 428 389 428 q 335 428 351 428 q 282 427 310 428 q 226 425 254 426 q 215 424 221 424 q 204 422 210 424 l 204 494 m 117 1072 l 460 1072 l 460 1011 l 117 1011 l 117 1072 z "},"Ę":{"ha":611,"x_min":124,"x_max":563,"o":"m 135 600 q 133 724 135 669 q 129 815 132 779 q 124 861 126 850 l 124 861 l 124 861 l 124 867 q 128 867 125 867 q 135 867 132 867 q 140 867 139 867 l 228 867 l 228 0 l 140 0 q 135 0 139 0 q 129 0 131 0 l 129 6 q 132 51 131 15 q 134 142 133 88 q 135 267 135 197 l 135 600 m 204 867 l 522 867 l 522 794 l 511 794 q 478 799 497 797 q 431 803 458 801 q 387 805 411 804 q 335 806 363 806 l 311 806 q 247 805 278 806 q 204 800 217 804 l 204 867 m 228 67 q 247 63 235 64 q 284 61 260 61 q 346 61 308 61 l 375 61 q 419 62 399 61 q 458 64 439 63 q 497 67 478 65 q 535 72 515 69 l 540 72 l 540 0 l 458 0 l 228 0 l 228 67 m 204 494 l 208 494 q 270 490 233 490 q 340 489 307 489 q 369 489 356 489 q 394 489 382 489 q 440 491 415 490 q 499 494 465 492 l 506 494 q 506 478 506 488 q 506 460 506 469 q 506 439 506 449 q 506 422 506 429 l 493 422 q 448 425 469 424 q 408 426 426 426 q 370 428 389 428 q 335 428 351 428 q 282 427 310 428 q 226 425 254 426 q 215 424 221 424 q 204 422 210 424 l 204 494 m 540 0 q 537 -5 539 -3 q 532 -8 535 -7 q 465 -87 490 -49 q 440 -172 440 -126 q 461 -218 440 -203 q 513 -233 482 -233 q 540 -230 526 -233 q 563 -222 553 -226 l 563 -239 q 513 -275 542 -261 q 451 -289 483 -289 q 375 -261 404 -289 q 346 -183 346 -233 q 399 -72 346 -128 q 518 6 453 -17 l 540 0 z "},"F":{"ha":576,"x_min":124,"x_max":517,"o":"m 135 600 q 133 724 135 669 q 129 815 132 779 q 124 861 126 850 l 124 861 l 124 861 l 124 867 q 128 867 125 867 q 135 867 132 867 q 140 867 139 867 l 228 867 l 228 267 q 230 141 228 197 q 235 51 232 85 q 242 6 238 17 l 242 6 l 242 6 l 242 0 q 235 0 240 0 q 226 0 231 0 q 221 0 222 0 l 140 0 q 135 0 139 0 q 129 0 131 0 l 129 6 q 132 51 131 15 q 134 142 133 88 q 135 267 135 197 l 135 600 m 199 867 l 517 867 l 517 794 l 506 794 q 479 799 494 797 q 444 803 464 801 q 392 805 421 804 q 328 806 363 806 l 304 806 q 242 805 272 806 q 199 800 211 804 l 199 867 m 199 494 l 203 494 q 265 490 228 490 q 335 489 301 489 q 408 490 372 489 q 493 494 444 490 l 499 494 q 499 472 499 485 q 499 446 499 458 q 499 433 499 439 q 499 422 499 426 l 488 422 q 450 424 468 424 q 415 426 432 425 q 369 428 392 428 q 328 428 347 428 q 276 427 304 428 q 221 425 249 426 q 210 424 215 424 q 199 422 204 424 l 199 494 z "},"G":{"ha":800,"x_min":71,"x_max":721,"o":"m 71 456 q 123 685 71 589 q 270 833 175 782 q 492 883 365 883 q 609 867 550 883 q 701 828 668 850 l 707 728 l 696 728 q 626 789 669 761 q 552 818 593 808 q 461 828 511 828 q 321 782 386 828 q 216 652 256 736 q 176 456 176 568 q 222 238 176 332 q 347 91 267 143 q 528 39 426 39 q 631 50 558 39 l 631 117 q 629 241 631 186 q 625 331 628 296 q 619 378 622 367 l 619 378 l 619 378 l 619 383 q 624 383 621 383 q 631 383 628 383 q 636 383 635 383 l 715 383 q 718 383 717 383 q 721 383 719 383 l 721 378 q 719 329 719 363 q 719 241 719 296 q 718 117 718 186 l 718 28 q 606 -4 667 8 q 474 -17 546 -17 q 263 40 354 -17 q 122 204 172 97 q 71 456 71 311 z "},"Ǵ":{"ha":800,"x_min":71,"x_max":721,"o":"m 71 456 q 123 685 71 589 q 270 833 175 782 q 492 883 365 883 q 609 867 550 883 q 701 828 668 850 l 707 728 l 696 728 q 626 789 669 761 q 552 818 593 808 q 461 828 511 828 q 321 782 386 828 q 216 652 256 736 q 176 456 176 568 q 222 238 176 332 q 347 91 267 143 q 528 39 426 39 q 631 50 558 39 l 631 117 q 629 241 631 186 q 625 331 628 296 q 619 378 622 367 l 619 378 l 619 378 l 619 383 q 624 383 621 383 q 631 383 628 383 q 636 383 635 383 l 715 383 q 718 383 717 383 q 721 383 719 383 l 721 378 q 719 329 719 363 q 719 241 719 296 q 718 117 718 186 l 718 28 q 606 -4 667 8 q 474 -17 546 -17 q 263 40 354 -17 q 122 204 172 97 q 71 456 71 311 m 426 978 l 549 1172 l 682 1172 l 682 1161 l 463 967 l 426 978 z "},"Ğ":{"ha":800,"x_min":71,"x_max":721,"o":"m 71 456 q 123 685 71 589 q 270 833 175 782 q 492 883 365 883 q 609 867 550 883 q 701 828 668 850 l 707 728 l 696 728 q 626 789 669 761 q 552 818 593 808 q 461 828 511 828 q 321 782 386 828 q 216 652 256 736 q 176 456 176 568 q 222 238 176 332 q 347 91 267 143 q 528 39 426 39 q 631 50 558 39 l 631 117 q 629 241 631 186 q 625 331 628 296 q 619 378 622 367 l 619 378 l 619 378 l 619 383 q 624 383 621 383 q 631 383 628 383 q 636 383 635 383 l 715 383 q 718 383 717 383 q 721 383 719 383 l 721 378 q 719 329 719 363 q 719 241 719 296 q 718 117 718 186 l 718 28 q 606 -4 667 8 q 474 -17 546 -17 q 263 40 354 -17 q 122 204 172 97 q 71 456 71 311 m 619 1167 q 577 1021 615 1075 q 467 967 539 967 q 358 1021 396 967 q 314 1167 319 1075 l 344 1172 q 388 1087 358 1118 q 467 1056 418 1056 q 544 1086 515 1056 q 589 1172 574 1117 l 619 1167 z "},"Ǧ":{"ha":800,"x_min":71,"x_max":721,"o":"m 71 456 q 123 685 71 589 q 270 833 175 782 q 492 883 365 883 q 609 867 550 883 q 701 828 668 850 l 707 728 l 696 728 q 626 789 669 761 q 552 818 593 808 q 461 828 511 828 q 321 782 386 828 q 216 652 256 736 q 176 456 176 568 q 222 238 176 332 q 347 91 267 143 q 528 39 426 39 q 631 50 558 39 l 631 117 q 629 241 631 186 q 625 331 628 296 q 619 378 622 367 l 619 378 l 619 378 l 619 383 q 624 383 621 383 q 631 383 628 383 q 636 383 635 383 l 715 383 q 718 383 717 383 q 721 383 719 383 l 721 378 q 719 329 719 363 q 719 241 719 296 q 718 117 718 186 l 718 28 q 606 -4 667 8 q 474 -17 546 -17 q 263 40 354 -17 q 122 204 172 97 q 71 456 71 311 m 582 1172 l 619 1167 l 479 967 l 454 967 l 319 1167 l 350 1172 l 467 1067 l 582 1172 z "},"Ĝ":{"ha":800,"x_min":71,"x_max":721,"o":"m 71 456 q 123 685 71 589 q 270 833 175 782 q 492 883 365 883 q 609 867 550 883 q 701 828 668 850 l 707 728 l 696 728 q 626 789 669 761 q 552 818 593 808 q 461 828 511 828 q 321 782 386 828 q 216 652 256 736 q 176 456 176 568 q 222 238 176 332 q 347 91 267 143 q 528 39 426 39 q 631 50 558 39 l 631 117 q 629 241 631 186 q 625 331 628 296 q 619 378 622 367 l 619 378 l 619 378 l 619 383 q 624 383 621 383 q 631 383 628 383 q 636 383 635 383 l 715 383 q 718 383 717 383 q 721 383 719 383 l 721 378 q 719 329 719 363 q 719 241 719 296 q 718 117 718 186 l 718 28 q 606 -4 667 8 q 474 -17 546 -17 q 263 40 354 -17 q 122 204 172 97 q 71 456 71 311 m 582 967 l 465 1072 l 350 967 l 319 972 l 454 1172 l 478 1172 l 618 972 l 582 967 z "},"Ģ":{"ha":800,"x_min":71,"x_max":721,"o":"m 71 456 q 123 685 71 589 q 270 833 175 782 q 492 883 365 883 q 609 867 550 883 q 701 828 668 850 l 707 728 l 696 728 q 626 789 669 761 q 552 818 593 808 q 461 828 511 828 q 321 782 386 828 q 216 652 256 736 q 176 456 176 568 q 222 238 176 332 q 347 91 267 143 q 528 39 426 39 q 631 50 558 39 l 631 117 q 629 241 631 186 q 625 331 628 296 q 619 378 622 367 l 619 378 l 619 378 l 619 383 q 624 383 621 383 q 631 383 628 383 q 636 383 635 383 l 715 383 q 718 383 717 383 q 721 383 719 383 l 721 378 q 719 329 719 363 q 719 241 719 296 q 718 117 718 186 l 718 28 q 606 -4 667 8 q 474 -17 546 -17 q 263 40 354 -17 q 122 204 172 97 q 71 456 71 311 m 379 -344 q 395 -200 379 -321 q 418 -72 411 -79 q 473 -83 429 -72 q 524 -100 517 -93 q 497 -176 515 -124 q 460 -282 479 -229 q 429 -361 440 -335 q 403 -356 419 -361 q 379 -344 386 -351 z "},"Ġ":{"ha":800,"x_min":71,"x_max":721,"o":"m 71 456 q 123 685 71 589 q 270 833 175 782 q 492 883 365 883 q 609 867 550 883 q 701 828 668 850 l 707 728 l 696 728 q 626 789 669 761 q 552 818 593 808 q 461 828 511 828 q 321 782 386 828 q 216 652 256 736 q 176 456 176 568 q 222 238 176 332 q 347 91 267 143 q 528 39 426 39 q 631 50 558 39 l 631 117 q 629 241 631 186 q 625 331 628 296 q 619 378 622 367 l 619 378 l 619 378 l 619 383 q 624 383 621 383 q 631 383 628 383 q 636 383 635 383 l 715 383 q 718 383 717 383 q 721 383 719 383 l 721 378 q 719 329 719 363 q 719 241 719 296 q 718 117 718 186 l 718 28 q 606 -4 667 8 q 474 -17 546 -17 q 263 40 354 -17 q 122 204 172 97 q 71 456 71 311 m 375 1039 q 417 1084 375 1046 q 467 1122 460 1122 q 493 1103 471 1122 q 537 1064 515 1085 q 558 1039 558 1043 q 537 1014 558 1035 q 493 974 515 993 q 467 956 471 956 q 440 974 463 956 q 396 1014 417 993 q 375 1039 375 1035 z "},"H":{"ha":899,"x_min":124,"x_max":775,"o":"m 222 867 q 228 867 224 867 q 233 867 232 867 l 233 861 q 231 815 232 851 q 228 724 229 779 q 228 600 228 669 l 228 267 q 229 142 228 197 q 233 52 231 88 q 240 6 236 17 l 240 6 l 240 6 l 240 0 q 235 0 239 0 q 227 0 231 0 q 222 0 224 0 l 140 0 q 135 0 139 0 q 129 0 131 0 l 129 6 q 132 51 131 15 q 134 142 133 88 q 135 267 135 197 l 135 600 q 133 724 135 669 q 129 815 132 779 q 124 861 126 850 l 124 861 l 124 861 l 124 867 q 128 867 125 867 q 135 867 132 867 q 140 867 139 867 l 222 867 m 758 867 q 764 867 760 867 q 769 867 768 867 l 769 861 q 767 815 768 851 q 765 724 765 779 q 764 600 764 669 l 764 267 q 765 142 764 197 q 769 52 767 88 q 775 6 772 17 l 775 6 l 775 6 l 775 0 q 770 0 774 0 q 763 0 767 0 q 758 0 760 0 l 676 0 q 671 0 675 0 q 665 0 667 0 l 665 6 q 668 51 667 15 q 670 142 669 88 q 671 267 671 197 l 671 600 q 669 724 671 669 q 665 815 668 779 q 658 861 663 850 l 658 861 l 658 861 l 658 867 q 664 867 660 867 q 672 867 668 867 q 676 867 675 867 l 758 867 m 201 478 l 703 478 l 703 417 l 201 417 l 201 478 z "},"Ħ":{"ha":899,"x_min":50,"x_max":850,"o":"m 222 867 q 228 867 224 867 q 233 867 232 867 l 233 861 q 231 815 232 851 q 228 724 229 779 q 228 600 228 669 l 228 267 q 229 142 228 197 q 233 52 231 88 q 240 6 236 17 l 240 6 l 240 6 l 240 0 q 235 0 239 0 q 227 0 231 0 q 222 0 224 0 l 140 0 q 135 0 139 0 q 129 0 131 0 l 129 6 q 132 51 131 15 q 134 142 133 88 q 135 267 135 197 l 135 600 q 133 724 135 669 q 129 815 132 779 q 124 861 126 850 l 124 861 l 124 861 l 124 867 q 128 867 125 867 q 135 867 132 867 q 140 867 139 867 l 222 867 m 758 867 q 764 867 760 867 q 769 867 768 867 l 769 861 q 767 815 768 851 q 765 724 765 779 q 764 600 764 669 l 764 267 q 765 142 764 197 q 769 52 767 88 q 775 6 772 17 l 775 6 l 775 6 l 775 0 q 770 0 774 0 q 763 0 767 0 q 758 0 760 0 l 676 0 q 671 0 675 0 q 665 0 667 0 l 665 6 q 668 51 667 15 q 670 142 669 88 q 671 267 671 197 l 671 600 q 669 724 671 669 q 665 815 668 779 q 658 861 663 850 l 658 861 l 658 861 l 658 867 q 664 867 660 867 q 672 867 668 867 q 676 867 675 867 l 758 867 m 201 478 l 703 478 l 703 417 l 201 417 l 201 478 m 50 633 l 50 644 l 50 689 l 850 689 l 850 678 l 850 633 l 50 633 z "},"Ĥ":{"ha":899,"x_min":124,"x_max":775,"o":"m 222 867 q 228 867 224 867 q 233 867 232 867 l 233 861 q 231 815 232 851 q 228 724 229 779 q 228 600 228 669 l 228 267 q 229 142 228 197 q 233 52 231 88 q 240 6 236 17 l 240 6 l 240 6 l 240 0 q 235 0 239 0 q 227 0 231 0 q 222 0 224 0 l 140 0 q 135 0 139 0 q 129 0 131 0 l 129 6 q 132 51 131 15 q 134 142 133 88 q 135 267 135 197 l 135 600 q 133 724 135 669 q 129 815 132 779 q 124 861 126 850 l 124 861 l 124 861 l 124 867 q 128 867 125 867 q 135 867 132 867 q 140 867 139 867 l 222 867 m 758 867 q 764 867 760 867 q 769 867 768 867 l 769 861 q 767 815 768 851 q 765 724 765 779 q 764 600 764 669 l 764 267 q 765 142 764 197 q 769 52 767 88 q 775 6 772 17 l 775 6 l 775 6 l 775 0 q 770 0 774 0 q 763 0 767 0 q 758 0 760 0 l 676 0 q 671 0 675 0 q 665 0 667 0 l 665 6 q 668 51 667 15 q 670 142 669 88 q 671 267 671 197 l 671 600 q 669 724 671 669 q 665 815 668 779 q 658 861 663 850 l 658 861 l 658 861 l 658 867 q 664 867 660 867 q 672 867 668 867 q 676 867 675 867 l 758 867 m 201 478 l 703 478 l 703 417 l 201 417 l 201 478 m 564 967 l 447 1072 l 332 967 l 301 972 l 436 1172 l 460 1172 l 600 972 l 564 967 z "},"I":{"ha":363,"x_min":124,"x_max":239,"o":"m 222 867 q 228 867 224 867 q 233 867 232 867 l 233 861 q 231 815 232 851 q 228 724 229 779 q 228 600 228 669 l 228 267 q 229 142 228 197 q 233 52 231 88 q 239 6 236 17 l 239 6 l 239 6 l 239 0 q 234 0 238 0 q 227 0 231 0 q 222 0 224 0 l 140 0 q 135 0 139 0 q 129 0 131 0 l 129 6 q 132 51 131 15 q 134 142 133 88 q 135 267 135 197 l 135 600 q 133 724 135 669 q 129 815 132 779 q 124 861 126 850 l 124 861 l 124 861 l 124 867 q 128 867 125 867 q 135 867 132 867 q 140 867 139 867 l 222 867 z "},"Ĳ":{"ha":872,"x_min":124,"x_max":772,"o":"m 222 867 q 228 867 224 867 q 233 867 232 867 l 233 861 q 231 815 232 851 q 228 724 229 779 q 228 600 228 669 l 228 267 q 229 142 228 197 q 233 52 231 88 q 239 6 236 17 l 239 6 l 239 6 l 239 0 q 234 0 238 0 q 227 0 231 0 q 222 0 224 0 l 140 0 q 135 0 139 0 q 129 0 131 0 l 129 6 q 132 51 131 15 q 134 142 133 88 q 135 267 135 197 l 135 600 q 133 724 135 669 q 129 815 132 779 q 124 861 126 850 l 124 861 l 124 861 l 124 867 q 128 867 125 867 q 135 867 132 867 q 140 867 139 867 l 222 867 m 513 -17 q 430 -10 468 -17 q 365 6 392 -4 l 367 72 q 436 49 397 58 q 519 39 475 39 q 641 107 608 39 q 674 283 674 175 l 674 600 q 672 724 674 669 q 668 815 671 779 q 663 861 665 850 l 663 861 l 663 861 l 663 867 q 667 867 664 867 q 674 867 671 867 q 679 867 678 867 l 761 867 q 767 867 763 867 q 772 867 771 867 l 772 861 q 769 815 771 851 q 767 724 768 779 q 767 600 767 669 l 767 300 q 746 140 767 208 q 669 27 725 71 q 513 -17 614 -17 m 513 -17 q 360 6 429 -17 l 360 100 l 372 100 q 411 66 390 79 q 457 46 432 53 q 487 41 471 43 q 519 39 503 39 l 513 -17 z "},"Í":{"ha":363,"x_min":124,"x_max":399,"o":"m 222 867 q 228 867 224 867 q 233 867 232 867 l 233 861 q 231 815 232 851 q 228 724 229 779 q 228 600 228 669 l 228 267 q 229 142 228 197 q 233 52 231 88 q 239 6 236 17 l 239 6 l 239 6 l 239 0 q 234 0 238 0 q 227 0 231 0 q 222 0 224 0 l 140 0 q 135 0 139 0 q 129 0 131 0 l 129 6 q 132 51 131 15 q 134 142 133 88 q 135 267 135 197 l 135 600 q 133 724 135 669 q 129 815 132 779 q 124 861 126 850 l 124 861 l 124 861 l 124 867 q 128 867 125 867 q 135 867 132 867 q 140 867 139 867 l 222 867 m 143 978 l 265 1172 l 399 1172 l 399 1161 l 179 967 l 143 978 z "},"Ĭ":{"ha":363,"x_min":31,"x_max":336,"o":"m 222 867 q 228 867 224 867 q 233 867 232 867 l 233 861 q 231 815 232 851 q 228 724 229 779 q 228 600 228 669 l 228 267 q 229 142 228 197 q 233 52 231 88 q 239 6 236 17 l 239 6 l 239 6 l 239 0 q 234 0 238 0 q 227 0 231 0 q 222 0 224 0 l 140 0 q 135 0 139 0 q 129 0 131 0 l 129 6 q 132 51 131 15 q 134 142 133 88 q 135 267 135 197 l 135 600 q 133 724 135 669 q 129 815 132 779 q 124 861 126 850 l 124 861 l 124 861 l 124 867 q 128 867 125 867 q 135 867 132 867 q 140 867 139 867 l 222 867 m 336 1167 q 294 1021 332 1075 q 183 967 256 967 q 74 1021 113 967 q 31 1167 36 1075 l 61 1172 q 105 1087 75 1118 q 183 1056 135 1056 q 261 1086 232 1056 q 306 1172 290 1117 l 336 1167 z "},"Î":{"ha":363,"x_min":36,"x_max":335,"o":"m 222 867 q 228 867 224 867 q 233 867 232 867 l 233 861 q 231 815 232 851 q 228 724 229 779 q 228 600 228 669 l 228 267 q 229 142 228 197 q 233 52 231 88 q 239 6 236 17 l 239 6 l 239 6 l 239 0 q 234 0 238 0 q 227 0 231 0 q 222 0 224 0 l 140 0 q 135 0 139 0 q 129 0 131 0 l 129 6 q 132 51 131 15 q 134 142 133 88 q 135 267 135 197 l 135 600 q 133 724 135 669 q 129 815 132 779 q 124 861 126 850 l 124 861 l 124 861 l 124 867 q 128 867 125 867 q 135 867 132 867 q 140 867 139 867 l 222 867 m 299 967 l 182 1072 l 67 967 l 36 972 l 171 1172 l 194 1172 l 335 972 l 299 967 z "},"Ï":{"ha":363,"x_min":-8,"x_max":382,"o":"m 222 867 q 228 867 224 867 q 233 867 232 867 l 233 861 q 231 815 232 851 q 228 724 229 779 q 228 600 228 669 l 228 267 q 229 142 228 197 q 233 52 231 88 q 239 6 236 17 l 239 6 l 239 6 l 239 0 q 234 0 238 0 q 227 0 231 0 q 222 0 224 0 l 140 0 q 135 0 139 0 q 129 0 131 0 l 129 6 q 132 51 131 15 q 134 142 133 88 q 135 267 135 197 l 135 600 q 133 724 135 669 q 129 815 132 779 q 124 861 126 850 l 124 861 l 124 861 l 124 867 q 128 867 125 867 q 135 867 132 867 q 140 867 139 867 l 222 867 m -8 1039 q 33 1085 -8 1047 q 76 1122 74 1122 q 124 1085 86 1122 q 163 1039 163 1047 q 124 999 163 1036 q 76 961 85 961 q 33 999 74 961 q -8 1039 -8 1038 m 211 1039 q 249 1085 211 1047 q 290 1122 288 1122 q 341 1085 300 1122 q 382 1039 382 1047 q 340 999 382 1036 q 290 961 299 961 q 249 999 288 961 q 211 1039 211 1038 z "},"İ":{"ha":363,"x_min":92,"x_max":275,"o":"m 222 867 q 228 867 224 867 q 233 867 232 867 l 233 861 q 231 815 232 851 q 228 724 229 779 q 228 600 228 669 l 228 267 q 229 142 228 197 q 233 52 231 88 q 239 6 236 17 l 239 6 l 239 6 l 239 0 q 234 0 238 0 q 227 0 231 0 q 222 0 224 0 l 140 0 q 135 0 139 0 q 129 0 131 0 l 129 6 q 132 51 131 15 q 134 142 133 88 q 135 267 135 197 l 135 600 q 133 724 135 669 q 129 815 132 779 q 124 861 126 850 l 124 861 l 124 861 l 124 867 q 128 867 125 867 q 135 867 132 867 q 140 867 139 867 l 222 867 m 92 1039 q 134 1084 92 1046 q 183 1122 176 1122 q 210 1103 188 1122 q 253 1064 232 1085 q 275 1039 275 1043 q 253 1014 275 1035 q 210 974 232 993 q 183 956 188 956 q 156 974 179 956 q 113 1014 133 993 q 92 1039 92 1035 z "},"Ì":{"ha":363,"x_min":-29,"x_max":239,"o":"m 222 867 q 228 867 224 867 q 233 867 232 867 l 233 861 q 231 815 232 851 q 228 724 229 779 q 228 600 228 669 l 228 267 q 229 142 228 197 q 233 52 231 88 q 239 6 236 17 l 239 6 l 239 6 l 239 0 q 234 0 238 0 q 227 0 231 0 q 222 0 224 0 l 140 0 q 135 0 139 0 q 129 0 131 0 l 129 6 q 132 51 131 15 q 134 142 133 88 q 135 267 135 197 l 135 600 q 133 724 135 669 q 129 815 132 779 q 124 861 126 850 l 124 861 l 124 861 l 124 867 q 128 867 125 867 q 135 867 132 867 q 140 867 139 867 l 222 867 m 228 978 l 192 967 l -29 1161 l -29 1172 l 106 1172 l 228 978 z "},"Ī":{"ha":363,"x_min":14,"x_max":357,"o":"m 222 867 q 228 867 224 867 q 233 867 232 867 l 233 861 q 231 815 232 851 q 228 724 229 779 q 228 600 228 669 l 228 267 q 229 142 228 197 q 233 52 231 88 q 239 6 236 17 l 239 6 l 239 6 l 239 0 q 234 0 238 0 q 227 0 231 0 q 222 0 224 0 l 140 0 q 135 0 139 0 q 129 0 131 0 l 129 6 q 132 51 131 15 q 134 142 133 88 q 135 267 135 197 l 135 600 q 133 724 135 669 q 129 815 132 779 q 124 861 126 850 l 124 861 l 124 861 l 124 867 q 128 867 125 867 q 135 867 132 867 q 140 867 139 867 l 222 867 m 14 1072 l 357 1072 l 357 1011 l 14 1011 l 14 1072 z "},"Į":{"ha":363,"x_min":44,"x_max":261,"o":"m 222 867 q 228 867 224 867 q 233 867 232 867 l 233 861 q 231 815 232 851 q 228 724 229 779 q 228 600 228 669 l 228 267 q 229 142 228 197 q 233 52 231 88 q 239 6 236 17 l 239 6 l 239 6 l 239 0 q 234 0 238 0 q 227 0 231 0 q 222 0 224 0 l 140 0 q 135 0 139 0 q 129 0 131 0 l 129 6 q 132 51 131 15 q 134 142 133 88 q 135 267 135 197 l 135 600 q 133 724 135 669 q 129 815 132 779 q 124 861 126 850 l 124 861 l 124 861 l 124 867 q 128 867 125 867 q 135 867 132 867 q 140 867 139 867 l 222 867 m 239 0 q 235 -5 238 -3 q 231 -8 233 -7 q 164 -87 189 -49 q 139 -172 139 -126 q 160 -218 139 -203 q 211 -233 181 -233 q 238 -230 225 -233 q 261 -222 251 -226 l 261 -239 q 211 -275 240 -261 q 150 -289 182 -289 q 74 -261 103 -289 q 44 -183 44 -233 q 98 -72 44 -128 q 217 6 151 -17 l 239 0 z "},"Ĩ":{"ha":363,"x_min":-12,"x_max":381,"o":"m 222 867 q 228 867 224 867 q 233 867 232 867 l 233 861 q 231 815 232 851 q 228 724 229 779 q 228 600 228 669 l 228 267 q 229 142 228 197 q 233 52 231 88 q 239 6 236 17 l 239 6 l 239 6 l 239 0 q 234 0 238 0 q 227 0 231 0 q 222 0 224 0 l 140 0 q 135 0 139 0 q 129 0 131 0 l 129 6 q 132 51 131 15 q 134 142 133 88 q 135 267 135 197 l 135 600 q 133 724 135 669 q 129 815 132 779 q 124 861 126 850 l 124 861 l 124 861 l 124 867 q 128 867 125 867 q 135 867 132 867 q 140 867 139 867 l 222 867 m 99 1156 q 179 1136 151 1156 q 231 1083 207 1117 q 257 1053 247 1061 q 282 1044 267 1044 q 326 1072 311 1044 q 349 1150 340 1099 l 379 1144 q 357 1018 381 1064 q 269 972 333 972 q 187 992 215 972 q 136 1046 158 1011 q 112 1074 122 1065 q 86 1083 101 1083 q 42 1058 57 1083 q 18 978 28 1032 l -12 983 q 11 1110 -12 1065 q 99 1156 35 1156 z "},"J":{"ha":510,"x_min":-3,"x_max":410,"o":"m 150 -17 q 67 -10 106 -17 q 3 6 29 -4 l 4 72 q 74 49 35 58 q 157 39 113 39 q 278 107 246 39 q 311 283 311 175 l 311 600 q 310 724 311 669 q 306 815 308 779 q 300 861 303 850 l 300 861 l 300 861 l 300 867 q 305 867 301 867 q 312 867 308 867 q 317 867 315 867 l 399 867 q 404 867 400 867 q 410 867 408 867 l 410 861 q 407 815 408 851 q 405 724 406 779 q 404 600 404 669 l 404 300 q 383 140 404 208 q 307 27 363 71 q 150 -17 251 -17 m 150 -17 q -3 6 67 -17 l -3 100 l 10 100 q 49 66 28 79 q 94 46 69 53 q 124 41 108 43 q 157 39 140 39 l 150 -17 z "},"Ĵ":{"ha":510,"x_min":-3,"x_max":508,"o":"m 150 -17 q 67 -10 106 -17 q 3 6 29 -4 l 4 72 q 74 49 35 58 q 157 39 113 39 q 278 107 246 39 q 311 283 311 175 l 311 600 q 310 724 311 669 q 306 815 308 779 q 300 861 303 850 l 300 861 l 300 861 l 300 867 q 305 867 301 867 q 312 867 308 867 q 317 867 315 867 l 399 867 q 404 867 400 867 q 410 867 408 867 l 410 861 q 407 815 408 851 q 405 724 406 779 q 404 600 404 669 l 404 300 q 383 140 404 208 q 307 27 363 71 q 150 -17 251 -17 m 150 -17 q -3 6 67 -17 l -3 100 l 10 100 q 49 66 28 79 q 94 46 69 53 q 124 41 108 43 q 157 39 140 39 l 150 -17 m 472 967 l 356 1072 l 240 967 l 210 972 l 344 1172 l 368 1172 l 508 972 l 472 967 z "},"K":{"ha":711,"x_min":124,"x_max":706,"o":"m 454 657 q 535 753 503 711 q 582 823 567 796 q 594 861 597 850 l 594 861 l 594 861 l 594 867 q 599 867 596 867 q 603 867 601 867 q 607 867 606 867 l 685 867 q 691 867 686 867 q 697 867 696 867 l 697 861 q 664 806 694 847 q 611 742 643 778 q 538 661 579 706 l 193 300 l 188 361 l 454 657 m 304 478 l 369 533 l 571 229 q 668 76 635 131 q 706 6 701 22 l 706 6 l 706 6 l 706 0 q 700 0 704 0 q 692 0 696 0 q 688 0 689 0 l 607 0 l 304 478 m 222 867 q 228 867 224 867 q 233 867 232 867 l 233 861 q 231 815 232 851 q 228 724 229 779 q 228 600 228 669 l 228 267 q 229 142 228 197 q 233 52 231 88 q 239 6 236 17 l 239 6 l 239 6 l 239 0 q 234 0 238 0 q 227 0 231 0 q 222 0 224 0 l 140 0 q 135 0 139 0 q 129 0 131 0 l 129 6 q 132 51 131 15 q 134 142 133 88 q 135 267 135 197 l 135 600 q 133 724 135 669 q 129 815 132 779 q 124 861 126 850 l 124 861 l 124 861 l 124 867 q 128 867 125 867 q 135 867 132 867 q 140 867 139 867 l 222 867 z "},"Ķ":{"ha":711,"x_min":124,"x_max":706,"o":"m 454 657 q 535 753 503 711 q 582 823 567 796 q 594 861 597 850 l 594 861 l 594 861 l 594 867 q 599 867 596 867 q 603 867 601 867 q 607 867 606 867 l 685 867 q 691 867 686 867 q 697 867 696 867 l 697 861 q 664 806 694 847 q 611 742 643 778 q 538 661 579 706 l 193 300 l 188 361 l 454 657 m 304 478 l 369 533 l 571 229 q 668 76 635 131 q 706 6 701 22 l 706 6 l 706 6 l 706 0 q 700 0 704 0 q 692 0 696 0 q 688 0 689 0 l 607 0 l 304 478 m 222 867 q 228 867 224 867 q 233 867 232 867 l 233 861 q 231 815 232 851 q 228 724 229 779 q 228 600 228 669 l 228 267 q 229 142 228 197 q 233 52 231 88 q 239 6 236 17 l 239 6 l 239 6 l 239 0 q 234 0 238 0 q 227 0 231 0 q 222 0 224 0 l 140 0 q 135 0 139 0 q 129 0 131 0 l 129 6 q 132 51 131 15 q 134 142 133 88 q 135 267 135 197 l 135 600 q 133 724 135 669 q 129 815 132 779 q 124 861 126 850 l 124 861 l 124 861 l 124 867 q 128 867 125 867 q 135 867 132 867 q 140 867 139 867 l 222 867 m 285 -344 q 301 -200 285 -321 q 324 -72 317 -79 q 378 -83 335 -72 q 429 -100 422 -93 q 403 -176 421 -124 q 365 -282 385 -229 q 335 -361 346 -335 q 308 -356 325 -361 q 285 -344 292 -351 z "},"L":{"ha":572,"x_min":124,"x_max":540,"o":"m 135 600 q 133 724 135 669 q 129 815 132 779 q 124 861 126 850 l 124 861 l 124 861 l 124 867 q 128 867 125 867 q 135 867 132 867 q 140 867 139 867 l 221 867 q 228 867 224 867 q 235 867 232 867 l 235 861 q 231 815 232 851 q 228 724 229 779 q 228 600 228 669 l 228 0 l 140 0 q 135 0 139 0 q 129 0 131 0 l 129 6 q 132 51 131 15 q 134 142 133 88 q 135 267 135 197 l 135 600 m 228 67 q 241 63 233 64 q 260 63 249 63 q 296 61 275 61 q 346 61 317 61 l 375 61 q 415 62 396 61 q 453 64 435 63 q 494 67 474 65 q 535 72 515 69 l 540 72 l 540 0 l 458 0 l 228 0 l 228 67 z "},"Ĺ":{"ha":572,"x_min":124,"x_max":540,"o":"m 135 600 q 133 724 135 669 q 129 815 132 779 q 124 861 126 850 l 124 861 l 124 861 l 124 867 q 128 867 125 867 q 135 867 132 867 q 140 867 139 867 l 221 867 q 228 867 224 867 q 235 867 232 867 l 235 861 q 231 815 232 851 q 228 724 229 779 q 228 600 228 669 l 228 0 l 140 0 q 135 0 139 0 q 129 0 131 0 l 129 6 q 132 51 131 15 q 134 142 133 88 q 135 267 135 197 l 135 600 m 228 67 q 241 63 233 64 q 260 63 249 63 q 296 61 275 61 q 346 61 317 61 l 375 61 q 415 62 396 61 q 453 64 435 63 q 494 67 474 65 q 535 72 515 69 l 540 72 l 540 0 l 458 0 l 228 0 l 228 67 m 140 978 l 263 1172 l 396 1172 l 396 1161 l 176 967 l 140 978 z "},"Ľ":{"ha":572,"x_min":124,"x_max":596,"o":"m 135 600 q 133 724 135 669 q 129 815 132 779 q 124 861 126 850 l 124 861 l 124 861 l 124 867 q 128 867 125 867 q 135 867 132 867 q 140 867 139 867 l 221 867 q 228 867 224 867 q 235 867 232 867 l 235 861 q 231 815 232 851 q 228 724 229 779 q 228 600 228 669 l 228 0 l 140 0 q 135 0 139 0 q 129 0 131 0 l 129 6 q 132 51 131 15 q 134 142 133 88 q 135 267 135 197 l 135 600 m 228 67 q 241 63 233 64 q 260 63 249 63 q 296 61 275 61 q 346 61 317 61 l 375 61 q 415 62 396 61 q 453 64 435 63 q 494 67 474 65 q 535 72 515 69 l 540 72 l 540 0 l 458 0 l 228 0 l 228 67 m 451 633 q 467 778 451 657 q 490 906 483 899 q 545 895 501 906 q 596 878 589 885 q 569 801 588 854 q 532 696 551 749 q 501 617 513 643 q 475 622 492 617 q 451 633 458 626 z "},"Ļ":{"ha":572,"x_min":124,"x_max":540,"o":"m 135 600 q 133 724 135 669 q 129 815 132 779 q 124 861 126 850 l 124 861 l 124 861 l 124 867 q 128 867 125 867 q 135 867 132 867 q 140 867 139 867 l 221 867 q 228 867 224 867 q 235 867 232 867 l 235 861 q 231 815 232 851 q 228 724 229 779 q 228 600 228 669 l 228 0 l 140 0 q 135 0 139 0 q 129 0 131 0 l 129 6 q 132 51 131 15 q 134 142 133 88 q 135 267 135 197 l 135 600 m 228 67 q 241 63 233 64 q 260 63 249 63 q 296 61 275 61 q 346 61 317 61 l 375 61 q 415 62 396 61 q 453 64 435 63 q 494 67 474 65 q 535 72 515 69 l 540 72 l 540 0 l 458 0 l 228 0 l 228 67 m 218 -344 q 234 -200 218 -321 q 257 -72 250 -79 q 312 -83 268 -72 q 363 -100 356 -93 q 336 -176 354 -124 q 299 -282 318 -229 q 268 -361 279 -335 q 242 -356 258 -361 q 218 -344 225 -351 z "},"Ŀ":{"ha":528,"x_min":124,"x_max":540,"o":"m 135 600 q 133 724 135 669 q 129 815 132 779 q 124 861 126 850 l 124 861 l 124 861 l 124 867 q 128 867 125 867 q 135 867 132 867 q 140 867 139 867 l 221 867 q 228 867 224 867 q 235 867 232 867 l 235 861 q 231 815 232 851 q 228 724 229 779 q 228 600 228 669 l 228 0 l 140 0 q 135 0 139 0 q 129 0 131 0 l 129 6 q 132 51 131 15 q 134 142 133 88 q 135 267 135 197 l 135 600 m 228 67 q 241 63 233 64 q 260 63 249 63 q 296 61 275 61 q 346 61 317 61 l 375 61 q 415 62 396 61 q 453 64 435 63 q 494 67 474 65 q 535 72 515 69 l 540 72 l 540 0 l 458 0 l 228 0 l 228 67 m 344 456 q 383 501 344 463 q 428 539 422 539 q 453 519 432 539 q 492 480 474 500 q 511 456 511 460 q 473 411 511 450 q 428 372 435 372 q 403 392 424 372 q 363 431 382 411 q 344 456 344 451 z "},"Ł":{"ha":572,"x_min":36,"x_max":540,"o":"m 135 600 q 133 724 135 669 q 129 815 132 779 q 124 861 126 850 l 124 861 l 124 861 l 124 867 q 128 867 125 867 q 135 867 132 867 q 140 867 139 867 l 221 867 q 228 867 224 867 q 235 867 232 867 l 235 861 q 231 815 232 851 q 228 724 229 779 q 228 600 228 669 l 228 0 l 140 0 q 135 0 139 0 q 129 0 131 0 l 129 6 q 132 51 131 15 q 134 142 133 88 q 135 267 135 197 l 135 600 m 228 67 q 241 63 233 64 q 260 63 249 63 q 296 61 275 61 q 346 61 317 61 l 375 61 q 415 62 396 61 q 453 64 435 63 q 494 67 474 65 q 535 72 515 69 l 540 72 l 540 0 l 458 0 l 228 0 l 228 67 m 42 244 l 36 250 l 36 322 l 364 622 l 369 617 l 369 544 l 42 244 z "},"M":{"ha":1018,"x_min":94,"x_max":919,"o":"m 274 867 q 369 589 315 736 q 503 228 422 442 q 513 203 508 215 q 522 178 517 190 l 494 178 l 739 867 l 804 867 l 500 11 l 474 11 q 441 103 457 57 q 410 193 425 149 q 290 525 351 358 q 179 811 229 692 l 211 783 l 181 282 q 175 149 176 207 q 175 54 174 90 q 181 6 176 18 l 181 6 l 181 6 l 181 0 q 174 0 179 0 q 165 0 169 0 q 160 0 161 0 l 107 0 q 101 0 106 0 q 94 0 96 0 l 94 7 q 101 61 97 18 q 108 170 104 104 q 118 319 113 236 l 135 557 q 142 704 140 640 q 142 808 143 768 q 138 860 142 847 l 138 860 l 138 860 l 138 867 q 144 867 139 867 q 153 867 149 867 q 160 867 158 867 l 244 867 l 274 867 m 851 867 q 858 867 854 867 q 865 867 863 867 l 865 861 q 863 815 863 851 q 865 724 863 779 q 872 600 868 669 l 892 267 q 901 142 896 197 q 910 52 906 88 q 919 6 915 17 l 919 6 l 919 6 l 919 0 q 913 0 918 0 q 904 0 908 0 q 899 0 900 0 l 819 0 q 813 0 817 0 q 806 0 808 0 l 806 6 q 808 51 808 15 q 804 142 807 88 q 797 267 801 197 l 756 867 l 851 867 z "},"N":{"ha":831,"x_min":110,"x_max":708,"o":"m 204 867 q 352 640 278 751 q 504 417 426 529 q 579 310 542 364 q 656 203 617 257 l 640 183 l 638 600 q 635 726 638 671 q 630 815 633 781 q 622 861 626 849 l 622 861 l 622 861 l 622 867 q 628 867 624 867 q 638 867 633 867 q 643 867 642 867 l 697 867 q 703 867 699 867 q 708 867 707 867 l 708 861 q 706 815 707 851 q 703 724 704 779 q 703 600 703 669 l 703 -8 l 681 -8 q 574 146 626 68 q 468 301 521 224 q 311 533 392 415 q 157 750 231 650 l 190 783 l 193 267 q 196 142 193 197 q 201 52 199 88 q 208 6 204 17 l 208 6 l 208 6 l 208 0 q 202 0 207 0 q 193 0 197 0 q 188 0 189 0 l 133 0 q 128 0 132 0 q 122 0 124 0 l 122 6 q 125 51 124 15 q 127 142 126 88 q 128 267 128 197 l 128 574 q 126 713 128 653 q 119 811 124 774 q 110 861 115 849 l 110 861 l 110 861 l 110 867 q 117 867 111 867 q 129 867 124 867 q 136 867 135 867 l 172 867 l 204 867 z "},"Ń":{"ha":831,"x_min":110,"x_max":708,"o":"m 204 867 q 352 640 278 751 q 504 417 426 529 q 579 310 542 364 q 656 203 617 257 l 640 183 l 638 600 q 635 726 638 671 q 630 815 633 781 q 622 861 626 849 l 622 861 l 622 861 l 622 867 q 628 867 624 867 q 638 867 633 867 q 643 867 642 867 l 697 867 q 703 867 699 867 q 708 867 707 867 l 708 861 q 706 815 707 851 q 703 724 704 779 q 703 600 703 669 l 703 -8 l 681 -8 q 574 146 626 68 q 468 301 521 224 q 311 533 392 415 q 157 750 231 650 l 190 783 l 193 267 q 196 142 193 197 q 201 52 199 88 q 208 6 204 17 l 208 6 l 208 6 l 208 0 q 202 0 207 0 q 193 0 197 0 q 188 0 189 0 l 133 0 q 128 0 132 0 q 122 0 124 0 l 122 6 q 125 51 124 15 q 127 142 126 88 q 128 267 128 197 l 128 574 q 126 713 128 653 q 119 811 124 774 q 110 861 115 849 l 110 861 l 110 861 l 110 867 q 117 867 111 867 q 129 867 124 867 q 136 867 135 867 l 172 867 l 204 867 m 394 978 l 517 1172 l 650 1172 l 650 1161 l 431 967 l 394 978 z "},"Ň":{"ha":831,"x_min":110,"x_max":708,"o":"m 204 867 q 352 640 278 751 q 504 417 426 529 q 579 310 542 364 q 656 203 617 257 l 640 183 l 638 600 q 635 726 638 671 q 630 815 633 781 q 622 861 626 849 l 622 861 l 622 861 l 622 867 q 628 867 624 867 q 638 867 633 867 q 643 867 642 867 l 697 867 q 703 867 699 867 q 708 867 707 867 l 708 861 q 706 815 707 851 q 703 724 704 779 q 703 600 703 669 l 703 -8 l 681 -8 q 574 146 626 68 q 468 301 521 224 q 311 533 392 415 q 157 750 231 650 l 190 783 l 193 267 q 196 142 193 197 q 201 52 199 88 q 208 6 204 17 l 208 6 l 208 6 l 208 0 q 202 0 207 0 q 193 0 197 0 q 188 0 189 0 l 133 0 q 128 0 132 0 q 122 0 124 0 l 122 6 q 125 51 124 15 q 127 142 126 88 q 128 267 128 197 l 128 574 q 126 713 128 653 q 119 811 124 774 q 110 861 115 849 l 110 861 l 110 861 l 110 867 q 117 867 111 867 q 129 867 124 867 q 136 867 135 867 l 172 867 l 204 867 m 550 1172 l 588 1167 l 447 967 l 422 967 l 288 1167 l 318 1172 l 435 1067 l 550 1172 z "},"Ņ":{"ha":831,"x_min":110,"x_max":708,"o":"m 204 867 q 352 640 278 751 q 504 417 426 529 q 579 310 542 364 q 656 203 617 257 l 640 183 l 638 600 q 635 726 638 671 q 630 815 633 781 q 622 861 626 849 l 622 861 l 622 861 l 622 867 q 628 867 624 867 q 638 867 633 867 q 643 867 642 867 l 697 867 q 703 867 699 867 q 708 867 707 867 l 708 861 q 706 815 707 851 q 703 724 704 779 q 703 600 703 669 l 703 -8 l 681 -8 q 574 146 626 68 q 468 301 521 224 q 311 533 392 415 q 157 750 231 650 l 190 783 l 193 267 q 196 142 193 197 q 201 52 199 88 q 208 6 204 17 l 208 6 l 208 6 l 208 0 q 202 0 207 0 q 193 0 197 0 q 188 0 189 0 l 133 0 q 128 0 132 0 q 122 0 124 0 l 122 6 q 125 51 124 15 q 127 142 126 88 q 128 267 128 197 l 128 574 q 126 713 128 653 q 119 811 124 774 q 110 861 115 849 l 110 861 l 110 861 l 110 867 q 117 867 111 867 q 129 867 124 867 q 136 867 135 867 l 172 867 l 204 867 m 364 -344 q 380 -200 364 -321 q 403 -72 396 -79 q 458 -83 414 -72 q 508 -100 501 -93 q 482 -176 500 -124 q 444 -282 464 -229 q 414 -361 425 -335 q 388 -356 404 -361 q 364 -344 371 -351 z "},"Ŋ":{"ha":831,"x_min":110,"x_max":708,"o":"m 204 867 q 390 591 299 724 q 576 326 481 458 q 674 194 617 271 l 650 183 l 650 600 q 648 726 650 669 q 643 816 646 782 q 636 861 640 850 l 636 861 l 636 861 l 636 867 q 642 867 638 867 q 651 867 647 867 q 657 867 656 867 l 697 867 q 703 867 699 867 q 708 867 707 867 l 708 861 q 706 815 707 851 q 703 724 704 779 q 703 600 703 669 l 703 -17 l 699 -17 q 501 267 632 78 q 326 517 417 389 q 157 750 236 644 l 181 783 l 181 267 q 183 141 181 197 q 188 51 185 85 q 194 6 190 17 l 194 6 l 194 6 l 194 0 q 192 0 193 0 q 189 0 190 0 q 182 0 186 0 q 174 0 178 0 l 133 0 q 128 0 132 0 q 122 0 124 0 l 122 6 q 125 51 124 15 q 127 142 126 88 q 128 267 128 197 l 128 574 q 126 713 128 653 q 119 811 124 774 q 110 861 115 849 l 110 861 l 110 861 l 110 867 q 117 867 111 867 q 129 867 124 867 q 136 867 135 867 l 172 867 l 204 867 m 556 -244 q 626 -205 603 -244 q 650 -100 650 -165 l 650 94 l 703 94 l 703 -89 q 666 -240 703 -186 q 549 -294 629 -294 q 465 -288 504 -294 q 401 -272 426 -282 l 400 -211 q 472 -235 432 -225 q 556 -244 511 -244 m 549 -294 q 394 -272 474 -294 l 396 -183 l 407 -183 q 438 -210 421 -199 q 474 -231 454 -222 q 512 -241 492 -237 q 554 -244 532 -244 l 549 -294 z "},"Ñ":{"ha":831,"x_min":110,"x_max":708,"o":"m 204 867 q 352 640 278 751 q 504 417 426 529 q 579 310 542 364 q 656 203 617 257 l 640 183 l 638 600 q 635 726 638 671 q 630 815 633 781 q 622 861 626 849 l 622 861 l 622 861 l 622 867 q 628 867 624 867 q 638 867 633 867 q 643 867 642 867 l 697 867 q 703 867 699 867 q 708 867 707 867 l 708 861 q 706 815 707 851 q 703 724 704 779 q 703 600 703 669 l 703 -8 l 681 -8 q 574 146 626 68 q 468 301 521 224 q 311 533 392 415 q 157 750 231 650 l 190 783 l 193 267 q 196 142 193 197 q 201 52 199 88 q 208 6 204 17 l 208 6 l 208 6 l 208 0 q 202 0 207 0 q 193 0 197 0 q 188 0 189 0 l 133 0 q 128 0 132 0 q 122 0 124 0 l 122 6 q 125 51 124 15 q 127 142 126 88 q 128 267 128 197 l 128 574 q 126 713 128 653 q 119 811 124 774 q 110 861 115 849 l 110 861 l 110 861 l 110 867 q 117 867 111 867 q 129 867 124 867 q 136 867 135 867 l 172 867 l 204 867 m 350 1156 q 431 1136 403 1156 q 482 1083 458 1117 q 508 1053 499 1061 q 533 1044 518 1044 q 577 1072 563 1044 q 600 1150 592 1099 l 631 1144 q 608 1018 632 1064 q 521 972 585 972 q 438 992 467 972 q 388 1046 410 1011 q 363 1074 374 1065 q 338 1083 353 1083 q 294 1058 308 1083 q 269 978 279 1032 l 239 983 q 263 1110 239 1065 q 350 1156 286 1156 z "},"O":{"ha":1004,"x_min":71,"x_max":933,"o":"m 493 -17 q 274 40 371 -17 q 124 198 178 96 q 71 433 71 300 q 126 665 71 563 q 281 826 182 768 q 506 883 381 883 q 722 827 624 883 q 876 669 819 771 q 933 433 933 567 q 874 203 933 306 q 715 42 815 100 q 493 -17 614 -17 m 518 39 q 676 87 606 39 q 788 217 747 135 q 828 400 828 300 q 778 610 828 511 q 649 768 729 708 q 486 828 569 828 q 322 781 392 828 q 214 653 251 735 q 176 472 176 572 q 223 258 176 358 q 348 99 269 158 q 518 39 426 39 z "},"Ó":{"ha":1004,"x_min":71,"x_max":933,"o":"m 493 -17 q 274 40 371 -17 q 124 198 178 96 q 71 433 71 300 q 126 665 71 563 q 281 826 182 768 q 506 883 381 883 q 722 827 624 883 q 876 669 819 771 q 933 433 933 567 q 874 203 933 306 q 715 42 815 100 q 493 -17 614 -17 m 518 39 q 676 87 606 39 q 788 217 747 135 q 828 400 828 300 q 778 610 828 511 q 649 768 729 708 q 486 828 569 828 q 322 781 392 828 q 214 653 251 735 q 176 472 176 572 q 223 258 176 358 q 348 99 269 158 q 518 39 426 39 m 464 978 l 586 1172 l 719 1172 l 719 1161 l 500 967 l 464 978 z "},"Ŏ":{"ha":1004,"x_min":71,"x_max":933,"o":"m 493 -17 q 274 40 371 -17 q 124 198 178 96 q 71 433 71 300 q 126 665 71 563 q 281 826 182 768 q 506 883 381 883 q 722 827 624 883 q 876 669 819 771 q 933 433 933 567 q 874 203 933 306 q 715 42 815 100 q 493 -17 614 -17 m 518 39 q 676 87 606 39 q 788 217 747 135 q 828 400 828 300 q 778 610 828 511 q 649 768 729 708 q 486 828 569 828 q 322 781 392 828 q 214 653 251 735 q 176 472 176 572 q 223 258 176 358 q 348 99 269 158 q 518 39 426 39 m 657 1167 q 615 1021 653 1075 q 504 967 576 967 q 395 1021 433 967 q 351 1167 357 1075 l 382 1172 q 426 1087 396 1118 q 504 1056 456 1056 q 582 1086 553 1056 q 626 1172 611 1117 l 657 1167 z "},"Ô":{"ha":1004,"x_min":71,"x_max":933,"o":"m 493 -17 q 274 40 371 -17 q 124 198 178 96 q 71 433 71 300 q 126 665 71 563 q 281 826 182 768 q 506 883 381 883 q 722 827 624 883 q 876 669 819 771 q 933 433 933 567 q 874 203 933 306 q 715 42 815 100 q 493 -17 614 -17 m 518 39 q 676 87 606 39 q 788 217 747 135 q 828 400 828 300 q 778 610 828 511 q 649 768 729 708 q 486 828 569 828 q 322 781 392 828 q 214 653 251 735 q 176 472 176 572 q 223 258 176 358 q 348 99 269 158 q 518 39 426 39 m 619 967 l 503 1072 l 388 967 l 357 972 l 492 1172 l 515 1172 l 656 972 l 619 967 z "},"Ö":{"ha":1004,"x_min":71,"x_max":933,"o":"m 493 -17 q 274 40 371 -17 q 124 198 178 96 q 71 433 71 300 q 126 665 71 563 q 281 826 182 768 q 506 883 381 883 q 722 827 624 883 q 876 669 819 771 q 933 433 933 567 q 874 203 933 306 q 715 42 815 100 q 493 -17 614 -17 m 518 39 q 676 87 606 39 q 788 217 747 135 q 828 400 828 300 q 778 610 828 511 q 649 768 729 708 q 486 828 569 828 q 322 781 392 828 q 214 653 251 735 q 176 472 176 572 q 223 258 176 358 q 348 99 269 158 q 518 39 426 39 m 313 1039 q 353 1085 313 1047 q 397 1122 394 1122 q 445 1085 407 1122 q 483 1039 483 1047 q 444 999 483 1036 q 397 961 406 961 q 353 999 394 961 q 313 1039 313 1038 m 532 1039 q 570 1085 532 1047 q 611 1122 608 1122 q 662 1085 621 1122 q 703 1039 703 1047 q 661 999 703 1036 q 611 961 619 961 q 570 999 608 961 q 532 1039 532 1038 z "},"Ò":{"ha":1004,"x_min":71,"x_max":933,"o":"m 493 -17 q 274 40 371 -17 q 124 198 178 96 q 71 433 71 300 q 126 665 71 563 q 281 826 182 768 q 506 883 381 883 q 722 827 624 883 q 876 669 819 771 q 933 433 933 567 q 874 203 933 306 q 715 42 815 100 q 493 -17 614 -17 m 518 39 q 676 87 606 39 q 788 217 747 135 q 828 400 828 300 q 778 610 828 511 q 649 768 729 708 q 486 828 569 828 q 322 781 392 828 q 214 653 251 735 q 176 472 176 572 q 223 258 176 358 q 348 99 269 158 q 518 39 426 39 m 549 978 l 513 967 l 292 1161 l 292 1172 l 426 1172 l 549 978 z "},"Ő":{"ha":1004,"x_min":71,"x_max":933,"o":"m 493 -17 q 274 40 371 -17 q 124 198 178 96 q 71 433 71 300 q 126 665 71 563 q 281 826 182 768 q 506 883 381 883 q 722 827 624 883 q 876 669 819 771 q 933 433 933 567 q 874 203 933 306 q 715 42 815 100 q 493 -17 614 -17 m 518 39 q 676 87 606 39 q 788 217 747 135 q 828 400 828 300 q 778 610 828 511 q 649 768 729 708 q 486 828 569 828 q 322 781 392 828 q 214 653 251 735 q 176 472 176 572 q 223 258 176 358 q 348 99 269 158 q 518 39 426 39 m 357 978 l 443 1172 l 571 1172 l 571 1161 l 382 967 l 357 978 m 578 978 l 693 1172 l 822 1172 l 822 1161 l 601 967 l 578 978 z "},"Ō":{"ha":1004,"x_min":71,"x_max":933,"o":"m 493 -17 q 274 40 371 -17 q 124 198 178 96 q 71 433 71 300 q 126 665 71 563 q 281 826 182 768 q 506 883 381 883 q 722 827 624 883 q 876 669 819 771 q 933 433 933 567 q 874 203 933 306 q 715 42 815 100 q 493 -17 614 -17 m 518 39 q 676 87 606 39 q 788 217 747 135 q 828 400 828 300 q 778 610 828 511 q 649 768 729 708 q 486 828 569 828 q 322 781 392 828 q 214 653 251 735 q 176 472 176 572 q 223 258 176 358 q 348 99 269 158 q 518 39 426 39 m 335 1072 l 678 1072 l 678 1011 l 335 1011 l 335 1072 z "},"Ø":{"ha":1004,"x_min":71,"x_max":933,"o":"m 138 0 l 71 0 l 863 867 l 929 867 l 138 0 m 494 -17 q 276 40 372 -17 q 125 198 179 96 q 71 433 71 300 q 126 665 71 563 q 281 826 182 768 q 506 883 381 883 q 723 827 625 883 q 877 669 821 771 q 933 433 933 567 q 875 203 933 306 q 716 42 817 100 q 494 -17 615 -17 m 518 28 q 676 77 606 28 q 788 212 747 126 q 828 400 828 297 q 778 615 828 514 q 650 778 729 717 q 488 839 571 839 q 322 791 392 839 q 214 660 251 743 q 176 472 176 576 q 223 253 176 356 q 348 90 269 151 q 518 28 426 28 z "},"Ǿ":{"ha":1004,"x_min":71,"x_max":933,"o":"m 138 0 l 71 0 l 863 867 l 929 867 l 138 0 m 494 -17 q 276 40 372 -17 q 125 198 179 96 q 71 433 71 300 q 126 665 71 563 q 281 826 182 768 q 506 883 381 883 q 723 827 625 883 q 877 669 821 771 q 933 433 933 567 q 875 203 933 306 q 716 42 817 100 q 494 -17 615 -17 m 518 28 q 676 77 606 28 q 788 212 747 126 q 828 400 828 297 q 778 615 828 514 q 650 778 729 717 q 488 839 571 839 q 322 791 392 839 q 214 660 251 743 q 176 472 176 576 q 223 253 176 356 q 348 90 269 151 q 518 28 426 28 m 464 978 l 586 1172 l 719 1172 l 719 1161 l 500 967 l 464 978 z "},"Õ":{"ha":1004,"x_min":71,"x_max":933,"o":"m 493 -17 q 274 40 371 -17 q 124 198 178 96 q 71 433 71 300 q 126 665 71 563 q 281 826 182 768 q 506 883 381 883 q 722 827 624 883 q 876 669 819 771 q 933 433 933 567 q 874 203 933 306 q 715 42 815 100 q 493 -17 614 -17 m 518 39 q 676 87 606 39 q 788 217 747 135 q 828 400 828 300 q 778 610 828 511 q 649 768 729 708 q 486 828 569 828 q 322 781 392 828 q 214 653 251 735 q 176 472 176 572 q 223 258 176 358 q 348 99 269 158 q 518 39 426 39 m 419 1156 q 500 1136 472 1156 q 551 1083 528 1117 q 578 1053 568 1061 q 603 1044 588 1044 q 647 1072 632 1044 q 669 1150 661 1099 l 700 1144 q 678 1018 701 1064 q 590 972 654 972 q 508 992 536 972 q 457 1046 479 1011 q 433 1074 443 1065 q 407 1083 422 1083 q 363 1058 378 1083 q 339 978 349 1032 l 308 983 q 332 1110 308 1065 q 419 1156 356 1156 z "},"Œ":{"ha":1086,"x_min":71,"x_max":1015,"o":"m 610 867 l 703 867 l 703 0 l 610 0 l 610 867 m 614 794 q 553 819 588 811 q 486 828 519 828 q 320 781 390 828 q 213 653 250 735 q 176 472 176 572 q 223 260 176 361 q 348 99 269 160 q 517 39 426 39 q 614 56 568 39 l 610 0 q 493 -6 564 -6 q 275 49 371 -6 q 125 203 179 103 q 71 433 71 303 q 126 660 71 560 q 281 816 182 760 q 504 872 381 872 q 610 867 540 872 l 614 794 m 679 867 l 997 867 l 997 794 l 986 794 q 954 799 974 797 q 907 803 935 801 q 863 805 888 804 q 810 806 839 806 l 786 806 q 754 806 769 806 q 724 806 739 806 q 699 803 710 804 q 679 800 688 803 l 679 867 m 703 67 q 722 63 710 64 q 759 61 735 61 q 821 61 783 61 l 850 61 q 895 62 874 61 q 936 65 917 63 q 974 68 956 67 q 1010 72 992 69 l 1015 72 l 1015 0 l 933 0 l 703 0 l 703 67 m 679 494 q 742 490 704 490 q 815 489 781 489 q 854 489 836 489 q 890 490 872 489 q 928 492 907 490 q 974 494 949 493 l 981 494 q 981 478 981 488 q 981 458 981 468 q 981 439 981 449 q 981 422 981 429 l 968 422 q 933 424 950 424 q 901 426 917 425 q 853 428 875 428 q 810 428 831 428 q 742 427 779 428 q 679 422 706 426 l 679 494 z "},"P":{"ha":619,"x_min":124,"x_max":585,"o":"m 228 267 q 230 141 228 197 q 235 51 232 85 q 242 6 238 17 l 242 6 l 242 6 l 242 0 q 235 0 240 0 q 226 0 231 0 q 221 0 222 0 l 140 0 q 135 0 139 0 q 129 0 131 0 l 129 6 q 132 51 131 15 q 134 142 133 88 q 135 267 135 197 l 135 600 q 133 724 135 669 q 129 815 132 779 q 124 861 126 850 l 124 861 l 124 861 l 124 867 q 128 867 125 867 q 135 867 132 867 q 140 867 139 867 l 293 867 q 516 803 447 867 q 585 622 585 740 q 547 488 585 549 q 440 391 510 426 q 275 356 369 356 q 226 359 250 356 q 193 367 201 363 l 193 417 q 226 409 201 413 q 281 406 251 406 q 431 459 382 406 q 479 589 479 513 q 458 702 479 650 q 391 785 436 754 q 281 817 346 817 l 269 817 q 228 813 247 817 q 199 800 208 808 l 228 844 l 228 267 z "},"Þ":{"ha":622,"x_min":124,"x_max":588,"o":"m 296 692 q 515 632 443 692 q 588 447 588 572 q 551 315 588 374 q 444 221 514 256 q 278 186 374 186 q 229 190 253 186 q 196 197 206 193 l 196 236 q 231 228 206 232 q 285 225 256 225 q 433 281 383 225 q 482 414 482 338 q 460 530 482 475 q 394 619 439 585 q 285 653 350 653 l 272 653 q 218 645 242 653 q 196 624 194 638 l 181 692 l 296 692 m 222 867 q 228 867 224 867 q 233 867 232 867 l 233 861 q 231 815 232 851 q 228 724 229 779 q 228 600 228 669 l 228 267 q 229 142 228 197 q 233 52 231 88 q 239 6 236 17 l 239 6 l 239 6 l 239 0 q 234 0 238 0 q 227 0 231 0 q 222 0 224 0 l 140 0 q 135 0 139 0 q 129 0 131 0 l 129 6 q 132 51 131 15 q 134 142 133 88 q 135 267 135 197 l 135 600 q 133 724 135 669 q 129 815 132 779 q 124 861 126 850 l 124 861 l 124 861 l 124 867 q 128 867 125 867 q 135 867 132 867 q 140 867 139 867 l 222 867 z "},"Q":{"ha":1004,"x_min":71,"x_max":954,"o":"m 126 -228 q 219 -165 178 -196 q 307 -89 261 -133 q 352 -37 336 -61 q 378 17 368 -12 l 431 6 q 390 -68 418 -29 q 338 -128 361 -107 l 342 -100 q 392 -104 357 -99 q 474 -121 426 -110 q 478 -122 476 -121 q 482 -122 479 -122 l 713 -172 q 734 -177 724 -175 q 754 -181 744 -179 q 776 -183 765 -182 q 799 -183 788 -183 q 835 -181 817 -183 q 871 -174 854 -179 q 903 -161 889 -168 q 929 -144 918 -154 l 954 -156 q 915 -218 944 -192 q 842 -258 885 -244 q 751 -272 800 -272 q 694 -267 725 -272 q 633 -256 664 -262 l 435 -211 q 432 -210 433 -211 q 429 -210 431 -210 q 303 -189 338 -189 q 302 -190 303 -190 q 301 -192 301 -190 q 265 -229 279 -217 q 226 -250 250 -242 q 169 -247 192 -250 q 126 -239 147 -244 l 126 -228 m 493 -17 q 274 40 371 -17 q 124 198 178 96 q 71 433 71 300 q 126 665 71 563 q 281 826 182 768 q 506 883 381 883 q 722 827 624 883 q 876 669 819 771 q 933 433 933 567 q 874 203 933 306 q 715 42 815 100 q 493 -17 614 -17 m 518 28 q 676 77 606 28 q 788 212 747 126 q 828 400 828 297 q 778 615 828 514 q 649 778 729 717 q 486 839 569 839 q 322 791 392 839 q 214 659 251 743 q 176 472 176 575 q 223 253 176 356 q 348 90 269 151 q 518 28 426 28 z "},"R":{"ha":701,"x_min":124,"x_max":665,"o":"m 568 0 l 257 422 l 257 433 l 360 433 l 521 221 q 626 76 589 131 q 665 6 663 22 l 665 6 l 665 6 l 665 0 q 661 0 664 0 q 656 0 658 0 q 651 0 653 0 l 568 0 m 228 267 q 230 141 228 197 q 235 51 232 85 q 242 6 238 17 l 242 6 l 242 6 l 242 0 q 235 0 240 0 q 226 0 231 0 q 221 0 222 0 l 140 0 q 135 0 139 0 q 129 0 131 0 l 129 6 q 132 51 131 15 q 134 142 133 88 q 135 267 135 197 l 135 600 q 133 724 135 669 q 129 815 132 779 q 124 861 126 850 l 124 861 l 124 861 l 124 867 q 128 867 125 867 q 135 867 132 867 q 140 867 139 867 l 299 867 q 458 841 396 867 q 549 767 519 815 q 578 650 578 719 q 536 534 578 588 q 428 445 494 481 q 288 400 361 410 l 257 422 l 257 433 q 413 499 351 443 q 474 633 474 554 q 419 767 474 717 q 275 817 365 817 l 269 817 q 227 813 247 817 q 199 800 207 808 l 228 844 l 228 267 z "},"Ŕ":{"ha":701,"x_min":124,"x_max":665,"o":"m 568 0 l 257 422 l 257 433 l 360 433 l 521 221 q 626 76 589 131 q 665 6 663 22 l 665 6 l 665 6 l 665 0 q 661 0 664 0 q 656 0 658 0 q 651 0 653 0 l 568 0 m 228 267 q 230 141 228 197 q 235 51 232 85 q 242 6 238 17 l 242 6 l 242 6 l 242 0 q 235 0 240 0 q 226 0 231 0 q 221 0 222 0 l 140 0 q 135 0 139 0 q 129 0 131 0 l 129 6 q 132 51 131 15 q 134 142 133 88 q 135 267 135 197 l 135 600 q 133 724 135 669 q 129 815 132 779 q 124 861 126 850 l 124 861 l 124 861 l 124 867 q 128 867 125 867 q 135 867 132 867 q 140 867 139 867 l 299 867 q 458 841 396 867 q 549 767 519 815 q 578 650 578 719 q 536 534 578 588 q 428 445 494 481 q 288 400 361 410 l 257 422 l 257 433 q 413 499 351 443 q 474 633 474 554 q 419 767 474 717 q 275 817 365 817 l 269 817 q 227 813 247 817 q 199 800 207 808 l 228 844 l 228 267 m 314 978 l 436 1172 l 569 1172 l 569 1161 l 350 967 l 314 978 z "},"Ř":{"ha":701,"x_min":124,"x_max":665,"o":"m 568 0 l 257 422 l 257 433 l 360 433 l 521 221 q 626 76 589 131 q 665 6 663 22 l 665 6 l 665 6 l 665 0 q 661 0 664 0 q 656 0 658 0 q 651 0 653 0 l 568 0 m 228 267 q 230 141 228 197 q 235 51 232 85 q 242 6 238 17 l 242 6 l 242 6 l 242 0 q 235 0 240 0 q 226 0 231 0 q 221 0 222 0 l 140 0 q 135 0 139 0 q 129 0 131 0 l 129 6 q 132 51 131 15 q 134 142 133 88 q 135 267 135 197 l 135 600 q 133 724 135 669 q 129 815 132 779 q 124 861 126 850 l 124 861 l 124 861 l 124 867 q 128 867 125 867 q 135 867 132 867 q 140 867 139 867 l 299 867 q 458 841 396 867 q 549 767 519 815 q 578 650 578 719 q 536 534 578 588 q 428 445 494 481 q 288 400 361 410 l 257 422 l 257 433 q 413 499 351 443 q 474 633 474 554 q 419 767 474 717 q 275 817 365 817 l 269 817 q 227 813 247 817 q 199 800 207 808 l 228 844 l 228 267 m 469 1172 l 507 1167 l 367 967 l 342 967 l 207 1167 l 238 1172 l 354 1067 l 469 1172 z "},"Ŗ":{"ha":701,"x_min":124,"x_max":665,"o":"m 568 0 l 257 422 l 257 433 l 360 433 l 521 221 q 626 76 589 131 q 665 6 663 22 l 665 6 l 665 6 l 665 0 q 661 0 664 0 q 656 0 658 0 q 651 0 653 0 l 568 0 m 228 267 q 230 141 228 197 q 235 51 232 85 q 242 6 238 17 l 242 6 l 242 6 l 242 0 q 235 0 240 0 q 226 0 231 0 q 221 0 222 0 l 140 0 q 135 0 139 0 q 129 0 131 0 l 129 6 q 132 51 131 15 q 134 142 133 88 q 135 267 135 197 l 135 600 q 133 724 135 669 q 129 815 132 779 q 124 861 126 850 l 124 861 l 124 861 l 124 867 q 128 867 125 867 q 135 867 132 867 q 140 867 139 867 l 299 867 q 458 841 396 867 q 549 767 519 815 q 578 650 578 719 q 536 534 578 588 q 428 445 494 481 q 288 400 361 410 l 257 422 l 257 433 q 413 499 351 443 q 474 633 474 554 q 419 767 474 717 q 275 817 365 817 l 269 817 q 227 813 247 817 q 199 800 207 808 l 228 844 l 228 267 m 282 -344 q 298 -200 282 -321 q 321 -72 314 -79 q 376 -83 332 -72 q 426 -100 419 -93 q 400 -176 418 -124 q 363 -282 382 -229 q 332 -361 343 -335 q 306 -356 322 -361 q 282 -344 289 -351 z "},"S":{"ha":578,"x_min":63,"x_max":526,"o":"m 247 -17 q 151 -7 197 -17 q 76 15 106 3 q 75 16 75 15 q 74 17 75 17 l 75 128 l 86 128 q 155 60 113 82 q 251 39 197 39 q 384 86 336 39 q 432 211 432 133 q 408 312 432 272 q 349 374 385 351 q 256 421 314 396 q 153 475 192 450 q 89 547 115 500 q 63 667 63 593 q 128 827 63 771 q 331 883 193 883 q 421 874 381 883 q 492 850 461 864 l 492 756 l 481 756 q 419 807 451 792 q 379 822 401 817 q 332 828 357 828 q 203 788 250 828 q 157 683 157 749 q 179 592 157 628 q 233 538 201 557 q 322 494 265 518 q 428 440 388 467 q 498 363 469 414 q 526 228 526 311 q 456 49 526 115 q 247 -17 385 -17 z "},"Ś":{"ha":578,"x_min":63,"x_max":526,"o":"m 247 -17 q 151 -7 197 -17 q 76 15 106 3 q 75 16 75 15 q 74 17 75 17 l 75 128 l 86 128 q 155 60 113 82 q 251 39 197 39 q 384 86 336 39 q 432 211 432 133 q 408 312 432 272 q 349 374 385 351 q 256 421 314 396 q 153 475 192 450 q 89 547 115 500 q 63 667 63 593 q 128 827 63 771 q 331 883 193 883 q 421 874 381 883 q 492 850 461 864 l 492 756 l 481 756 q 419 807 451 792 q 379 822 401 817 q 332 828 357 828 q 203 788 250 828 q 157 683 157 749 q 179 592 157 628 q 233 538 201 557 q 322 494 265 518 q 428 440 388 467 q 498 363 469 414 q 526 228 526 311 q 456 49 526 115 q 247 -17 385 -17 m 246 978 l 368 1172 l 501 1172 l 501 1161 l 282 967 l 246 978 z "},"Š":{"ha":578,"x_min":63,"x_max":526,"o":"m 247 -17 q 151 -7 197 -17 q 76 15 106 3 q 75 16 75 15 q 74 17 75 17 l 75 128 l 86 128 q 155 60 113 82 q 251 39 197 39 q 384 86 336 39 q 432 211 432 133 q 408 312 432 272 q 349 374 385 351 q 256 421 314 396 q 153 475 192 450 q 89 547 115 500 q 63 667 63 593 q 128 827 63 771 q 331 883 193 883 q 421 874 381 883 q 492 850 461 864 l 492 756 l 481 756 q 419 807 451 792 q 379 822 401 817 q 332 828 357 828 q 203 788 250 828 q 157 683 157 749 q 179 592 157 628 q 233 538 201 557 q 322 494 265 518 q 428 440 388 467 q 498 363 469 414 q 526 228 526 311 q 456 49 526 115 q 247 -17 385 -17 m 401 1172 l 439 1167 l 299 967 l 274 967 l 139 1167 l 169 1172 l 286 1067 l 401 1172 z "},"Ş":{"ha":578,"x_min":63,"x_max":526,"o":"m 247 -17 q 151 -7 197 -17 q 76 15 106 3 q 75 16 75 15 q 74 17 75 17 l 75 128 l 86 128 q 155 60 113 82 q 251 39 197 39 q 384 86 336 39 q 432 211 432 133 q 408 312 432 272 q 349 374 385 351 q 256 421 314 396 q 153 475 192 450 q 89 547 115 500 q 63 667 63 593 q 128 827 63 771 q 331 883 193 883 q 421 874 381 883 q 492 850 461 864 l 492 756 l 481 756 q 419 807 451 792 q 379 822 401 817 q 332 828 357 828 q 203 788 250 828 q 157 683 157 749 q 179 592 157 628 q 233 538 201 557 q 322 494 265 518 q 428 440 388 467 q 498 363 469 414 q 526 228 526 311 q 456 49 526 115 q 247 -17 385 -17 m 256 -294 q 178 -283 211 -294 l 189 -239 q 250 -256 222 -256 q 290 -242 274 -256 q 306 -206 306 -229 q 288 -170 306 -185 q 233 -150 269 -156 l 267 11 l 311 11 l 289 -117 l 283 -76 q 365 -119 335 -89 q 394 -193 394 -150 q 352 -267 394 -240 q 256 -294 310 -294 z "},"Ŝ":{"ha":578,"x_min":63,"x_max":526,"o":"m 247 -17 q 151 -7 197 -17 q 76 15 106 3 q 75 16 75 15 q 74 17 75 17 l 75 128 l 86 128 q 155 60 113 82 q 251 39 197 39 q 384 86 336 39 q 432 211 432 133 q 408 312 432 272 q 349 374 385 351 q 256 421 314 396 q 153 475 192 450 q 89 547 115 500 q 63 667 63 593 q 128 827 63 771 q 331 883 193 883 q 421 874 381 883 q 492 850 461 864 l 492 756 l 481 756 q 419 807 451 792 q 379 822 401 817 q 332 828 357 828 q 203 788 250 828 q 157 683 157 749 q 179 592 157 628 q 233 538 201 557 q 322 494 265 518 q 428 440 388 467 q 498 363 469 414 q 526 228 526 311 q 456 49 526 115 q 247 -17 385 -17 m 401 967 l 285 1072 l 169 967 l 139 972 l 274 1172 l 297 1172 l 438 972 l 401 967 z "},"Ș":{"ha":578,"x_min":63,"x_max":526,"o":"m 247 -17 q 151 -7 197 -17 q 76 15 106 3 q 75 16 75 15 q 74 17 75 17 l 75 128 l 86 128 q 155 60 113 82 q 251 39 197 39 q 384 86 336 39 q 432 211 432 133 q 408 312 432 272 q 349 374 385 351 q 256 421 314 396 q 153 475 192 450 q 89 547 115 500 q 63 667 63 593 q 128 827 63 771 q 331 883 193 883 q 421 874 381 883 q 492 850 461 864 l 492 756 l 481 756 q 419 807 451 792 q 379 822 401 817 q 332 828 357 828 q 203 788 250 828 q 157 683 157 749 q 179 592 157 628 q 233 538 201 557 q 322 494 265 518 q 428 440 388 467 q 498 363 469 414 q 526 228 526 311 q 456 49 526 115 q 247 -17 385 -17 m 217 -344 q 233 -200 217 -321 q 256 -72 249 -79 q 310 -83 267 -72 q 361 -100 354 -93 q 335 -176 353 -124 q 297 -282 317 -229 q 267 -361 278 -335 q 240 -356 257 -361 q 217 -344 224 -351 z "},"ẞ":{"ha":846,"x_min":100,"x_max":794,"o":"m 525 -17 q 358 6 439 -17 l 336 11 l 329 100 l 342 100 q 369 79 354 89 q 399 63 383 69 q 454 44 424 50 q 528 39 485 39 q 653 89 604 39 q 701 222 701 139 q 661 360 701 304 q 535 450 621 415 l 408 500 l 408 511 l 646 828 l 699 761 q 597 810 651 792 q 474 828 543 828 q 267 760 335 828 q 199 561 199 693 l 199 267 q 200 142 199 197 q 203 55 201 88 q 208 6 206 22 l 208 6 l 208 6 l 208 0 q 203 0 207 0 q 197 0 200 0 q 193 0 194 0 l 111 0 q 106 0 110 0 q 100 0 101 0 l 100 6 q 103 51 101 15 q 105 142 104 88 q 106 267 106 197 l 106 561 q 186 802 106 721 q 461 883 267 883 q 621 865 550 883 q 747 817 692 847 l 747 806 l 499 472 l 465 539 l 579 493 q 691 434 644 467 q 766 351 738 401 q 794 228 794 300 q 762 100 794 156 q 668 14 729 44 q 525 -17 607 -17 z "},"T":{"ha":693,"x_min":32,"x_max":661,"o":"m 392 267 q 393 142 392 197 q 397 52 394 88 q 404 6 400 17 l 404 6 l 404 6 l 404 0 q 398 0 403 0 q 389 0 393 0 q 383 0 385 0 l 304 0 q 297 0 301 0 q 290 0 293 0 l 290 6 q 294 51 293 15 q 297 142 296 88 q 297 267 297 197 l 297 867 l 396 867 l 392 267 m 343 867 l 661 867 l 661 794 l 650 794 q 592 803 632 799 q 539 805 568 804 q 472 806 510 806 l 449 806 q 388 805 418 806 q 344 800 357 804 q 344 800 344 800 q 343 800 343 800 l 343 867 m 350 800 q 347 801 349 800 q 343 801 344 801 q 300 805 328 804 q 244 806 272 806 l 221 806 q 118 803 171 806 q 74 799 92 801 q 43 794 56 797 l 32 794 l 32 867 l 350 867 l 350 800 z "},"Ŧ":{"ha":693,"x_min":32,"x_max":661,"o":"m 392 267 q 393 142 392 197 q 397 52 394 88 q 404 6 400 17 l 404 6 l 404 6 l 404 0 q 398 0 403 0 q 389 0 393 0 q 383 0 385 0 l 304 0 q 297 0 301 0 q 290 0 293 0 l 290 6 q 294 51 293 15 q 297 142 296 88 q 297 267 297 197 l 297 867 l 396 867 l 392 267 m 343 867 l 661 867 l 661 794 l 650 794 q 592 803 632 799 q 539 805 568 804 q 472 806 510 806 l 449 806 q 388 805 418 806 q 344 800 357 804 q 344 800 344 800 q 343 800 343 800 l 343 867 m 350 800 q 347 801 349 800 q 343 801 344 801 q 300 805 328 804 q 244 806 272 806 l 221 806 q 118 803 171 806 q 74 799 92 801 q 43 794 56 797 l 32 794 l 32 867 l 350 867 l 350 800 m 136 406 l 136 417 l 136 461 l 558 461 l 558 450 l 558 406 l 136 406 z "},"Ť":{"ha":693,"x_min":32,"x_max":661,"o":"m 392 267 q 393 142 392 197 q 397 52 394 88 q 404 6 400 17 l 404 6 l 404 6 l 404 0 q 398 0 403 0 q 389 0 393 0 q 383 0 385 0 l 304 0 q 297 0 301 0 q 290 0 293 0 l 290 6 q 294 51 293 15 q 297 142 296 88 q 297 267 297 197 l 297 867 l 396 867 l 392 267 m 343 867 l 661 867 l 661 794 l 650 794 q 592 803 632 799 q 539 805 568 804 q 472 806 510 806 l 449 806 q 388 805 418 806 q 344 800 357 804 q 344 800 344 800 q 343 800 343 800 l 343 867 m 350 800 q 347 801 349 800 q 343 801 344 801 q 300 805 328 804 q 244 806 272 806 l 221 806 q 118 803 171 806 q 74 799 92 801 q 43 794 56 797 l 32 794 l 32 867 l 350 867 l 350 800 m 461 1172 l 499 1167 l 358 967 l 333 967 l 199 1167 l 229 1172 l 346 1067 l 461 1172 z "},"Ţ":{"ha":693,"x_min":32,"x_max":661,"o":"m 392 267 q 393 142 392 197 q 397 52 394 88 q 404 6 400 17 l 404 6 l 404 6 l 404 0 q 398 0 403 0 q 389 0 393 0 q 383 0 385 0 l 304 0 q 297 0 301 0 q 290 0 293 0 l 290 6 q 294 51 293 15 q 297 142 296 88 q 297 267 297 197 l 297 867 l 396 867 l 392 267 m 343 867 l 661 867 l 661 794 l 650 794 q 592 803 632 799 q 539 805 568 804 q 472 806 510 806 l 449 806 q 388 805 418 806 q 344 800 357 804 q 344 800 344 800 q 343 800 343 800 l 343 867 m 350 800 q 347 801 349 800 q 343 801 344 801 q 300 805 328 804 q 244 806 272 806 l 221 806 q 118 803 171 806 q 74 799 92 801 q 43 794 56 797 l 32 794 l 32 867 l 350 867 l 350 800 m 314 -294 q 236 -283 269 -294 l 247 -239 q 308 -256 281 -256 q 348 -242 332 -256 q 364 -206 364 -229 q 346 -170 364 -185 q 292 -150 328 -156 l 325 11 l 369 11 l 347 -117 l 342 -76 q 423 -119 393 -89 q 453 -193 453 -150 q 410 -267 453 -240 q 314 -294 368 -294 z "},"Ț":{"ha":693,"x_min":32,"x_max":661,"o":"m 392 267 q 393 142 392 197 q 397 52 394 88 q 404 6 400 17 l 404 6 l 404 6 l 404 0 q 398 0 403 0 q 389 0 393 0 q 383 0 385 0 l 304 0 q 297 0 301 0 q 290 0 293 0 l 290 6 q 294 51 293 15 q 297 142 296 88 q 297 267 297 197 l 297 867 l 396 867 l 392 267 m 343 867 l 661 867 l 661 794 l 650 794 q 592 803 632 799 q 539 805 568 804 q 472 806 510 806 l 449 806 q 388 805 418 806 q 344 800 357 804 q 344 800 344 800 q 343 800 343 800 l 343 867 m 350 800 q 347 801 349 800 q 343 801 344 801 q 300 805 328 804 q 244 806 272 806 l 221 806 q 118 803 171 806 q 74 799 92 801 q 43 794 56 797 l 32 794 l 32 867 l 350 867 l 350 800 m 275 -344 q 291 -200 275 -321 q 314 -72 307 -79 q 369 -83 325 -72 q 419 -100 413 -93 q 393 -176 411 -124 q 356 -282 375 -229 q 325 -361 336 -335 q 299 -356 315 -361 q 275 -344 282 -351 z "},"U":{"ha":868,"x_min":100,"x_max":768,"o":"m 696 600 q 694 724 696 669 q 690 815 693 779 q 685 861 688 850 l 685 861 l 685 861 l 685 867 q 690 867 686 867 q 697 867 693 867 q 701 867 700 867 l 757 867 q 763 867 758 867 q 768 867 767 867 l 768 861 q 765 815 767 851 q 763 724 764 779 q 763 600 763 669 l 763 300 q 722 133 763 204 q 610 22 682 61 q 446 -17 539 -17 q 198 63 285 -17 q 111 306 111 143 l 111 600 q 110 724 111 669 q 106 815 108 779 q 100 861 103 850 l 100 861 l 100 861 l 100 867 q 105 867 101 867 q 112 867 108 867 q 117 867 115 867 l 199 867 q 204 867 200 867 q 210 867 208 867 l 210 861 q 207 815 208 851 q 205 724 206 779 q 204 600 204 669 l 204 306 q 236 166 204 225 q 326 76 268 107 q 457 44 383 44 q 582 78 528 44 q 666 168 636 111 q 696 294 696 225 l 696 600 z "},"Ú":{"ha":868,"x_min":100,"x_max":768,"o":"m 696 600 q 694 724 696 669 q 690 815 693 779 q 685 861 688 850 l 685 861 l 685 861 l 685 867 q 690 867 686 867 q 697 867 693 867 q 701 867 700 867 l 757 867 q 763 867 758 867 q 768 867 767 867 l 768 861 q 765 815 767 851 q 763 724 764 779 q 763 600 763 669 l 763 300 q 722 133 763 204 q 610 22 682 61 q 446 -17 539 -17 q 198 63 285 -17 q 111 306 111 143 l 111 600 q 110 724 111 669 q 106 815 108 779 q 100 861 103 850 l 100 861 l 100 861 l 100 867 q 105 867 101 867 q 112 867 108 867 q 117 867 115 867 l 199 867 q 204 867 200 867 q 210 867 208 867 l 210 861 q 207 815 208 851 q 205 724 206 779 q 204 600 204 669 l 204 306 q 236 166 204 225 q 326 76 268 107 q 457 44 383 44 q 582 78 528 44 q 666 168 636 111 q 696 294 696 225 l 696 600 m 415 978 l 538 1172 l 671 1172 l 671 1161 l 451 967 l 415 978 z "},"Ŭ":{"ha":868,"x_min":100,"x_max":768,"o":"m 696 600 q 694 724 696 669 q 690 815 693 779 q 685 861 688 850 l 685 861 l 685 861 l 685 867 q 690 867 686 867 q 697 867 693 867 q 701 867 700 867 l 757 867 q 763 867 758 867 q 768 867 767 867 l 768 861 q 765 815 767 851 q 763 724 764 779 q 763 600 763 669 l 763 300 q 722 133 763 204 q 610 22 682 61 q 446 -17 539 -17 q 198 63 285 -17 q 111 306 111 143 l 111 600 q 110 724 111 669 q 106 815 108 779 q 100 861 103 850 l 100 861 l 100 861 l 100 867 q 105 867 101 867 q 112 867 108 867 q 117 867 115 867 l 199 867 q 204 867 200 867 q 210 867 208 867 l 210 861 q 207 815 208 851 q 205 724 206 779 q 204 600 204 669 l 204 306 q 236 166 204 225 q 326 76 268 107 q 457 44 383 44 q 582 78 528 44 q 666 168 636 111 q 696 294 696 225 l 696 600 m 608 1167 q 566 1021 604 1075 q 456 967 528 967 q 347 1021 385 967 q 303 1167 308 1075 l 333 1172 q 377 1087 347 1118 q 456 1056 407 1056 q 533 1086 504 1056 q 578 1172 563 1117 l 608 1167 z "},"Ǔ":{"ha":868,"x_min":100,"x_max":768,"o":"m 696 600 q 694 724 696 669 q 690 815 693 779 q 685 861 688 850 l 685 861 l 685 861 l 685 867 q 690 867 686 867 q 697 867 693 867 q 701 867 700 867 l 757 867 q 763 867 758 867 q 768 867 767 867 l 768 861 q 765 815 767 851 q 763 724 764 779 q 763 600 763 669 l 763 300 q 722 133 763 204 q 610 22 682 61 q 446 -17 539 -17 q 198 63 285 -17 q 111 306 111 143 l 111 600 q 110 724 111 669 q 106 815 108 779 q 100 861 103 850 l 100 861 l 100 861 l 100 867 q 105 867 101 867 q 112 867 108 867 q 117 867 115 867 l 199 867 q 204 867 200 867 q 210 867 208 867 l 210 861 q 207 815 208 851 q 205 724 206 779 q 204 600 204 669 l 204 306 q 236 166 204 225 q 326 76 268 107 q 457 44 383 44 q 582 78 528 44 q 666 168 636 111 q 696 294 696 225 l 696 600 m 571 1172 l 608 1167 l 468 967 l 443 967 l 308 1167 l 339 1172 l 456 1067 l 571 1172 z "},"Û":{"ha":868,"x_min":100,"x_max":768,"o":"m 696 600 q 694 724 696 669 q 690 815 693 779 q 685 861 688 850 l 685 861 l 685 861 l 685 867 q 690 867 686 867 q 697 867 693 867 q 701 867 700 867 l 757 867 q 763 867 758 867 q 768 867 767 867 l 768 861 q 765 815 767 851 q 763 724 764 779 q 763 600 763 669 l 763 300 q 722 133 763 204 q 610 22 682 61 q 446 -17 539 -17 q 198 63 285 -17 q 111 306 111 143 l 111 600 q 110 724 111 669 q 106 815 108 779 q 100 861 103 850 l 100 861 l 100 861 l 100 867 q 105 867 101 867 q 112 867 108 867 q 117 867 115 867 l 199 867 q 204 867 200 867 q 210 867 208 867 l 210 861 q 207 815 208 851 q 205 724 206 779 q 204 600 204 669 l 204 306 q 236 166 204 225 q 326 76 268 107 q 457 44 383 44 q 582 78 528 44 q 666 168 636 111 q 696 294 696 225 l 696 600 m 571 967 l 454 1072 l 339 967 l 308 972 l 443 1172 l 467 1172 l 607 972 l 571 967 z "},"Ü":{"ha":868,"x_min":100,"x_max":768,"o":"m 696 600 q 694 724 696 669 q 690 815 693 779 q 685 861 688 850 l 685 861 l 685 861 l 685 867 q 690 867 686 867 q 697 867 693 867 q 701 867 700 867 l 757 867 q 763 867 758 867 q 768 867 767 867 l 768 861 q 765 815 767 851 q 763 724 764 779 q 763 600 763 669 l 763 300 q 722 133 763 204 q 610 22 682 61 q 446 -17 539 -17 q 198 63 285 -17 q 111 306 111 143 l 111 600 q 110 724 111 669 q 106 815 108 779 q 100 861 103 850 l 100 861 l 100 861 l 100 867 q 105 867 101 867 q 112 867 108 867 q 117 867 115 867 l 199 867 q 204 867 200 867 q 210 867 208 867 l 210 861 q 207 815 208 851 q 205 724 206 779 q 204 600 204 669 l 204 306 q 236 166 204 225 q 326 76 268 107 q 457 44 383 44 q 582 78 528 44 q 666 168 636 111 q 696 294 696 225 l 696 600 m 264 1039 q 305 1085 264 1047 q 349 1122 346 1122 q 397 1085 358 1122 q 435 1039 435 1047 q 396 999 435 1036 q 349 961 357 961 q 305 999 346 961 q 264 1039 264 1038 m 483 1039 q 522 1085 483 1047 q 563 1122 560 1122 q 613 1085 572 1122 q 654 1039 654 1047 q 613 999 654 1036 q 563 961 571 961 q 522 999 560 961 q 483 1039 483 1038 z "},"Ù":{"ha":868,"x_min":100,"x_max":768,"o":"m 696 600 q 694 724 696 669 q 690 815 693 779 q 685 861 688 850 l 685 861 l 685 861 l 685 867 q 690 867 686 867 q 697 867 693 867 q 701 867 700 867 l 757 867 q 763 867 758 867 q 768 867 767 867 l 768 861 q 765 815 767 851 q 763 724 764 779 q 763 600 763 669 l 763 300 q 722 133 763 204 q 610 22 682 61 q 446 -17 539 -17 q 198 63 285 -17 q 111 306 111 143 l 111 600 q 110 724 111 669 q 106 815 108 779 q 100 861 103 850 l 100 861 l 100 861 l 100 867 q 105 867 101 867 q 112 867 108 867 q 117 867 115 867 l 199 867 q 204 867 200 867 q 210 867 208 867 l 210 861 q 207 815 208 851 q 205 724 206 779 q 204 600 204 669 l 204 306 q 236 166 204 225 q 326 76 268 107 q 457 44 383 44 q 582 78 528 44 q 666 168 636 111 q 696 294 696 225 l 696 600 m 500 978 l 464 967 l 243 1161 l 243 1172 l 378 1172 l 500 978 z "},"Ű":{"ha":868,"x_min":100,"x_max":774,"o":"m 696 600 q 694 724 696 669 q 690 815 693 779 q 685 861 688 850 l 685 861 l 685 861 l 685 867 q 690 867 686 867 q 697 867 693 867 q 701 867 700 867 l 757 867 q 763 867 758 867 q 768 867 767 867 l 768 861 q 765 815 767 851 q 763 724 764 779 q 763 600 763 669 l 763 300 q 722 133 763 204 q 610 22 682 61 q 446 -17 539 -17 q 198 63 285 -17 q 111 306 111 143 l 111 600 q 110 724 111 669 q 106 815 108 779 q 100 861 103 850 l 100 861 l 100 861 l 100 867 q 105 867 101 867 q 112 867 108 867 q 117 867 115 867 l 199 867 q 204 867 200 867 q 210 867 208 867 l 210 861 q 207 815 208 851 q 205 724 206 779 q 204 600 204 669 l 204 306 q 236 166 204 225 q 326 76 268 107 q 457 44 383 44 q 582 78 528 44 q 666 168 636 111 q 696 294 696 225 l 696 600 m 308 978 l 394 1172 l 522 1172 l 522 1161 l 333 967 l 308 978 m 529 978 l 644 1172 l 774 1172 l 774 1161 l 553 967 l 529 978 z "},"Ū":{"ha":868,"x_min":100,"x_max":768,"o":"m 696 600 q 694 724 696 669 q 690 815 693 779 q 685 861 688 850 l 685 861 l 685 861 l 685 867 q 690 867 686 867 q 697 867 693 867 q 701 867 700 867 l 757 867 q 763 867 758 867 q 768 867 767 867 l 768 861 q 765 815 767 851 q 763 724 764 779 q 763 600 763 669 l 763 300 q 722 133 763 204 q 610 22 682 61 q 446 -17 539 -17 q 198 63 285 -17 q 111 306 111 143 l 111 600 q 110 724 111 669 q 106 815 108 779 q 100 861 103 850 l 100 861 l 100 861 l 100 867 q 105 867 101 867 q 112 867 108 867 q 117 867 115 867 l 199 867 q 204 867 200 867 q 210 867 208 867 l 210 861 q 207 815 208 851 q 205 724 206 779 q 204 600 204 669 l 204 306 q 236 166 204 225 q 326 76 268 107 q 457 44 383 44 q 582 78 528 44 q 666 168 636 111 q 696 294 696 225 l 696 600 m 286 1072 l 629 1072 l 629 1011 l 286 1011 l 286 1072 z "},"Ų":{"ha":868,"x_min":100,"x_max":768,"o":"m 696 600 q 694 724 696 669 q 690 815 693 779 q 685 861 688 850 l 685 861 l 685 861 l 685 867 q 690 867 686 867 q 697 867 693 867 q 701 867 700 867 l 757 867 q 763 867 758 867 q 768 867 767 867 l 768 861 q 765 815 767 851 q 763 724 764 779 q 763 600 763 669 l 763 300 q 722 133 763 204 q 610 22 682 61 q 446 -17 539 -17 q 198 63 285 -17 q 111 306 111 143 l 111 600 q 110 724 111 669 q 106 815 108 779 q 100 861 103 850 l 100 861 l 100 861 l 100 867 q 105 867 101 867 q 112 867 108 867 q 117 867 115 867 l 199 867 q 204 867 200 867 q 210 867 208 867 l 210 861 q 207 815 208 851 q 205 724 206 779 q 204 600 204 669 l 204 306 q 236 166 204 225 q 326 76 268 107 q 457 44 383 44 q 582 78 528 44 q 666 168 636 111 q 696 294 696 225 l 696 600 m 544 0 q 541 -5 543 -3 q 536 -8 539 -7 q 469 -87 494 -49 q 444 -172 444 -126 q 465 -218 444 -203 q 517 -233 486 -233 q 544 -230 531 -233 q 567 -222 557 -226 l 567 -239 q 517 -275 546 -261 q 456 -289 488 -289 q 379 -261 408 -289 q 350 -183 350 -233 q 403 -72 350 -128 q 522 6 457 -17 l 544 0 z "},"Ů":{"ha":868,"x_min":100,"x_max":768,"o":"m 696 600 q 694 724 696 669 q 690 815 693 779 q 685 861 688 850 l 685 861 l 685 861 l 685 867 q 690 867 686 867 q 697 867 693 867 q 701 867 700 867 l 757 867 q 763 867 758 867 q 768 867 767 867 l 768 861 q 765 815 767 851 q 763 724 764 779 q 763 600 763 669 l 763 300 q 722 133 763 204 q 610 22 682 61 q 446 -17 539 -17 q 198 63 285 -17 q 111 306 111 143 l 111 600 q 110 724 111 669 q 106 815 108 779 q 100 861 103 850 l 100 861 l 100 861 l 100 867 q 105 867 101 867 q 112 867 108 867 q 117 867 115 867 l 199 867 q 204 867 200 867 q 210 867 208 867 l 210 861 q 207 815 208 851 q 205 724 206 779 q 204 600 204 669 l 204 306 q 236 166 204 225 q 326 76 268 107 q 457 44 383 44 q 582 78 528 44 q 666 168 636 111 q 696 294 696 225 l 696 600 m 457 917 q 365 952 400 917 q 329 1044 329 988 q 365 1137 329 1101 q 457 1172 400 1172 q 549 1137 514 1172 q 585 1044 585 1101 q 549 952 585 988 q 457 917 514 917 m 457 967 q 510 988 490 967 q 529 1044 529 1008 q 510 1101 529 1081 q 457 1122 490 1122 q 404 1101 424 1122 q 385 1044 385 1081 q 404 988 385 1008 q 457 967 424 967 z "},"Ũ":{"ha":868,"x_min":100,"x_max":768,"o":"m 696 600 q 694 724 696 669 q 690 815 693 779 q 685 861 688 850 l 685 861 l 685 861 l 685 867 q 690 867 686 867 q 697 867 693 867 q 701 867 700 867 l 757 867 q 763 867 758 867 q 768 867 767 867 l 768 861 q 765 815 767 851 q 763 724 764 779 q 763 600 763 669 l 763 300 q 722 133 763 204 q 610 22 682 61 q 446 -17 539 -17 q 198 63 285 -17 q 111 306 111 143 l 111 600 q 110 724 111 669 q 106 815 108 779 q 100 861 103 850 l 100 861 l 100 861 l 100 867 q 105 867 101 867 q 112 867 108 867 q 117 867 115 867 l 199 867 q 204 867 200 867 q 210 867 208 867 l 210 861 q 207 815 208 851 q 205 724 206 779 q 204 600 204 669 l 204 306 q 236 166 204 225 q 326 76 268 107 q 457 44 383 44 q 582 78 528 44 q 666 168 636 111 q 696 294 696 225 l 696 600 m 371 1156 q 451 1136 424 1156 q 503 1083 479 1117 q 529 1053 519 1061 q 554 1044 539 1044 q 598 1072 583 1044 q 621 1150 613 1099 l 651 1144 q 629 1018 653 1064 q 542 972 606 972 q 459 992 488 972 q 408 1046 431 1011 q 384 1074 394 1065 q 358 1083 374 1083 q 315 1058 329 1083 q 290 978 300 1032 l 260 983 q 283 1110 260 1065 q 371 1156 307 1156 z "},"V":{"ha":732,"x_min":31,"x_max":701,"o":"m 693 867 q 697 867 694 867 q 701 867 700 867 l 701 861 q 676 778 699 844 q 614 617 653 711 l 363 -11 l 357 -11 q 345 28 351 10 q 333 65 339 47 q 302 152 318 111 q 271 233 286 193 l 119 615 q 58 778 83 710 q 31 861 32 846 l 31 861 l 31 861 l 31 867 q 34 867 32 867 q 38 867 36 867 q 42 867 40 867 l 143 867 q 149 867 144 867 q 156 867 154 867 l 156 861 q 160 819 153 851 q 186 735 168 788 q 231 615 204 683 l 336 344 q 360 282 349 311 q 383 229 372 253 q 401 194 392 210 q 418 167 410 179 l 343 83 l 536 614 q 576 733 561 682 q 598 817 592 785 q 601 861 604 850 l 601 861 l 601 861 l 601 867 q 607 867 603 867 q 615 867 611 867 q 619 867 618 867 l 693 867 z "},"W":{"ha":1167,"x_min":36,"x_max":1125,"o":"m 671 867 l 376 -11 l 371 -11 q 331 99 350 47 q 293 197 311 151 q 284 222 289 210 q 275 244 279 233 l 126 615 q 64 777 89 710 q 36 861 39 844 l 36 861 l 36 861 l 36 867 q 40 867 38 867 q 44 867 42 867 q 47 867 46 867 l 149 867 q 155 867 150 867 q 161 867 160 867 l 161 861 q 166 819 158 851 q 191 735 174 788 q 235 615 208 683 l 336 356 q 340 344 338 350 q 346 332 343 338 q 389 228 369 271 q 425 167 408 186 l 353 83 l 596 867 l 671 867 m 1117 867 q 1121 867 1118 867 q 1125 867 1124 867 l 1125 861 q 1103 776 1122 843 q 1050 611 1083 708 l 842 -11 l 836 -11 q 791 122 815 51 q 747 239 767 192 l 593 617 q 530 777 556 710 q 501 861 504 844 l 501 861 l 501 861 l 501 867 q 505 867 503 867 q 509 867 507 867 q 513 867 511 867 l 613 867 q 619 867 614 867 q 625 867 624 867 l 625 861 q 631 819 622 851 q 657 735 639 788 q 701 615 675 683 l 807 350 q 814 332 810 340 q 821 315 818 324 q 862 215 849 244 q 890 167 875 186 l 821 83 l 974 608 q 1006 731 994 678 q 1023 817 1018 785 q 1025 861 1028 850 l 1025 861 l 1025 861 l 1025 867 q 1030 867 1026 867 q 1037 867 1033 867 q 1042 867 1040 867 l 1117 867 z "},"Ẃ":{"ha":1167,"x_min":36,"x_max":1125,"o":"m 671 867 l 376 -11 l 371 -11 q 331 99 350 47 q 293 197 311 151 q 284 222 289 210 q 275 244 279 233 l 126 615 q 64 777 89 710 q 36 861 39 844 l 36 861 l 36 861 l 36 867 q 40 867 38 867 q 44 867 42 867 q 47 867 46 867 l 149 867 q 155 867 150 867 q 161 867 160 867 l 161 861 q 166 819 158 851 q 191 735 174 788 q 235 615 208 683 l 336 356 q 340 344 338 350 q 346 332 343 338 q 389 228 369 271 q 425 167 408 186 l 353 83 l 596 867 l 671 867 m 1117 867 q 1121 867 1118 867 q 1125 867 1124 867 l 1125 861 q 1103 776 1122 843 q 1050 611 1083 708 l 842 -11 l 836 -11 q 791 122 815 51 q 747 239 767 192 l 593 617 q 530 777 556 710 q 501 861 504 844 l 501 861 l 501 861 l 501 867 q 505 867 503 867 q 509 867 507 867 q 513 867 511 867 l 613 867 q 619 867 614 867 q 625 867 624 867 l 625 861 q 631 819 622 851 q 657 735 639 788 q 701 615 675 683 l 807 350 q 814 332 810 340 q 821 315 818 324 q 862 215 849 244 q 890 167 875 186 l 821 83 l 974 608 q 1006 731 994 678 q 1023 817 1018 785 q 1025 861 1028 850 l 1025 861 l 1025 861 l 1025 867 q 1030 867 1026 867 q 1037 867 1033 867 q 1042 867 1040 867 l 1117 867 m 543 978 l 665 1172 l 799 1172 l 799 1161 l 579 967 l 543 978 z "},"Ŵ":{"ha":1167,"x_min":36,"x_max":1125,"o":"m 671 867 l 376 -11 l 371 -11 q 331 99 350 47 q 293 197 311 151 q 284 222 289 210 q 275 244 279 233 l 126 615 q 64 777 89 710 q 36 861 39 844 l 36 861 l 36 861 l 36 867 q 40 867 38 867 q 44 867 42 867 q 47 867 46 867 l 149 867 q 155 867 150 867 q 161 867 160 867 l 161 861 q 166 819 158 851 q 191 735 174 788 q 235 615 208 683 l 336 356 q 340 344 338 350 q 346 332 343 338 q 389 228 369 271 q 425 167 408 186 l 353 83 l 596 867 l 671 867 m 1117 867 q 1121 867 1118 867 q 1125 867 1124 867 l 1125 861 q 1103 776 1122 843 q 1050 611 1083 708 l 842 -11 l 836 -11 q 791 122 815 51 q 747 239 767 192 l 593 617 q 530 777 556 710 q 501 861 504 844 l 501 861 l 501 861 l 501 867 q 505 867 503 867 q 509 867 507 867 q 513 867 511 867 l 613 867 q 619 867 614 867 q 625 867 624 867 l 625 861 q 631 819 622 851 q 657 735 639 788 q 701 615 675 683 l 807 350 q 814 332 810 340 q 821 315 818 324 q 862 215 849 244 q 890 167 875 186 l 821 83 l 974 608 q 1006 731 994 678 q 1023 817 1018 785 q 1025 861 1028 850 l 1025 861 l 1025 861 l 1025 867 q 1030 867 1026 867 q 1037 867 1033 867 q 1042 867 1040 867 l 1117 867 m 699 967 l 582 1072 l 467 967 l 436 972 l 571 1172 l 594 1172 l 735 972 l 699 967 z "},"Ẅ":{"ha":1167,"x_min":36,"x_max":1125,"o":"m 671 867 l 376 -11 l 371 -11 q 331 99 350 47 q 293 197 311 151 q 284 222 289 210 q 275 244 279 233 l 126 615 q 64 777 89 710 q 36 861 39 844 l 36 861 l 36 861 l 36 867 q 40 867 38 867 q 44 867 42 867 q 47 867 46 867 l 149 867 q 155 867 150 867 q 161 867 160 867 l 161 861 q 166 819 158 851 q 191 735 174 788 q 235 615 208 683 l 336 356 q 340 344 338 350 q 346 332 343 338 q 389 228 369 271 q 425 167 408 186 l 353 83 l 596 867 l 671 867 m 1117 867 q 1121 867 1118 867 q 1125 867 1124 867 l 1125 861 q 1103 776 1122 843 q 1050 611 1083 708 l 842 -11 l 836 -11 q 791 122 815 51 q 747 239 767 192 l 593 617 q 530 777 556 710 q 501 861 504 844 l 501 861 l 501 861 l 501 867 q 505 867 503 867 q 509 867 507 867 q 513 867 511 867 l 613 867 q 619 867 614 867 q 625 867 624 867 l 625 861 q 631 819 622 851 q 657 735 639 788 q 701 615 675 683 l 807 350 q 814 332 810 340 q 821 315 818 324 q 862 215 849 244 q 890 167 875 186 l 821 83 l 974 608 q 1006 731 994 678 q 1023 817 1018 785 q 1025 861 1028 850 l 1025 861 l 1025 861 l 1025 867 q 1030 867 1026 867 q 1037 867 1033 867 q 1042 867 1040 867 l 1117 867 m 392 1039 q 433 1085 392 1047 q 476 1122 474 1122 q 524 1085 486 1122 q 563 1039 563 1047 q 524 999 563 1036 q 476 961 485 961 q 433 999 474 961 q 392 1039 392 1038 m 611 1039 q 649 1085 611 1047 q 690 1122 688 1122 q 741 1085 700 1122 q 782 1039 782 1047 q 740 999 782 1036 q 690 961 699 961 q 649 999 688 961 q 611 1039 611 1038 z "},"Ẁ":{"ha":1167,"x_min":36,"x_max":1125,"o":"m 671 867 l 376 -11 l 371 -11 q 331 99 350 47 q 293 197 311 151 q 284 222 289 210 q 275 244 279 233 l 126 615 q 64 777 89 710 q 36 861 39 844 l 36 861 l 36 861 l 36 867 q 40 867 38 867 q 44 867 42 867 q 47 867 46 867 l 149 867 q 155 867 150 867 q 161 867 160 867 l 161 861 q 166 819 158 851 q 191 735 174 788 q 235 615 208 683 l 336 356 q 340 344 338 350 q 346 332 343 338 q 389 228 369 271 q 425 167 408 186 l 353 83 l 596 867 l 671 867 m 1117 867 q 1121 867 1118 867 q 1125 867 1124 867 l 1125 861 q 1103 776 1122 843 q 1050 611 1083 708 l 842 -11 l 836 -11 q 791 122 815 51 q 747 239 767 192 l 593 617 q 530 777 556 710 q 501 861 504 844 l 501 861 l 501 861 l 501 867 q 505 867 503 867 q 509 867 507 867 q 513 867 511 867 l 613 867 q 619 867 614 867 q 625 867 624 867 l 625 861 q 631 819 622 851 q 657 735 639 788 q 701 615 675 683 l 807 350 q 814 332 810 340 q 821 315 818 324 q 862 215 849 244 q 890 167 875 186 l 821 83 l 974 608 q 1006 731 994 678 q 1023 817 1018 785 q 1025 861 1028 850 l 1025 861 l 1025 861 l 1025 867 q 1030 867 1026 867 q 1037 867 1033 867 q 1042 867 1040 867 l 1117 867 m 628 978 l 592 967 l 371 1161 l 371 1172 l 506 1172 l 628 978 z "},"X":{"ha":713,"x_min":60,"x_max":653,"o":"m 528 0 q 522 0 526 0 q 517 0 518 0 l 517 6 q 508 46 519 15 q 473 125 497 76 q 413 238 449 174 l 189 629 q 103 787 133 729 q 72 861 74 844 l 72 861 l 72 861 l 72 867 q 76 867 74 867 q 79 867 78 867 q 82 867 81 867 l 185 867 q 190 867 186 867 q 196 867 194 867 l 196 861 q 204 821 193 851 q 240 742 215 790 q 300 629 264 693 l 524 238 q 609 80 579 138 q 640 6 639 22 l 640 6 l 640 6 l 640 0 q 637 0 639 0 q 633 0 635 0 q 631 0 632 0 l 528 0 m 68 0 q 64 0 67 0 q 60 0 61 0 l 60 6 q 61 12 60 8 q 64 21 63 15 q 106 104 75 49 q 182 233 136 160 l 343 489 l 374 417 l 256 232 q 191 124 217 171 q 153 47 165 76 q 144 6 142 17 l 144 6 l 144 6 l 144 0 q 140 0 143 0 q 133 0 136 0 q 129 0 131 0 l 68 0 m 371 378 l 340 450 l 458 635 q 522 743 497 696 q 559 820 547 790 q 568 861 571 850 l 568 861 l 568 861 l 568 867 q 573 867 569 867 q 579 867 576 867 q 583 867 582 867 l 644 867 q 649 867 646 867 q 653 867 651 867 l 653 861 q 651 855 653 858 q 649 846 650 851 q 607 763 638 818 q 531 633 576 707 l 371 378 z "},"Y":{"ha":667,"x_min":32,"x_max":635,"o":"m 628 867 q 631 867 629 867 q 635 867 633 867 l 635 861 l 633 856 q 602 770 628 832 q 535 622 576 708 l 336 211 l 326 211 q 288 312 308 263 q 246 407 267 361 q 237 426 242 417 q 228 444 232 435 l 139 624 q 61 784 88 724 q 32 861 35 844 l 32 861 l 32 861 l 32 867 q 35 867 33 867 q 39 867 38 867 q 42 867 40 867 l 139 867 q 144 867 140 867 q 149 867 147 867 l 149 861 q 156 821 146 851 q 189 740 167 790 q 244 624 211 689 l 282 550 q 289 537 285 543 q 296 524 293 531 q 342 435 319 478 q 383 367 365 393 l 319 306 l 457 619 q 506 735 486 685 q 533 818 525 786 q 538 861 540 850 l 538 861 l 538 861 l 538 867 q 542 867 539 867 q 549 867 546 867 q 553 867 551 867 l 628 867 m 388 267 q 388 142 388 197 q 392 52 389 88 q 397 6 394 17 l 397 6 l 397 6 l 397 0 q 392 0 396 0 q 385 0 389 0 q 381 0 382 0 l 299 0 q 293 0 297 0 q 288 0 289 0 l 288 6 q 290 51 289 15 q 292 142 292 88 q 293 267 293 197 l 293 383 l 388 383 l 388 267 z "},"Ý":{"ha":667,"x_min":32,"x_max":635,"o":"m 628 867 q 631 867 629 867 q 635 867 633 867 l 635 861 l 633 856 q 602 770 628 832 q 535 622 576 708 l 336 211 l 326 211 q 288 312 308 263 q 246 407 267 361 q 237 426 242 417 q 228 444 232 435 l 139 624 q 61 784 88 724 q 32 861 35 844 l 32 861 l 32 861 l 32 867 q 35 867 33 867 q 39 867 38 867 q 42 867 40 867 l 139 867 q 144 867 140 867 q 149 867 147 867 l 149 861 q 156 821 146 851 q 189 740 167 790 q 244 624 211 689 l 282 550 q 289 537 285 543 q 296 524 293 531 q 342 435 319 478 q 383 367 365 393 l 319 306 l 457 619 q 506 735 486 685 q 533 818 525 786 q 538 861 540 850 l 538 861 l 538 861 l 538 867 q 542 867 539 867 q 549 867 546 867 q 553 867 551 867 l 628 867 m 388 267 q 388 142 388 197 q 392 52 389 88 q 397 6 394 17 l 397 6 l 397 6 l 397 0 q 392 0 396 0 q 385 0 389 0 q 381 0 382 0 l 299 0 q 293 0 297 0 q 288 0 289 0 l 288 6 q 290 51 289 15 q 292 142 292 88 q 293 267 293 197 l 293 383 l 388 383 l 388 267 m 313 978 l 435 1172 l 568 1172 l 568 1161 l 349 967 l 313 978 z "},"Ŷ":{"ha":667,"x_min":32,"x_max":635,"o":"m 628 867 q 631 867 629 867 q 635 867 633 867 l 635 861 l 633 856 q 602 770 628 832 q 535 622 576 708 l 336 211 l 326 211 q 288 312 308 263 q 246 407 267 361 q 237 426 242 417 q 228 444 232 435 l 139 624 q 61 784 88 724 q 32 861 35 844 l 32 861 l 32 861 l 32 867 q 35 867 33 867 q 39 867 38 867 q 42 867 40 867 l 139 867 q 144 867 140 867 q 149 867 147 867 l 149 861 q 156 821 146 851 q 189 740 167 790 q 244 624 211 689 l 282 550 q 289 537 285 543 q 296 524 293 531 q 342 435 319 478 q 383 367 365 393 l 319 306 l 457 619 q 506 735 486 685 q 533 818 525 786 q 538 861 540 850 l 538 861 l 538 861 l 538 867 q 542 867 539 867 q 549 867 546 867 q 553 867 551 867 l 628 867 m 388 267 q 388 142 388 197 q 392 52 389 88 q 397 6 394 17 l 397 6 l 397 6 l 397 0 q 392 0 396 0 q 385 0 389 0 q 381 0 382 0 l 299 0 q 293 0 297 0 q 288 0 289 0 l 288 6 q 290 51 289 15 q 292 142 292 88 q 293 267 293 197 l 293 383 l 388 383 l 388 267 m 468 967 l 351 1072 l 236 967 l 206 972 l 340 1172 l 364 1172 l 504 972 l 468 967 z "},"Ÿ":{"ha":667,"x_min":32,"x_max":635,"o":"m 628 867 q 631 867 629 867 q 635 867 633 867 l 635 861 l 633 856 q 602 770 628 832 q 535 622 576 708 l 336 211 l 326 211 q 288 312 308 263 q 246 407 267 361 q 237 426 242 417 q 228 444 232 435 l 139 624 q 61 784 88 724 q 32 861 35 844 l 32 861 l 32 861 l 32 867 q 35 867 33 867 q 39 867 38 867 q 42 867 40 867 l 139 867 q 144 867 140 867 q 149 867 147 867 l 149 861 q 156 821 146 851 q 189 740 167 790 q 244 624 211 689 l 282 550 q 289 537 285 543 q 296 524 293 531 q 342 435 319 478 q 383 367 365 393 l 319 306 l 457 619 q 506 735 486 685 q 533 818 525 786 q 538 861 540 850 l 538 861 l 538 861 l 538 867 q 542 867 539 867 q 549 867 546 867 q 553 867 551 867 l 628 867 m 388 267 q 388 142 388 197 q 392 52 389 88 q 397 6 394 17 l 397 6 l 397 6 l 397 0 q 392 0 396 0 q 385 0 389 0 q 381 0 382 0 l 299 0 q 293 0 297 0 q 288 0 289 0 l 288 6 q 290 51 289 15 q 292 142 292 88 q 293 267 293 197 l 293 383 l 388 383 l 388 267 m 161 1039 q 202 1085 161 1047 q 246 1122 243 1122 q 294 1085 256 1122 q 332 1039 332 1047 q 293 999 332 1036 q 246 961 254 961 q 202 999 243 961 q 161 1039 161 1038 m 381 1039 q 419 1085 381 1047 q 460 1122 457 1122 q 510 1085 469 1122 q 551 1039 551 1047 q 510 999 551 1036 q 460 961 468 961 q 419 999 457 961 q 381 1039 381 1038 z "},"Ỳ":{"ha":667,"x_min":32,"x_max":635,"o":"m 628 867 q 631 867 629 867 q 635 867 633 867 l 635 861 l 633 856 q 602 770 628 832 q 535 622 576 708 l 336 211 l 326 211 q 288 312 308 263 q 246 407 267 361 q 237 426 242 417 q 228 444 232 435 l 139 624 q 61 784 88 724 q 32 861 35 844 l 32 861 l 32 861 l 32 867 q 35 867 33 867 q 39 867 38 867 q 42 867 40 867 l 139 867 q 144 867 140 867 q 149 867 147 867 l 149 861 q 156 821 146 851 q 189 740 167 790 q 244 624 211 689 l 282 550 q 289 537 285 543 q 296 524 293 531 q 342 435 319 478 q 383 367 365 393 l 319 306 l 457 619 q 506 735 486 685 q 533 818 525 786 q 538 861 540 850 l 538 861 l 538 861 l 538 867 q 542 867 539 867 q 549 867 546 867 q 553 867 551 867 l 628 867 m 388 267 q 388 142 388 197 q 392 52 389 88 q 397 6 394 17 l 397 6 l 397 6 l 397 0 q 392 0 396 0 q 385 0 389 0 q 381 0 382 0 l 299 0 q 293 0 297 0 q 288 0 289 0 l 288 6 q 290 51 289 15 q 292 142 292 88 q 293 267 293 197 l 293 383 l 388 383 l 388 267 m 397 978 l 361 967 l 140 1161 l 140 1172 l 275 1172 l 397 978 z "},"Z":{"ha":556,"x_min":40,"x_max":515,"o":"m 417 867 l 515 867 l 139 0 l 40 0 l 417 867 m 435 800 q 420 802 429 801 q 400 804 411 803 q 356 806 379 806 q 308 806 333 806 l 281 806 q 207 805 240 806 q 147 803 174 804 q 101 799 121 801 q 68 794 82 797 l 54 794 l 54 867 l 435 867 l 435 800 m 138 67 q 160 63 144 64 q 204 61 175 61 q 278 61 233 61 l 314 61 q 349 61 332 61 q 382 63 367 61 q 444 67 414 64 q 504 72 475 69 l 511 72 l 511 0 l 413 0 l 138 0 l 138 67 z "},"Ź":{"ha":556,"x_min":40,"x_max":515,"o":"m 417 867 l 515 867 l 139 0 l 40 0 l 417 867 m 435 800 q 420 802 429 801 q 400 804 411 803 q 356 806 379 806 q 308 806 333 806 l 281 806 q 207 805 240 806 q 147 803 174 804 q 101 799 121 801 q 68 794 82 797 l 54 794 l 54 867 l 435 867 l 435 800 m 138 67 q 160 63 144 64 q 204 61 175 61 q 278 61 233 61 l 314 61 q 349 61 332 61 q 382 63 367 61 q 444 67 414 64 q 504 72 475 69 l 511 72 l 511 0 l 413 0 l 138 0 l 138 67 m 236 978 l 358 1172 l 492 1172 l 492 1161 l 272 967 l 236 978 z "},"Ž":{"ha":556,"x_min":40,"x_max":515,"o":"m 417 867 l 515 867 l 139 0 l 40 0 l 417 867 m 435 800 q 420 802 429 801 q 400 804 411 803 q 356 806 379 806 q 308 806 333 806 l 281 806 q 207 805 240 806 q 147 803 174 804 q 101 799 121 801 q 68 794 82 797 l 54 794 l 54 867 l 435 867 l 435 800 m 138 67 q 160 63 144 64 q 204 61 175 61 q 278 61 233 61 l 314 61 q 349 61 332 61 q 382 63 367 61 q 444 67 414 64 q 504 72 475 69 l 511 72 l 511 0 l 413 0 l 138 0 l 138 67 m 392 1172 l 429 1167 l 289 967 l 264 967 l 129 1167 l 160 1172 l 276 1067 l 392 1172 z "},"Ż":{"ha":556,"x_min":40,"x_max":515,"o":"m 417 867 l 515 867 l 139 0 l 40 0 l 417 867 m 435 800 q 420 802 429 801 q 400 804 411 803 q 356 806 379 806 q 308 806 333 806 l 281 806 q 207 805 240 806 q 147 803 174 804 q 101 799 121 801 q 68 794 82 797 l 54 794 l 54 867 l 435 867 l 435 800 m 138 67 q 160 63 144 64 q 204 61 175 61 q 278 61 233 61 l 314 61 q 349 61 332 61 q 382 63 367 61 q 444 67 414 64 q 504 72 475 69 l 511 72 l 511 0 l 413 0 l 138 0 l 138 67 m 185 1039 q 227 1084 185 1046 q 276 1122 269 1122 q 303 1103 281 1122 q 347 1064 325 1085 q 368 1039 368 1043 q 347 1014 368 1035 q 303 974 325 993 q 276 956 281 956 q 249 974 272 956 q 206 1014 226 993 q 185 1039 185 1035 z "},"a":{"ha":590,"x_min":54,"x_max":494,"o":"m 401 428 q 367 544 401 504 q 260 583 332 583 q 160 570 210 583 q 83 539 111 557 l 78 550 q 164 631 101 600 q 297 661 226 661 q 448 606 401 661 q 494 439 494 550 l 494 167 q 494 71 494 113 q 494 6 494 29 l 494 0 q 466 0 479 0 q 439 0 453 0 q 419 0 429 0 q 400 0 410 0 q 400 27 400 10 q 400 73 400 44 q 400 139 400 101 l 413 161 q 353 37 404 90 q 218 -17 301 -17 q 103 24 151 -17 q 54 144 54 64 q 99 260 54 214 q 226 328 143 306 q 425 356 308 351 l 425 311 q 214 266 281 306 q 147 156 147 226 q 179 80 147 110 q 256 50 211 50 q 324 65 290 50 q 379 116 357 81 q 401 206 401 151 l 401 428 z "},"á":{"ha":590,"x_min":54,"x_max":494,"o":"m 401 428 q 367 544 401 504 q 260 583 332 583 q 160 570 210 583 q 83 539 111 557 l 78 550 q 164 631 101 600 q 297 661 226 661 q 448 606 401 661 q 494 439 494 550 l 494 167 q 494 71 494 113 q 494 6 494 29 l 494 0 q 466 0 479 0 q 439 0 453 0 q 419 0 429 0 q 400 0 410 0 q 400 27 400 10 q 400 73 400 44 q 400 139 400 101 l 413 161 q 353 37 404 90 q 218 -17 301 -17 q 103 24 151 -17 q 54 144 54 64 q 99 260 54 214 q 226 328 143 306 q 425 356 308 351 l 425 311 q 214 266 281 306 q 147 156 147 226 q 179 80 147 110 q 256 50 211 50 q 324 65 290 50 q 379 116 357 81 q 401 206 401 151 l 401 428 m 258 794 l 369 989 l 492 989 l 492 978 l 292 783 l 258 794 z "},"ă":{"ha":590,"x_min":54,"x_max":494,"o":"m 401 428 q 367 544 401 504 q 260 583 332 583 q 160 570 210 583 q 83 539 111 557 l 78 550 q 164 631 101 600 q 297 661 226 661 q 448 606 401 661 q 494 439 494 550 l 494 167 q 494 71 494 113 q 494 6 494 29 l 494 0 q 466 0 479 0 q 439 0 453 0 q 419 0 429 0 q 400 0 410 0 q 400 27 400 10 q 400 73 400 44 q 400 139 400 101 l 413 161 q 353 37 404 90 q 218 -17 301 -17 q 103 24 151 -17 q 54 144 54 64 q 99 260 54 214 q 226 328 143 306 q 425 356 308 351 l 425 311 q 214 266 281 306 q 147 156 147 226 q 179 80 147 110 q 256 50 211 50 q 324 65 290 50 q 379 116 357 81 q 401 206 401 151 l 401 428 m 436 983 q 397 838 432 892 q 297 783 363 783 q 197 838 232 783 q 158 983 163 892 l 186 989 q 226 903 200 933 q 297 872 253 872 q 368 903 342 872 q 408 989 394 933 l 436 983 z "},"ǎ":{"ha":590,"x_min":54,"x_max":494,"o":"m 401 428 q 367 544 401 504 q 260 583 332 583 q 160 570 210 583 q 83 539 111 557 l 78 550 q 164 631 101 600 q 297 661 226 661 q 448 606 401 661 q 494 439 494 550 l 494 167 q 494 71 494 113 q 494 6 494 29 l 494 0 q 466 0 479 0 q 439 0 453 0 q 419 0 429 0 q 400 0 410 0 q 400 27 400 10 q 400 73 400 44 q 400 139 400 101 l 413 161 q 353 37 404 90 q 218 -17 301 -17 q 103 24 151 -17 q 54 144 54 64 q 99 260 54 214 q 226 328 143 306 q 425 356 308 351 l 425 311 q 214 266 281 306 q 147 156 147 226 q 179 80 147 110 q 256 50 211 50 q 324 65 290 50 q 379 116 357 81 q 401 206 401 151 l 401 428 m 397 989 l 431 983 l 303 783 l 281 783 l 158 983 l 186 989 l 292 883 l 397 989 z "},"â":{"ha":590,"x_min":54,"x_max":494,"o":"m 401 428 q 367 544 401 504 q 260 583 332 583 q 160 570 210 583 q 83 539 111 557 l 78 550 q 164 631 101 600 q 297 661 226 661 q 448 606 401 661 q 494 439 494 550 l 494 167 q 494 71 494 113 q 494 6 494 29 l 494 0 q 466 0 479 0 q 439 0 453 0 q 419 0 429 0 q 400 0 410 0 q 400 27 400 10 q 400 73 400 44 q 400 139 400 101 l 413 161 q 353 37 404 90 q 218 -17 301 -17 q 103 24 151 -17 q 54 144 54 64 q 99 260 54 214 q 226 328 143 306 q 425 356 308 351 l 425 311 q 214 266 281 306 q 147 156 147 226 q 179 80 147 110 q 256 50 211 50 q 324 65 290 50 q 379 116 357 81 q 401 206 401 151 l 401 428 m 397 783 l 292 889 l 186 783 l 158 789 l 281 989 l 303 989 l 431 789 l 397 783 z "},"ä":{"ha":590,"x_min":54,"x_max":494,"o":"m 401 428 q 367 544 401 504 q 260 583 332 583 q 160 570 210 583 q 83 539 111 557 l 78 550 q 164 631 101 600 q 297 661 226 661 q 448 606 401 661 q 494 439 494 550 l 494 167 q 494 71 494 113 q 494 6 494 29 l 494 0 q 466 0 479 0 q 439 0 453 0 q 419 0 429 0 q 400 0 410 0 q 400 27 400 10 q 400 73 400 44 q 400 139 400 101 l 413 161 q 353 37 404 90 q 218 -17 301 -17 q 103 24 151 -17 q 54 144 54 64 q 99 260 54 214 q 226 328 143 306 q 425 356 308 351 l 425 311 q 214 266 281 306 q 147 156 147 226 q 179 80 147 110 q 256 50 211 50 q 324 65 290 50 q 379 116 357 81 q 401 206 401 151 l 401 428 m 119 856 q 157 901 119 864 q 197 939 194 939 q 240 901 206 939 q 275 856 275 864 q 240 815 275 853 q 197 778 204 778 q 158 816 196 778 q 119 856 119 854 m 319 856 q 354 901 319 864 q 392 939 389 939 q 438 901 400 939 q 475 856 475 864 q 437 815 475 853 q 392 778 399 778 q 355 815 390 778 q 319 856 319 853 z "},"à":{"ha":590,"x_min":54,"x_max":494,"o":"m 401 428 q 367 544 401 504 q 260 583 332 583 q 160 570 210 583 q 83 539 111 557 l 78 550 q 164 631 101 600 q 297 661 226 661 q 448 606 401 661 q 494 439 494 550 l 494 167 q 494 71 494 113 q 494 6 494 29 l 494 0 q 466 0 479 0 q 439 0 453 0 q 419 0 429 0 q 400 0 410 0 q 400 27 400 10 q 400 73 400 44 q 400 139 400 101 l 413 161 q 353 37 404 90 q 218 -17 301 -17 q 103 24 151 -17 q 54 144 54 64 q 99 260 54 214 q 226 328 143 306 q 425 356 308 351 l 425 311 q 214 266 281 306 q 147 156 147 226 q 179 80 147 110 q 256 50 211 50 q 324 65 290 50 q 379 116 357 81 q 401 206 401 151 l 401 428 m 336 794 l 303 783 l 103 978 l 103 989 l 225 989 l 336 794 z "},"ā":{"ha":590,"x_min":54,"x_max":494,"o":"m 401 428 q 367 544 401 504 q 260 583 332 583 q 160 570 210 583 q 83 539 111 557 l 78 550 q 164 631 101 600 q 297 661 226 661 q 448 606 401 661 q 494 439 494 550 l 494 167 q 494 71 494 113 q 494 6 494 29 l 494 0 q 466 0 479 0 q 439 0 453 0 q 419 0 429 0 q 400 0 410 0 q 400 27 400 10 q 400 73 400 44 q 400 139 400 101 l 413 161 q 353 37 404 90 q 218 -17 301 -17 q 103 24 151 -17 q 54 144 54 64 q 99 260 54 214 q 226 328 143 306 q 425 356 308 351 l 425 311 q 214 266 281 306 q 147 156 147 226 q 179 80 147 110 q 256 50 211 50 q 324 65 290 50 q 379 116 357 81 q 401 206 401 151 l 401 428 m 142 889 l 453 889 l 453 828 l 142 828 l 142 889 z "},"ą":{"ha":590,"x_min":54,"x_max":517,"o":"m 401 428 q 367 544 401 504 q 260 583 332 583 q 160 570 210 583 q 83 539 111 557 l 78 550 q 164 631 101 600 q 297 661 226 661 q 448 606 401 661 q 494 439 494 550 l 494 167 q 494 71 494 113 q 494 6 494 29 l 494 0 q 466 0 479 0 q 439 0 453 0 q 419 0 429 0 q 400 0 410 0 q 400 27 400 10 q 400 73 400 44 q 400 139 400 101 l 413 161 q 353 37 404 90 q 218 -17 301 -17 q 103 24 151 -17 q 54 144 54 64 q 99 260 54 214 q 226 328 143 306 q 425 356 308 351 l 425 311 q 214 266 281 306 q 147 156 147 226 q 179 80 147 110 q 256 50 211 50 q 324 65 290 50 q 379 116 357 81 q 401 206 401 151 l 401 428 m 494 0 q 486 -8 490 -4 q 478 -17 482 -12 q 417 -92 439 -56 q 394 -172 394 -129 q 415 -218 394 -203 q 467 -233 436 -233 q 494 -230 481 -233 q 517 -222 507 -226 l 517 -239 q 467 -275 496 -261 q 406 -289 438 -289 q 329 -261 358 -289 q 300 -183 300 -233 q 353 -72 300 -128 q 472 6 407 -17 l 494 0 z "},"å":{"ha":590,"x_min":54,"x_max":494,"o":"m 401 428 q 367 544 401 504 q 260 583 332 583 q 160 570 210 583 q 83 539 111 557 l 78 550 q 164 631 101 600 q 297 661 226 661 q 448 606 401 661 q 494 439 494 550 l 494 167 q 494 71 494 113 q 494 6 494 29 l 494 0 q 466 0 479 0 q 439 0 453 0 q 419 0 429 0 q 400 0 410 0 q 400 27 400 10 q 400 73 400 44 q 400 139 400 101 l 413 161 q 353 37 404 90 q 218 -17 301 -17 q 103 24 151 -17 q 54 144 54 64 q 99 260 54 214 q 226 328 143 306 q 425 356 308 351 l 425 311 q 214 266 281 306 q 147 156 147 226 q 179 80 147 110 q 256 50 211 50 q 324 65 290 50 q 379 116 357 81 q 401 206 401 151 l 401 428 m 297 761 q 205 797 240 761 q 169 889 169 832 q 205 981 169 946 q 297 1017 240 1017 q 390 981 354 1017 q 425 889 425 946 q 390 797 425 832 q 297 761 354 761 m 297 811 q 350 832 331 811 q 369 889 369 853 q 350 946 369 925 q 297 967 331 967 q 244 946 264 967 q 225 889 225 925 q 244 832 225 853 q 297 811 264 811 z "},"ǻ":{"ha":590,"x_min":54,"x_max":494,"o":"m 401 428 q 367 544 401 504 q 260 583 332 583 q 160 570 210 583 q 83 539 111 557 l 78 550 q 164 631 101 600 q 297 661 226 661 q 448 606 401 661 q 494 439 494 550 l 494 167 q 494 71 494 113 q 494 6 494 29 l 494 0 q 466 0 479 0 q 439 0 453 0 q 419 0 429 0 q 400 0 410 0 q 400 27 400 10 q 400 73 400 44 q 400 139 400 101 l 413 161 q 353 37 404 90 q 218 -17 301 -17 q 103 24 151 -17 q 54 144 54 64 q 99 260 54 214 q 226 328 143 306 q 425 356 308 351 l 425 311 q 214 266 281 306 q 147 156 147 226 q 179 80 147 110 q 256 50 211 50 q 324 65 290 50 q 379 116 357 81 q 401 206 401 151 l 401 428 m 297 761 q 205 797 240 761 q 169 889 169 832 q 205 981 169 946 q 297 1017 240 1017 q 390 981 354 1017 q 425 889 425 946 q 390 797 425 832 q 297 761 354 761 m 297 811 q 350 832 331 811 q 369 889 369 853 q 350 946 369 925 q 297 967 331 967 q 244 946 264 967 q 225 889 225 925 q 244 832 225 853 q 297 811 264 811 m 258 978 l 369 1172 l 492 1172 l 492 1161 l 292 967 l 258 978 z "},"ã":{"ha":590,"x_min":54,"x_max":494,"o":"m 401 428 q 367 544 401 504 q 260 583 332 583 q 160 570 210 583 q 83 539 111 557 l 78 550 q 164 631 101 600 q 297 661 226 661 q 448 606 401 661 q 494 439 494 550 l 494 167 q 494 71 494 113 q 494 6 494 29 l 494 0 q 466 0 479 0 q 439 0 453 0 q 419 0 429 0 q 400 0 410 0 q 400 27 400 10 q 400 73 400 44 q 400 139 400 101 l 413 161 q 353 37 404 90 q 218 -17 301 -17 q 103 24 151 -17 q 54 144 54 64 q 99 260 54 214 q 226 328 143 306 q 425 356 308 351 l 425 311 q 214 266 281 306 q 147 156 147 226 q 179 80 147 110 q 256 50 211 50 q 324 65 290 50 q 379 116 357 81 q 401 206 401 151 l 401 428 m 219 972 q 293 953 268 972 q 340 900 318 933 q 363 870 353 879 q 386 861 372 861 q 427 888 414 861 q 447 967 440 915 l 475 961 q 455 835 476 881 q 375 789 433 789 q 300 808 326 789 q 253 863 274 828 q 232 891 242 882 q 208 900 222 900 q 169 874 182 900 q 147 794 156 849 l 119 800 q 140 927 119 882 q 219 972 161 972 z "},"æ":{"ha":985,"x_min":54,"x_max":954,"o":"m 401 428 q 369 542 401 501 q 260 583 336 583 q 161 570 210 583 q 83 539 113 557 l 78 550 q 165 631 104 600 q 293 661 225 661 q 442 604 392 661 q 492 428 492 547 l 492 156 l 400 139 l 457 194 q 401 42 458 100 q 247 -17 343 -17 q 105 22 156 -17 q 54 144 54 61 q 99 260 54 214 q 227 330 144 307 q 425 356 310 353 l 425 311 q 215 268 282 307 q 147 156 147 229 q 180 80 147 110 q 263 50 213 50 q 358 88 315 50 q 401 206 401 126 l 401 428 m 939 367 l 450 367 l 450 422 l 872 422 l 839 383 q 838 490 851 438 q 788 577 825 543 q 696 611 751 611 q 549 532 603 611 q 494 322 494 453 q 522 184 494 244 q 599 90 549 124 q 717 56 649 56 q 842 80 782 56 q 933 161 901 104 l 944 156 q 894 65 931 104 q 806 4 858 25 q 696 -17 754 -17 q 543 25 607 -17 q 445 144 479 67 q 411 328 411 222 l 422 344 q 461 515 424 444 q 565 624 499 586 q 718 661 632 661 q 858 619 803 661 q 933 510 913 578 q 939 367 954 443 z "},"ǽ":{"ha":985,"x_min":54,"x_max":954,"o":"m 401 428 q 369 542 401 501 q 260 583 336 583 q 161 570 210 583 q 83 539 113 557 l 78 550 q 165 631 104 600 q 293 661 225 661 q 442 604 392 661 q 492 428 492 547 l 492 156 l 400 139 l 457 194 q 401 42 458 100 q 247 -17 343 -17 q 105 22 156 -17 q 54 144 54 61 q 99 260 54 214 q 227 330 144 307 q 425 356 310 353 l 425 311 q 215 268 282 307 q 147 156 147 229 q 180 80 147 110 q 263 50 213 50 q 358 88 315 50 q 401 206 401 126 l 401 428 m 939 367 l 450 367 l 450 422 l 872 422 l 839 383 q 838 490 851 438 q 788 577 825 543 q 696 611 751 611 q 549 532 603 611 q 494 322 494 453 q 522 184 494 244 q 599 90 549 124 q 717 56 649 56 q 842 80 782 56 q 933 161 901 104 l 944 156 q 894 65 931 104 q 806 4 858 25 q 696 -17 754 -17 q 543 25 607 -17 q 445 144 479 67 q 411 328 411 222 l 422 344 q 461 515 424 444 q 565 624 499 586 q 718 661 632 661 q 858 619 803 661 q 933 510 913 578 q 939 367 954 443 m 435 794 l 546 989 l 668 989 l 668 978 l 468 783 l 435 794 z "},"b":{"ha":806,"x_min":107,"x_max":743,"o":"m 217 1017 l 217 72 l 135 -6 l 124 0 l 124 744 q 122 872 124 818 q 116 959 119 926 q 107 1003 113 992 l 107 1003 l 107 1003 l 107 1008 q 110 1009 108 1008 q 115 1010 113 1010 q 120 1011 118 1011 q 124 1011 122 1011 l 206 1022 l 217 1017 m 454 661 q 607 620 542 661 q 708 504 672 579 q 743 328 743 429 q 699 152 743 231 q 575 28 656 74 q 390 -17 494 -17 q 275 2 336 -17 q 169 56 214 21 l 199 411 q 226 538 196 481 q 317 628 257 594 q 454 661 376 661 m 421 600 q 322 575 369 600 q 246 502 275 550 q 217 389 217 454 l 200 156 q 291 64 236 94 q 403 33 346 33 q 581 108 518 33 q 644 300 644 183 q 617 452 644 383 q 538 560 589 521 q 421 600 488 600 z "},"c":{"ha":635,"x_min":63,"x_max":607,"o":"m 585 522 q 482 599 547 576 q 444 608 464 604 q 404 611 424 611 q 283 576 339 611 q 194 477 228 540 q 161 333 161 414 q 193 194 161 257 q 280 93 225 131 q 401 56 335 56 q 515 74 461 56 q 596 139 569 93 l 607 133 q 524 24 588 65 q 369 -17 461 -17 q 217 26 288 -17 q 105 149 147 69 q 63 333 63 229 q 108 504 63 429 q 234 620 154 579 q 411 661 314 661 q 510 649 461 661 q 590 622 560 638 l 590 522 l 585 522 z "},"ć":{"ha":635,"x_min":63,"x_max":607,"o":"m 585 522 q 482 599 547 576 q 444 608 464 604 q 404 611 424 611 q 283 576 339 611 q 194 477 228 540 q 161 333 161 414 q 193 194 161 257 q 280 93 225 131 q 401 56 335 56 q 515 74 461 56 q 596 139 569 93 l 607 133 q 524 24 588 65 q 369 -17 461 -17 q 217 26 288 -17 q 105 149 147 69 q 63 333 63 229 q 108 504 63 429 q 234 620 154 579 q 411 661 314 661 q 510 649 461 661 q 590 622 560 638 l 590 522 l 585 522 m 343 794 l 454 989 l 576 989 l 576 978 l 376 783 l 343 794 z "},"č":{"ha":635,"x_min":63,"x_max":607,"o":"m 585 522 q 482 599 547 576 q 444 608 464 604 q 404 611 424 611 q 283 576 339 611 q 194 477 228 540 q 161 333 161 414 q 193 194 161 257 q 280 93 225 131 q 401 56 335 56 q 515 74 461 56 q 596 139 569 93 l 607 133 q 524 24 588 65 q 369 -17 461 -17 q 217 26 288 -17 q 105 149 147 69 q 63 333 63 229 q 108 504 63 429 q 234 620 154 579 q 411 661 314 661 q 510 649 461 661 q 590 622 560 638 l 590 522 l 585 522 m 482 989 l 515 983 l 388 783 l 365 783 l 243 983 l 271 989 l 376 883 l 482 989 z "},"ç":{"ha":635,"x_min":63,"x_max":607,"o":"m 585 522 q 482 599 547 576 q 444 608 464 604 q 404 611 424 611 q 283 576 339 611 q 194 477 228 540 q 161 333 161 414 q 193 194 161 257 q 280 93 225 131 q 401 56 335 56 q 515 74 461 56 q 596 139 569 93 l 607 133 q 524 24 588 65 q 369 -17 461 -17 q 217 26 288 -17 q 105 149 147 69 q 63 333 63 229 q 108 504 63 429 q 234 620 154 579 q 411 661 314 661 q 510 649 461 661 q 590 622 560 638 l 590 522 l 585 522 m 306 -294 q 228 -283 261 -294 l 239 -239 q 300 -256 272 -256 q 340 -242 324 -256 q 356 -206 356 -229 q 338 -170 356 -185 q 283 -150 319 -156 l 317 11 l 361 11 l 339 -117 l 333 -76 q 415 -119 385 -89 q 444 -193 444 -150 q 402 -267 444 -240 q 306 -294 360 -294 z "},"ĉ":{"ha":635,"x_min":63,"x_max":607,"o":"m 585 522 q 482 599 547 576 q 444 608 464 604 q 404 611 424 611 q 283 576 339 611 q 194 477 228 540 q 161 333 161 414 q 193 194 161 257 q 280 93 225 131 q 401 56 335 56 q 515 74 461 56 q 596 139 569 93 l 607 133 q 524 24 588 65 q 369 -17 461 -17 q 217 26 288 -17 q 105 149 147 69 q 63 333 63 229 q 108 504 63 429 q 234 620 154 579 q 411 661 314 661 q 510 649 461 661 q 590 622 560 638 l 590 522 l 585 522 m 482 783 l 376 889 l 271 783 l 243 789 l 365 989 l 388 989 l 515 789 l 482 783 z "},"ċ":{"ha":635,"x_min":63,"x_max":607,"o":"m 585 522 q 482 599 547 576 q 444 608 464 604 q 404 611 424 611 q 283 576 339 611 q 194 477 228 540 q 161 333 161 414 q 193 194 161 257 q 280 93 225 131 q 401 56 335 56 q 515 74 461 56 q 596 139 569 93 l 607 133 q 524 24 588 65 q 369 -17 461 -17 q 217 26 288 -17 q 105 149 147 69 q 63 333 63 229 q 108 504 63 429 q 234 620 154 579 q 411 661 314 661 q 510 649 461 661 q 590 622 560 638 l 590 522 l 585 522 m 299 856 q 338 901 299 863 q 382 939 376 939 q 407 919 386 939 q 447 880 428 900 q 465 856 465 860 q 446 831 465 851 q 406 791 426 810 q 382 772 386 772 q 357 792 378 772 q 317 831 336 811 q 299 856 299 851 z "},"d":{"ha":806,"x_min":63,"x_max":696,"o":"m 589 750 q 587 876 589 821 q 581 965 585 932 q 572 1010 576 999 l 572 1010 l 572 1010 l 572 1015 q 578 1015 575 1015 q 583 1017 581 1015 q 588 1017 586 1017 q 593 1017 590 1017 l 671 1022 l 682 1017 l 682 267 q 684 141 682 197 q 689 51 686 85 q 696 7 692 18 l 696 7 l 696 7 l 696 1 q 692 1 694 1 q 688 1 690 1 q 683 0 685 0 q 679 0 681 0 l 601 -6 l 589 0 l 589 750 m 364 -17 q 208 24 276 -17 q 101 141 140 65 q 63 317 63 217 q 107 492 63 414 q 232 616 151 571 q 417 661 313 661 q 523 646 468 661 q 618 606 578 631 l 607 233 q 581 107 610 164 q 496 17 553 50 q 364 -17 439 -17 m 397 44 q 490 69 446 44 q 561 142 533 94 q 589 256 589 190 l 607 489 q 516 581 569 550 q 403 611 463 611 q 225 536 289 611 q 161 344 161 461 q 192 193 161 261 q 276 85 222 125 q 397 44 331 44 z "},"ð":{"ha":750,"x_min":63,"x_max":688,"o":"m 271 1031 q 589 827 490 979 q 688 419 688 675 l 599 378 q 560 674 597 554 q 444 870 524 794 q 231 978 364 946 l 231 989 l 271 1031 m 372 -17 q 208 27 278 -17 q 100 147 138 71 q 63 317 63 224 q 101 495 63 421 q 207 607 140 569 q 356 644 274 644 q 493 617 439 644 q 578 544 547 589 q 635 431 608 499 l 688 419 q 645 182 688 281 q 531 33 603 83 q 372 -17 460 -17 m 365 39 q 477 73 425 39 q 560 172 529 107 q 589 328 590 238 q 529 518 586 447 q 372 589 472 589 q 269 555 318 589 q 191 455 221 521 q 161 300 161 389 q 185 160 161 219 q 255 70 208 101 q 365 39 301 39 m 296 725 l 303 744 q 328 821 314 769 l 635 1031 l 642 1021 l 619 935 l 304 717 l 296 725 z "},"ď":{"ha":806,"x_min":63,"x_max":883,"o":"m 589 750 q 587 876 589 821 q 581 965 585 932 q 572 1010 576 999 l 572 1010 l 572 1010 l 572 1015 q 578 1015 575 1015 q 583 1017 581 1015 q 588 1017 586 1017 q 593 1017 590 1017 l 671 1022 l 682 1017 l 682 267 q 684 141 682 197 q 689 51 686 85 q 696 7 692 18 l 696 7 l 696 7 l 696 1 q 692 1 694 1 q 688 1 690 1 q 683 0 685 0 q 679 0 681 0 l 601 -6 l 589 0 l 589 750 m 364 -17 q 208 24 276 -17 q 101 141 140 65 q 63 317 63 217 q 107 492 63 414 q 232 616 151 571 q 417 661 313 661 q 523 646 468 661 q 618 606 578 631 l 607 233 q 581 107 610 164 q 496 17 553 50 q 364 -17 439 -17 m 397 44 q 490 69 446 44 q 561 142 533 94 q 589 256 589 190 l 607 489 q 516 581 569 550 q 403 611 463 611 q 225 536 289 611 q 161 344 161 461 q 192 193 161 261 q 276 85 222 125 q 397 44 331 44 m 739 767 q 755 911 739 790 q 778 1039 771 1032 q 833 1028 789 1039 q 883 1011 876 1018 q 857 935 875 988 q 819 829 839 882 q 789 750 800 776 q 762 755 778 750 q 739 767 746 760 z "},"đ":{"ha":806,"x_min":63,"x_max":790,"o":"m 589 750 q 587 876 589 821 q 581 965 585 932 q 572 1010 576 999 l 572 1010 l 572 1010 l 572 1015 q 578 1015 575 1015 q 583 1017 581 1015 q 588 1017 586 1017 q 593 1017 590 1017 l 671 1022 l 682 1017 l 682 267 q 684 141 682 197 q 689 51 686 85 q 696 7 692 18 l 696 7 l 696 7 l 696 1 q 692 1 694 1 q 688 1 690 1 q 683 0 685 0 q 679 0 681 0 l 601 -6 l 589 0 l 589 750 m 364 -17 q 208 24 276 -17 q 101 141 140 65 q 63 317 63 217 q 107 492 63 414 q 232 616 151 571 q 417 661 313 661 q 523 646 468 661 q 618 606 578 631 l 607 233 q 581 107 610 164 q 496 17 553 50 q 364 -17 439 -17 m 397 44 q 490 69 446 44 q 561 142 533 94 q 589 256 589 190 l 607 489 q 516 581 569 550 q 403 611 463 611 q 225 536 289 611 q 161 344 161 461 q 192 193 161 261 q 276 85 222 125 q 397 44 331 44 m 368 750 l 368 761 l 368 806 l 790 806 l 790 794 l 790 750 l 368 750 z "},"e":{"ha":658,"x_min":63,"x_max":628,"o":"m 613 367 l 118 367 l 118 422 l 546 422 l 514 381 q 513 487 526 433 q 460 574 499 540 q 367 608 422 608 q 258 572 306 608 q 186 469 211 535 q 161 319 161 404 q 224 128 163 201 q 386 56 286 56 q 515 80 453 56 q 608 161 578 104 l 618 156 q 529 31 600 78 q 368 -17 458 -17 q 208 23 278 -17 q 101 138 139 63 q 63 317 63 213 q 107 494 63 415 q 226 617 151 572 q 390 661 301 661 q 531 619 475 661 q 607 510 586 578 q 613 367 628 442 z "},"é":{"ha":658,"x_min":63,"x_max":628,"o":"m 613 367 l 118 367 l 118 422 l 546 422 l 514 381 q 513 487 526 433 q 460 574 499 540 q 367 608 422 608 q 258 572 306 608 q 186 469 211 535 q 161 319 161 404 q 224 128 163 201 q 386 56 286 56 q 515 80 453 56 q 608 161 578 104 l 618 156 q 529 31 600 78 q 368 -17 458 -17 q 208 23 278 -17 q 101 138 139 63 q 63 317 63 213 q 107 494 63 415 q 226 617 151 572 q 390 661 301 661 q 531 619 475 661 q 607 510 586 578 q 613 367 628 442 m 328 794 l 439 989 l 561 989 l 561 978 l 361 783 l 328 794 z "},"ĕ":{"ha":658,"x_min":63,"x_max":628,"o":"m 613 367 l 118 367 l 118 422 l 546 422 l 514 381 q 513 487 526 433 q 460 574 499 540 q 367 608 422 608 q 258 572 306 608 q 186 469 211 535 q 161 319 161 404 q 224 128 163 201 q 386 56 286 56 q 515 80 453 56 q 608 161 578 104 l 618 156 q 529 31 600 78 q 368 -17 458 -17 q 208 23 278 -17 q 101 138 139 63 q 63 317 63 213 q 107 494 63 415 q 226 617 151 572 q 390 661 301 661 q 531 619 475 661 q 607 510 586 578 q 613 367 628 442 m 506 983 q 467 838 501 892 q 367 783 432 783 q 267 838 301 783 q 228 983 232 892 l 256 989 q 296 903 269 933 q 367 872 322 872 q 438 903 411 872 q 478 989 464 933 l 506 983 z "},"ě":{"ha":658,"x_min":63,"x_max":628,"o":"m 613 367 l 118 367 l 118 422 l 546 422 l 514 381 q 513 487 526 433 q 460 574 499 540 q 367 608 422 608 q 258 572 306 608 q 186 469 211 535 q 161 319 161 404 q 224 128 163 201 q 386 56 286 56 q 515 80 453 56 q 608 161 578 104 l 618 156 q 529 31 600 78 q 368 -17 458 -17 q 208 23 278 -17 q 101 138 139 63 q 63 317 63 213 q 107 494 63 415 q 226 617 151 572 q 390 661 301 661 q 531 619 475 661 q 607 510 586 578 q 613 367 628 442 m 467 989 l 500 983 l 372 783 l 350 783 l 228 983 l 256 989 l 361 883 l 467 989 z "},"ê":{"ha":658,"x_min":63,"x_max":628,"o":"m 613 367 l 118 367 l 118 422 l 546 422 l 514 381 q 513 487 526 433 q 460 574 499 540 q 367 608 422 608 q 258 572 306 608 q 186 469 211 535 q 161 319 161 404 q 224 128 163 201 q 386 56 286 56 q 515 80 453 56 q 608 161 578 104 l 618 156 q 529 31 600 78 q 368 -17 458 -17 q 208 23 278 -17 q 101 138 139 63 q 63 317 63 213 q 107 494 63 415 q 226 617 151 572 q 390 661 301 661 q 531 619 475 661 q 607 510 586 578 q 613 367 628 442 m 467 783 l 361 889 l 256 783 l 228 789 l 350 989 l 372 989 l 500 789 l 467 783 z "},"ë":{"ha":658,"x_min":63,"x_max":628,"o":"m 613 367 l 118 367 l 118 422 l 546 422 l 514 381 q 513 487 526 433 q 460 574 499 540 q 367 608 422 608 q 258 572 306 608 q 186 469 211 535 q 161 319 161 404 q 224 128 163 201 q 386 56 286 56 q 515 80 453 56 q 608 161 578 104 l 618 156 q 529 31 600 78 q 368 -17 458 -17 q 208 23 278 -17 q 101 138 139 63 q 63 317 63 213 q 107 494 63 415 q 226 617 151 572 q 390 661 301 661 q 531 619 475 661 q 607 510 586 578 q 613 367 628 442 m 189 856 q 226 901 189 864 q 267 939 264 939 q 310 901 275 939 q 344 856 344 864 q 309 815 344 853 q 267 778 274 778 q 227 816 265 778 q 189 856 189 854 m 389 856 q 424 901 389 864 q 461 939 458 939 q 507 901 469 939 q 544 856 544 864 q 506 815 544 853 q 461 778 468 778 q 424 815 460 778 q 389 856 389 853 z "},"ė":{"ha":658,"x_min":63,"x_max":628,"o":"m 613 367 l 118 367 l 118 422 l 546 422 l 514 381 q 513 487 526 433 q 460 574 499 540 q 367 608 422 608 q 258 572 306 608 q 186 469 211 535 q 161 319 161 404 q 224 128 163 201 q 386 56 286 56 q 515 80 453 56 q 608 161 578 104 l 618 156 q 529 31 600 78 q 368 -17 458 -17 q 208 23 278 -17 q 101 138 139 63 q 63 317 63 213 q 107 494 63 415 q 226 617 151 572 q 390 661 301 661 q 531 619 475 661 q 607 510 586 578 q 613 367 628 442 m 283 856 q 322 901 283 863 q 367 939 361 939 q 392 919 371 939 q 431 880 413 900 q 450 856 450 860 q 431 831 450 851 q 391 791 411 810 q 367 772 371 772 q 342 792 363 772 q 302 831 321 811 q 283 856 283 851 z "},"è":{"ha":658,"x_min":63,"x_max":628,"o":"m 613 367 l 118 367 l 118 422 l 546 422 l 514 381 q 513 487 526 433 q 460 574 499 540 q 367 608 422 608 q 258 572 306 608 q 186 469 211 535 q 161 319 161 404 q 224 128 163 201 q 386 56 286 56 q 515 80 453 56 q 608 161 578 104 l 618 156 q 529 31 600 78 q 368 -17 458 -17 q 208 23 278 -17 q 101 138 139 63 q 63 317 63 213 q 107 494 63 415 q 226 617 151 572 q 390 661 301 661 q 531 619 475 661 q 607 510 586 578 q 613 367 628 442 m 406 794 l 372 783 l 172 978 l 172 989 l 294 989 l 406 794 z "},"ē":{"ha":658,"x_min":63,"x_max":628,"o":"m 613 367 l 118 367 l 118 422 l 546 422 l 514 381 q 513 487 526 433 q 460 574 499 540 q 367 608 422 608 q 258 572 306 608 q 186 469 211 535 q 161 319 161 404 q 224 128 163 201 q 386 56 286 56 q 515 80 453 56 q 608 161 578 104 l 618 156 q 529 31 600 78 q 368 -17 458 -17 q 208 23 278 -17 q 101 138 139 63 q 63 317 63 213 q 107 494 63 415 q 226 617 151 572 q 390 661 301 661 q 531 619 475 661 q 607 510 586 578 q 613 367 628 442 m 211 889 l 522 889 l 522 828 l 211 828 l 211 889 z "},"ę":{"ha":651,"x_min":63,"x_max":619,"o":"m 493 -289 q 407 -259 439 -289 q 375 -168 375 -229 q 399 -88 375 -129 q 460 -12 422 -47 q 539 44 499 22 l 556 57 q 472 3 522 22 q 363 -17 421 -17 q 204 23 272 -17 q 99 138 136 63 q 63 317 63 213 q 106 493 63 414 q 224 617 150 572 q 385 661 297 661 q 524 619 469 661 q 599 510 579 578 q 606 367 619 443 l 118 367 l 118 422 l 538 422 l 506 383 q 504 490 518 438 q 453 577 490 543 q 363 611 417 611 q 216 532 269 611 q 163 322 163 453 q 190 184 163 244 q 267 90 217 124 q 383 56 317 56 q 508 80 449 56 q 600 161 568 104 l 611 156 q 596 115 607 138 q 563 63 585 92 q 562 62 563 63 q 561 61 561 61 q 497 -33 524 17 q 469 -142 469 -82 q 494 -209 469 -185 q 556 -233 519 -233 q 603 -224 581 -233 l 606 -222 l 606 -239 q 554 -275 583 -261 q 493 -289 525 -289 z "},"f":{"ha":440,"x_min":29,"x_max":485,"o":"m 324 978 q 253 940 276 978 q 229 839 229 903 l 229 644 l 460 644 l 460 633 l 418 578 l 229 578 l 229 240 q 231 127 229 178 q 236 46 233 76 q 243 6 239 15 l 243 6 l 243 6 l 243 0 q 237 0 242 0 q 228 0 232 0 q 222 0 224 0 l 142 0 q 136 0 140 0 q 131 0 132 0 l 131 6 q 133 47 132 14 q 135 128 135 79 q 136 240 136 178 l 136 578 l 29 578 l 29 589 q 86 616 58 601 q 131 642 114 631 q 133 644 132 643 q 136 644 135 644 l 136 822 q 183 973 136 918 q 331 1028 229 1028 q 485 1006 413 1028 l 485 944 q 413 968 453 958 q 324 978 372 978 m 331 1028 q 485 1006 406 1028 l 483 917 l 472 917 q 422 956 444 944 q 377 972 401 967 q 324 978 353 978 l 331 1028 z "},"g":{"ha":668,"x_min":63,"x_max":644,"o":"m 313 -300 q 123 -253 183 -300 q 63 -133 63 -207 q 102 -41 63 -79 q 196 6 142 -3 l 200 0 q 167 -40 181 -14 q 153 -100 153 -67 q 179 -181 153 -147 q 253 -232 206 -214 q 367 -250 301 -250 q 502 -210 449 -250 q 556 -111 556 -171 q 526 -32 556 -53 q 439 -11 496 -11 l 265 -11 q 92 117 92 -11 q 129 207 92 167 q 214 261 167 247 l 224 256 q 194 214 206 238 q 182 167 182 190 q 208 106 182 129 q 294 83 233 83 l 440 83 q 592 42 540 83 q 644 -78 644 1 q 601 -194 644 -143 q 481 -272 557 -244 q 313 -300 406 -300 m 318 217 q 196 244 251 217 q 107 323 140 272 q 74 439 74 374 q 108 552 74 501 q 202 632 143 603 q 331 661 261 661 q 392 661 360 661 q 457 663 424 661 q 532 666 494 664 q 606 672 569 668 l 604 600 q 578 600 593 600 q 544 601 563 600 q 507 601 524 601 q 481 603 490 601 q 443 604 465 601 q 399 610 421 607 q 355 615 376 613 q 313 617 333 617 q 210 572 246 617 q 174 456 174 528 q 196 358 174 403 q 257 288 218 314 q 342 261 296 261 q 442 303 410 261 q 475 411 475 344 q 433 555 475 494 q 313 617 392 615 l 357 660 q 463 622 414 653 q 543 540 513 590 q 574 428 574 489 q 540 319 574 368 q 448 244 507 271 q 318 217 389 217 z "},"ǵ":{"ha":668,"x_min":63,"x_max":644,"o":"m 313 -300 q 123 -253 183 -300 q 63 -133 63 -207 q 102 -41 63 -79 q 196 6 142 -3 l 200 0 q 167 -40 181 -14 q 153 -100 153 -67 q 179 -181 153 -147 q 253 -232 206 -214 q 367 -250 301 -250 q 502 -210 449 -250 q 556 -111 556 -171 q 526 -32 556 -53 q 439 -11 496 -11 l 265 -11 q 92 117 92 -11 q 129 207 92 167 q 214 261 167 247 l 224 256 q 194 214 206 238 q 182 167 182 190 q 208 106 182 129 q 294 83 233 83 l 440 83 q 592 42 540 83 q 644 -78 644 1 q 601 -194 644 -143 q 481 -272 557 -244 q 313 -300 406 -300 m 318 217 q 196 244 251 217 q 107 323 140 272 q 74 439 74 374 q 108 552 74 501 q 202 632 143 603 q 331 661 261 661 q 392 661 360 661 q 457 663 424 661 q 532 666 494 664 q 606 672 569 668 l 604 600 q 578 600 593 600 q 544 601 563 600 q 507 601 524 601 q 481 603 490 601 q 443 604 465 601 q 399 610 421 607 q 355 615 376 613 q 313 617 333 617 q 210 572 246 617 q 174 456 174 528 q 196 358 174 403 q 257 288 218 314 q 342 261 296 261 q 442 303 410 261 q 475 411 475 344 q 433 555 475 494 q 313 617 392 615 l 357 660 q 463 622 414 653 q 543 540 513 590 q 574 428 574 489 q 540 319 574 368 q 448 244 507 271 q 318 217 389 217 m 308 794 l 419 989 l 542 989 l 542 978 l 342 783 l 308 794 z "},"ğ":{"ha":668,"x_min":63,"x_max":644,"o":"m 313 -300 q 123 -253 183 -300 q 63 -133 63 -207 q 102 -41 63 -79 q 196 6 142 -3 l 200 0 q 167 -40 181 -14 q 153 -100 153 -67 q 179 -181 153 -147 q 253 -232 206 -214 q 367 -250 301 -250 q 502 -210 449 -250 q 556 -111 556 -171 q 526 -32 556 -53 q 439 -11 496 -11 l 265 -11 q 92 117 92 -11 q 129 207 92 167 q 214 261 167 247 l 224 256 q 194 214 206 238 q 182 167 182 190 q 208 106 182 129 q 294 83 233 83 l 440 83 q 592 42 540 83 q 644 -78 644 1 q 601 -194 644 -143 q 481 -272 557 -244 q 313 -300 406 -300 m 318 217 q 196 244 251 217 q 107 323 140 272 q 74 439 74 374 q 108 552 74 501 q 202 632 143 603 q 331 661 261 661 q 392 661 360 661 q 457 663 424 661 q 532 666 494 664 q 606 672 569 668 l 604 600 q 578 600 593 600 q 544 601 563 600 q 507 601 524 601 q 481 603 490 601 q 443 604 465 601 q 399 610 421 607 q 355 615 376 613 q 313 617 333 617 q 210 572 246 617 q 174 456 174 528 q 196 358 174 403 q 257 288 218 314 q 342 261 296 261 q 442 303 410 261 q 475 411 475 344 q 433 555 475 494 q 313 617 392 615 l 357 660 q 463 622 414 653 q 543 540 513 590 q 574 428 574 489 q 540 319 574 368 q 448 244 507 271 q 318 217 389 217 m 486 983 q 447 838 482 892 q 347 783 413 783 q 247 838 282 783 q 208 983 213 892 l 236 989 q 276 903 250 933 q 347 872 303 872 q 418 903 392 872 q 458 989 444 933 l 486 983 z "},"ǧ":{"ha":668,"x_min":63,"x_max":644,"o":"m 313 -300 q 123 -253 183 -300 q 63 -133 63 -207 q 102 -41 63 -79 q 196 6 142 -3 l 200 0 q 167 -40 181 -14 q 153 -100 153 -67 q 179 -181 153 -147 q 253 -232 206 -214 q 367 -250 301 -250 q 502 -210 449 -250 q 556 -111 556 -171 q 526 -32 556 -53 q 439 -11 496 -11 l 265 -11 q 92 117 92 -11 q 129 207 92 167 q 214 261 167 247 l 224 256 q 194 214 206 238 q 182 167 182 190 q 208 106 182 129 q 294 83 233 83 l 440 83 q 592 42 540 83 q 644 -78 644 1 q 601 -194 644 -143 q 481 -272 557 -244 q 313 -300 406 -300 m 318 217 q 196 244 251 217 q 107 323 140 272 q 74 439 74 374 q 108 552 74 501 q 202 632 143 603 q 331 661 261 661 q 392 661 360 661 q 457 663 424 661 q 532 666 494 664 q 606 672 569 668 l 604 600 q 578 600 593 600 q 544 601 563 600 q 507 601 524 601 q 481 603 490 601 q 443 604 465 601 q 399 610 421 607 q 355 615 376 613 q 313 617 333 617 q 210 572 246 617 q 174 456 174 528 q 196 358 174 403 q 257 288 218 314 q 342 261 296 261 q 442 303 410 261 q 475 411 475 344 q 433 555 475 494 q 313 617 392 615 l 357 660 q 463 622 414 653 q 543 540 513 590 q 574 428 574 489 q 540 319 574 368 q 448 244 507 271 q 318 217 389 217 m 447 989 l 481 983 l 353 783 l 331 783 l 208 983 l 236 989 l 342 883 l 447 989 z "},"ĝ":{"ha":668,"x_min":63,"x_max":644,"o":"m 313 -300 q 123 -253 183 -300 q 63 -133 63 -207 q 102 -41 63 -79 q 196 6 142 -3 l 200 0 q 167 -40 181 -14 q 153 -100 153 -67 q 179 -181 153 -147 q 253 -232 206 -214 q 367 -250 301 -250 q 502 -210 449 -250 q 556 -111 556 -171 q 526 -32 556 -53 q 439 -11 496 -11 l 265 -11 q 92 117 92 -11 q 129 207 92 167 q 214 261 167 247 l 224 256 q 194 214 206 238 q 182 167 182 190 q 208 106 182 129 q 294 83 233 83 l 440 83 q 592 42 540 83 q 644 -78 644 1 q 601 -194 644 -143 q 481 -272 557 -244 q 313 -300 406 -300 m 318 217 q 196 244 251 217 q 107 323 140 272 q 74 439 74 374 q 108 552 74 501 q 202 632 143 603 q 331 661 261 661 q 392 661 360 661 q 457 663 424 661 q 532 666 494 664 q 606 672 569 668 l 604 600 q 578 600 593 600 q 544 601 563 600 q 507 601 524 601 q 481 603 490 601 q 443 604 465 601 q 399 610 421 607 q 355 615 376 613 q 313 617 333 617 q 210 572 246 617 q 174 456 174 528 q 196 358 174 403 q 257 288 218 314 q 342 261 296 261 q 442 303 410 261 q 475 411 475 344 q 433 555 475 494 q 313 617 392 615 l 357 660 q 463 622 414 653 q 543 540 513 590 q 574 428 574 489 q 540 319 574 368 q 448 244 507 271 q 318 217 389 217 m 447 783 l 342 889 l 236 783 l 208 789 l 331 989 l 353 989 l 481 789 l 447 783 z "},"ģ":{"ha":668,"x_min":63,"x_max":644,"o":"m 313 -300 q 123 -253 183 -300 q 63 -133 63 -207 q 102 -41 63 -79 q 196 6 142 -3 l 200 0 q 167 -40 181 -14 q 153 -100 153 -67 q 179 -181 153 -147 q 253 -232 206 -214 q 367 -250 301 -250 q 502 -210 449 -250 q 556 -111 556 -171 q 526 -32 556 -53 q 439 -11 496 -11 l 265 -11 q 92 117 92 -11 q 129 207 92 167 q 214 261 167 247 l 224 256 q 194 214 206 238 q 182 167 182 190 q 208 106 182 129 q 294 83 233 83 l 440 83 q 592 42 540 83 q 644 -78 644 1 q 601 -194 644 -143 q 481 -272 557 -244 q 313 -300 406 -300 m 318 217 q 196 244 251 217 q 107 323 140 272 q 74 439 74 374 q 108 552 74 501 q 202 632 143 603 q 331 661 261 661 q 392 661 360 661 q 457 663 424 661 q 532 666 494 664 q 606 672 569 668 l 604 600 q 578 600 593 600 q 544 601 563 600 q 507 601 524 601 q 481 603 490 601 q 443 604 465 601 q 399 610 421 607 q 355 615 376 613 q 313 617 333 617 q 210 572 246 617 q 174 456 174 528 q 196 358 174 403 q 257 288 218 314 q 342 261 296 261 q 442 303 410 261 q 475 411 475 344 q 433 555 475 494 q 313 617 392 615 l 357 660 q 463 622 414 653 q 543 540 513 590 q 574 428 574 489 q 540 319 574 368 q 448 244 507 271 q 318 217 389 217 m 419 1022 q 403 878 419 999 q 381 750 388 757 q 326 760 369 750 q 275 778 282 771 q 301 854 283 801 q 339 960 319 907 q 369 1039 358 1013 q 396 1034 379 1039 q 419 1022 413 1029 z "},"ġ":{"ha":668,"x_min":63,"x_max":644,"o":"m 313 -300 q 123 -253 183 -300 q 63 -133 63 -207 q 102 -41 63 -79 q 196 6 142 -3 l 200 0 q 167 -40 181 -14 q 153 -100 153 -67 q 179 -181 153 -147 q 253 -232 206 -214 q 367 -250 301 -250 q 502 -210 449 -250 q 556 -111 556 -171 q 526 -32 556 -53 q 439 -11 496 -11 l 265 -11 q 92 117 92 -11 q 129 207 92 167 q 214 261 167 247 l 224 256 q 194 214 206 238 q 182 167 182 190 q 208 106 182 129 q 294 83 233 83 l 440 83 q 592 42 540 83 q 644 -78 644 1 q 601 -194 644 -143 q 481 -272 557 -244 q 313 -300 406 -300 m 318 217 q 196 244 251 217 q 107 323 140 272 q 74 439 74 374 q 108 552 74 501 q 202 632 143 603 q 331 661 261 661 q 392 661 360 661 q 457 663 424 661 q 532 666 494 664 q 606 672 569 668 l 604 600 q 578 600 593 600 q 544 601 563 600 q 507 601 524 601 q 481 603 490 601 q 443 604 465 601 q 399 610 421 607 q 355 615 376 613 q 313 617 333 617 q 210 572 246 617 q 174 456 174 528 q 196 358 174 403 q 257 288 218 314 q 342 261 296 261 q 442 303 410 261 q 475 411 475 344 q 433 555 475 494 q 313 617 392 615 l 357 660 q 463 622 414 653 q 543 540 513 590 q 574 428 574 489 q 540 319 574 368 q 448 244 507 271 q 318 217 389 217 m 264 856 q 303 901 264 863 q 347 939 342 939 q 372 919 351 939 q 412 880 393 900 q 431 856 431 860 q 411 831 431 851 q 372 791 392 810 q 347 772 351 772 q 322 792 343 772 q 283 831 301 811 q 264 856 264 851 z "},"h":{"ha":765,"x_min":107,"x_max":669,"o":"m 217 240 q 218 128 217 178 q 222 47 219 79 q 228 6 225 15 l 228 6 l 228 6 l 228 0 q 223 0 226 0 q 216 0 219 0 q 211 0 213 0 l 129 0 q 124 0 128 0 q 118 0 119 0 l 118 6 q 121 47 119 14 q 123 128 122 79 q 124 240 124 178 l 124 744 q 122 872 124 818 q 116 959 119 926 q 107 1003 113 992 l 107 1003 l 107 1003 l 107 1008 q 110 1009 108 1008 q 115 1010 113 1010 q 120 1011 118 1011 q 124 1011 122 1011 l 206 1022 l 217 1017 l 217 240 m 567 433 q 530 540 567 501 q 429 578 493 578 q 283 543 350 578 q 193 467 217 508 l 181 472 q 232 553 194 510 q 328 629 269 597 q 458 661 386 661 q 606 603 551 661 q 660 439 660 544 l 660 240 q 661 128 660 178 q 665 50 663 79 q 669 6 667 21 l 669 6 l 669 6 l 669 0 q 665 0 668 0 q 658 0 661 0 q 654 0 656 0 l 572 0 q 567 0 571 0 q 561 0 563 0 l 561 6 q 564 47 563 14 q 566 128 565 79 q 567 240 567 178 l 567 433 z "},"ħ":{"ha":765,"x_min":10,"x_max":669,"o":"m 217 240 q 218 128 217 178 q 222 47 219 79 q 228 6 225 15 l 228 6 l 228 6 l 228 0 q 223 0 226 0 q 216 0 219 0 q 211 0 213 0 l 129 0 q 124 0 128 0 q 118 0 119 0 l 118 6 q 121 47 119 14 q 123 128 122 79 q 124 240 124 178 l 124 744 q 122 872 124 818 q 116 959 119 926 q 107 1003 113 992 l 107 1003 l 107 1003 l 107 1008 q 110 1009 108 1008 q 115 1010 113 1010 q 120 1011 118 1011 q 124 1011 122 1011 l 206 1022 l 217 1017 l 217 240 m 567 433 q 530 540 567 501 q 429 578 493 578 q 283 543 350 578 q 193 467 217 508 l 181 472 q 232 553 194 510 q 328 629 269 597 q 458 661 386 661 q 606 603 551 661 q 660 439 660 544 l 660 240 q 661 128 660 178 q 665 50 663 79 q 669 6 667 21 l 669 6 l 669 6 l 669 0 q 665 0 668 0 q 658 0 661 0 q 654 0 656 0 l 572 0 q 567 0 571 0 q 561 0 563 0 l 561 6 q 564 47 563 14 q 566 128 565 79 q 567 240 567 178 l 567 433 m 10 767 l 10 778 l 10 822 l 432 822 l 432 811 l 432 767 l 10 767 z "},"ĥ":{"ha":765,"x_min":29,"x_max":669,"o":"m 217 240 q 218 128 217 178 q 222 47 219 79 q 228 6 225 15 l 228 6 l 228 6 l 228 0 q 223 0 226 0 q 216 0 219 0 q 211 0 213 0 l 129 0 q 124 0 128 0 q 118 0 119 0 l 118 6 q 121 47 119 14 q 123 128 122 79 q 124 240 124 178 l 124 744 q 122 872 124 818 q 116 959 119 926 q 107 1003 113 992 l 107 1003 l 107 1003 l 107 1008 q 110 1009 108 1008 q 115 1010 113 1010 q 120 1011 118 1011 q 124 1011 122 1011 l 206 1022 l 217 1017 l 217 240 m 567 433 q 530 540 567 501 q 429 578 493 578 q 283 543 350 578 q 193 467 217 508 l 181 472 q 232 553 194 510 q 328 629 269 597 q 458 661 386 661 q 606 603 551 661 q 660 439 660 544 l 660 240 q 661 128 660 178 q 665 50 663 79 q 669 6 667 21 l 669 6 l 669 6 l 669 0 q 665 0 668 0 q 658 0 661 0 q 654 0 656 0 l 572 0 q 567 0 571 0 q 561 0 563 0 l 561 6 q 564 47 563 14 q 566 128 565 79 q 567 240 567 178 l 567 433 m 292 1100 l 175 1206 l 60 1100 l 29 1106 l 164 1306 l 188 1306 l 328 1106 l 292 1100 z "},"i":{"ha":343,"x_min":71,"x_max":242,"o":"m 218 240 q 219 128 218 178 q 224 47 221 79 q 229 6 226 15 l 229 6 l 229 6 l 229 0 q 224 0 228 0 q 217 0 221 0 q 213 0 214 0 l 131 0 q 125 0 129 0 q 119 0 121 0 l 119 6 q 122 47 121 14 q 124 128 124 79 q 125 240 125 178 l 125 378 q 123 506 125 451 q 117 592 121 560 q 108 636 114 625 l 108 636 l 108 636 l 108 642 q 112 642 110 642 q 117 643 114 643 q 122 644 119 644 q 125 644 124 644 l 206 656 l 218 650 l 218 240 m 71 856 q 110 900 71 861 q 157 939 150 939 q 181 919 160 939 q 222 880 203 900 q 242 856 242 860 q 202 811 242 850 q 157 772 163 772 q 132 791 153 772 q 91 831 111 810 q 71 856 71 851 z "},"ı":{"ha":343,"x_min":108,"x_max":229,"o":"m 218 240 q 219 128 218 178 q 224 47 221 79 q 229 6 226 15 l 229 6 l 229 6 l 229 0 q 224 0 228 0 q 217 0 221 0 q 213 0 214 0 l 131 0 q 125 0 129 0 q 119 0 121 0 l 119 6 q 122 47 121 14 q 124 128 124 79 q 125 240 125 178 l 125 378 q 123 506 125 451 q 117 592 121 560 q 108 636 114 625 l 108 636 l 108 636 l 108 642 q 112 642 110 642 q 117 643 114 643 q 122 644 119 644 q 125 644 124 644 l 207 656 l 218 650 l 218 240 z "},"í":{"ha":343,"x_min":108,"x_max":357,"o":"m 218 240 q 219 128 218 178 q 224 47 221 79 q 229 6 226 15 l 229 6 l 229 6 l 229 0 q 224 0 228 0 q 217 0 221 0 q 213 0 214 0 l 131 0 q 125 0 129 0 q 119 0 121 0 l 119 6 q 122 47 121 14 q 124 128 124 79 q 125 240 125 178 l 125 378 q 123 506 125 451 q 117 592 121 560 q 108 636 114 625 l 108 636 l 108 636 l 108 642 q 112 642 110 642 q 117 643 114 643 q 122 644 119 644 q 125 644 124 644 l 207 656 l 218 650 l 218 240 m 124 794 l 235 989 l 357 989 l 357 978 l 157 783 l 124 794 z "},"ĭ":{"ha":343,"x_min":24,"x_max":301,"o":"m 218 240 q 219 128 218 178 q 224 47 221 79 q 229 6 226 15 l 229 6 l 229 6 l 229 0 q 224 0 228 0 q 217 0 221 0 q 213 0 214 0 l 131 0 q 125 0 129 0 q 119 0 121 0 l 119 6 q 122 47 121 14 q 124 128 124 79 q 125 240 125 178 l 125 378 q 123 506 125 451 q 117 592 121 560 q 108 636 114 625 l 108 636 l 108 636 l 108 642 q 112 642 110 642 q 117 643 114 643 q 122 644 119 644 q 125 644 124 644 l 207 656 l 218 650 l 218 240 m 301 983 q 263 838 297 892 q 163 783 228 783 q 63 838 97 783 q 24 983 28 892 l 51 989 q 92 903 65 933 q 163 872 118 872 q 233 903 207 872 q 274 989 260 933 l 301 983 z "},"î":{"ha":343,"x_min":24,"x_max":296,"o":"m 218 240 q 219 128 218 178 q 224 47 221 79 q 229 6 226 15 l 229 6 l 229 6 l 229 0 q 224 0 228 0 q 217 0 221 0 q 213 0 214 0 l 131 0 q 125 0 129 0 q 119 0 121 0 l 119 6 q 122 47 121 14 q 124 128 124 79 q 125 240 125 178 l 125 378 q 123 506 125 451 q 117 592 121 560 q 108 636 114 625 l 108 636 l 108 636 l 108 642 q 112 642 110 642 q 117 643 114 643 q 122 644 119 644 q 125 644 124 644 l 207 656 l 218 650 l 218 240 m 263 783 l 157 889 l 51 783 l 24 789 l 146 989 l 168 989 l 296 789 l 263 783 z "},"ï":{"ha":343,"x_min":-15,"x_max":340,"o":"m 218 240 q 219 128 218 178 q 224 47 221 79 q 229 6 226 15 l 229 6 l 229 6 l 229 0 q 224 0 228 0 q 217 0 221 0 q 213 0 214 0 l 131 0 q 125 0 129 0 q 119 0 121 0 l 119 6 q 122 47 121 14 q 124 128 124 79 q 125 240 125 178 l 125 378 q 123 506 125 451 q 117 592 121 560 q 108 636 114 625 l 108 636 l 108 636 l 108 642 q 112 642 110 642 q 117 643 114 643 q 122 644 119 644 q 125 644 124 644 l 207 656 l 218 650 l 218 240 m -15 856 q 22 901 -15 864 q 63 939 60 939 q 106 901 71 939 q 140 856 140 864 q 105 815 140 853 q 63 778 69 778 q 23 816 61 778 q -15 856 -15 854 m 185 856 q 219 901 185 864 q 257 939 254 939 q 303 901 265 939 q 340 856 340 864 q 302 815 340 853 q 257 778 264 778 q 220 815 256 778 q 185 856 185 853 z "},"ì":{"ha":343,"x_min":-32,"x_max":229,"o":"m 218 240 q 219 128 218 178 q 224 47 221 79 q 229 6 226 15 l 229 6 l 229 6 l 229 0 q 224 0 228 0 q 217 0 221 0 q 213 0 214 0 l 131 0 q 125 0 129 0 q 119 0 121 0 l 119 6 q 122 47 121 14 q 124 128 124 79 q 125 240 125 178 l 125 378 q 123 506 125 451 q 117 592 121 560 q 108 636 114 625 l 108 636 l 108 636 l 108 642 q 112 642 110 642 q 117 643 114 643 q 122 644 119 644 q 125 644 124 644 l 207 656 l 218 650 l 218 240 m 201 794 l 168 783 l -32 978 l -32 989 l 90 989 l 201 794 z "},"ĳ":{"ha":686,"x_min":71,"x_max":585,"o":"m 218 240 q 219 128 218 178 q 224 47 221 79 q 229 6 226 15 l 229 6 l 229 6 l 229 0 q 224 0 228 0 q 217 0 221 0 q 213 0 214 0 l 131 0 q 125 0 129 0 q 119 0 121 0 l 119 6 q 122 47 121 14 q 124 128 124 79 q 125 240 125 178 l 125 378 q 123 506 125 451 q 117 592 121 560 q 108 636 114 625 l 108 636 l 108 636 l 108 642 q 112 642 110 642 q 117 643 114 643 q 122 644 119 644 q 125 644 124 644 l 206 656 l 218 650 l 218 240 m 71 856 q 110 900 71 861 q 157 939 150 939 q 181 919 160 939 q 222 880 203 900 q 242 856 242 860 q 202 811 242 850 q 157 772 163 772 q 132 791 153 772 q 91 831 111 810 q 71 856 71 851 m 372 -244 q 442 -204 418 -244 q 468 -100 467 -164 l 468 378 q 466 506 468 451 q 460 592 464 560 q 451 636 457 625 l 451 636 l 451 636 l 451 642 q 455 642 453 642 q 460 643 457 643 q 465 644 463 644 q 468 644 467 644 l 550 656 l 561 650 l 561 -89 q 513 -240 560 -185 q 367 -294 467 -294 q 218 -272 285 -294 l 218 -211 q 288 -235 250 -226 q 372 -244 326 -244 m 365 -294 q 213 -272 289 -294 l 213 -183 l 224 -183 q 255 -210 239 -199 q 289 -229 271 -221 q 328 -240 307 -236 q 372 -244 349 -244 l 365 -294 m 414 856 q 453 900 414 861 q 500 939 493 939 q 524 919 503 939 q 565 880 546 900 q 585 856 585 860 q 565 831 585 851 q 524 792 546 811 q 500 772 503 772 q 475 791 496 772 q 434 831 454 810 q 414 856 414 851 z "},"ī":{"ha":343,"x_min":7,"x_max":318,"o":"m 218 240 q 219 128 218 178 q 224 47 221 79 q 229 6 226 15 l 229 6 l 229 6 l 229 0 q 224 0 228 0 q 217 0 221 0 q 213 0 214 0 l 131 0 q 125 0 129 0 q 119 0 121 0 l 119 6 q 122 47 121 14 q 124 128 124 79 q 125 240 125 178 l 125 378 q 123 506 125 451 q 117 592 121 560 q 108 636 114 625 l 108 636 l 108 636 l 108 642 q 112 642 110 642 q 117 643 114 643 q 122 644 119 644 q 125 644 124 644 l 207 656 l 218 650 l 218 240 m 7 889 l 318 889 l 318 828 l 7 828 l 7 889 z "},"į":{"ha":343,"x_min":35,"x_max":251,"o":"m 218 240 q 219 128 218 178 q 224 47 221 79 q 229 6 226 15 l 229 6 l 229 6 l 229 0 q 224 0 228 0 q 217 0 221 0 q 213 0 214 0 l 131 0 q 125 0 129 0 q 119 0 121 0 l 119 6 q 122 47 121 14 q 124 128 124 79 q 125 240 125 178 l 125 378 q 123 506 125 451 q 117 592 121 560 q 108 636 114 625 l 108 636 l 108 636 l 108 642 q 112 642 110 642 q 117 643 114 643 q 122 644 119 644 q 125 644 124 644 l 207 656 l 218 650 l 218 240 m 79 856 q 118 901 79 863 q 163 939 157 939 q 188 919 167 939 q 227 880 208 900 q 246 856 246 860 q 226 831 246 851 q 187 791 207 810 q 163 772 167 772 q 138 792 158 772 q 98 831 117 811 q 79 856 79 851 m 229 0 q 226 -5 228 -3 q 221 -8 224 -7 q 154 -87 179 -49 q 129 -172 129 -126 q 150 -218 129 -203 q 201 -233 171 -233 q 228 -230 215 -233 q 251 -222 242 -226 l 251 -239 q 201 -275 231 -261 q 140 -289 172 -289 q 64 -261 93 -289 q 35 -183 35 -233 q 88 -72 35 -128 q 207 6 142 -17 l 229 0 z "},"ĩ":{"ha":343,"x_min":-15,"x_max":342,"o":"m 218 240 q 219 128 218 178 q 224 47 221 79 q 229 6 226 15 l 229 6 l 229 6 l 229 0 q 224 0 228 0 q 217 0 221 0 q 213 0 214 0 l 131 0 q 125 0 129 0 q 119 0 121 0 l 119 6 q 122 47 121 14 q 124 128 124 79 q 125 240 125 178 l 125 378 q 123 506 125 451 q 117 592 121 560 q 108 636 114 625 l 108 636 l 108 636 l 108 642 q 112 642 110 642 q 117 643 114 643 q 122 644 119 644 q 125 644 124 644 l 207 656 l 218 650 l 218 240 m 85 972 q 158 953 133 972 q 206 900 183 933 q 228 870 218 879 q 251 861 238 861 q 292 888 279 861 q 313 967 306 915 l 340 961 q 320 835 342 881 q 240 789 299 789 q 165 808 192 789 q 118 863 139 828 q 97 891 107 882 q 74 900 88 900 q 34 874 47 900 q 13 794 21 849 l -15 800 q 6 927 -15 882 q 85 972 26 972 z "},"j":{"ha":343,"x_min":-131,"x_max":242,"o":"m 29 -244 q 99 -204 75 -244 q 125 -100 124 -164 l 125 378 q 123 506 125 451 q 117 592 121 560 q 108 636 114 625 l 108 636 l 108 636 l 108 642 q 112 642 110 642 q 117 643 114 643 q 122 644 119 644 q 125 644 124 644 l 207 656 l 218 650 l 218 -89 q 170 -240 217 -185 q 24 -294 124 -294 q -125 -272 -58 -294 l -125 -211 q -55 -235 -93 -226 q 29 -244 -17 -244 m 22 -294 q -131 -272 -54 -294 l -131 -183 l -119 -183 q -88 -210 -104 -199 q -54 -229 -72 -221 q -15 -240 -36 -236 q 29 -244 6 -244 l 22 -294 m 71 856 q 110 900 71 861 q 157 939 150 939 q 181 919 160 939 q 222 880 203 900 q 242 856 242 860 q 222 831 242 851 q 181 792 203 811 q 157 772 160 772 q 132 791 153 772 q 91 831 111 810 q 71 856 71 851 z "},"ȷ":{"ha":343,"x_min":-131,"x_max":218,"o":"m 29 -244 q 99 -206 75 -244 q 125 -106 124 -168 l 125 378 q 123 506 125 451 q 117 592 121 560 q 108 636 114 625 l 108 636 l 108 636 l 108 642 q 112 642 110 642 q 117 643 114 643 q 122 644 119 644 q 125 644 124 644 l 207 656 l 218 650 l 218 -89 q 170 -240 217 -185 q 24 -294 124 -294 q -125 -272 -58 -294 l -125 -211 q -55 -235 -93 -226 q 29 -244 -17 -244 m 22 -294 q -131 -272 -54 -294 l -131 -183 l -119 -183 q -90 -208 -106 -197 q -58 -228 -75 -219 q -18 -240 -39 -236 q 29 -244 3 -244 l 22 -294 z "},"ĵ":{"ha":343,"x_min":-131,"x_max":308,"o":"m 29 -244 q 99 -206 75 -244 q 125 -106 124 -168 l 125 378 q 123 506 125 451 q 117 592 121 560 q 108 636 114 625 l 108 636 l 108 636 l 108 642 q 112 642 110 642 q 117 643 114 643 q 122 644 119 644 q 125 644 124 644 l 207 656 l 218 650 l 218 -89 q 170 -240 217 -185 q 24 -294 124 -294 q -125 -272 -58 -294 l -125 -211 q -55 -235 -93 -226 q 29 -244 -17 -244 m 22 -294 q -131 -272 -54 -294 l -131 -183 l -119 -183 q -90 -208 -106 -197 q -58 -228 -75 -219 q -18 -240 -39 -236 q 29 -244 3 -244 l 22 -294 m 275 783 l 169 889 l 64 783 l 36 789 l 158 989 l 181 989 l 308 789 l 275 783 z "},"k":{"ha":669,"x_min":107,"x_max":651,"o":"m 353 453 q 476 574 435 525 q 515 639 518 622 l 515 639 l 515 639 l 515 644 q 517 644 515 644 q 521 644 519 644 q 522 644 522 644 l 615 644 q 622 644 617 644 q 628 644 626 644 l 628 639 q 601 600 625 626 q 541 538 579 574 q 450 458 503 501 l 193 244 l 188 306 l 353 453 m 274 361 l 339 417 l 496 218 q 606 76 567 129 q 651 6 646 22 l 651 6 l 651 6 l 651 0 q 644 0 650 0 q 633 0 639 0 q 626 0 628 0 l 554 0 l 274 361 m 217 240 q 218 128 217 178 q 222 50 219 79 q 226 6 224 21 l 226 6 l 226 6 l 226 0 q 222 0 225 0 q 215 0 218 0 q 211 0 213 0 l 129 0 q 124 0 128 0 q 118 0 119 0 l 118 6 q 121 47 119 14 q 123 128 122 79 q 124 240 124 178 l 124 744 q 122 872 124 818 q 116 959 119 926 q 107 1003 113 992 l 107 1003 l 107 1003 l 107 1008 q 110 1009 108 1008 q 115 1010 113 1010 q 120 1011 118 1011 q 124 1011 122 1011 l 206 1022 l 217 1017 l 217 240 z "},"ķ":{"ha":669,"x_min":107,"x_max":651,"o":"m 353 453 q 476 574 435 525 q 515 639 518 622 l 515 639 l 515 639 l 515 644 q 517 644 515 644 q 521 644 519 644 q 522 644 522 644 l 615 644 q 622 644 617 644 q 628 644 626 644 l 628 639 q 601 600 625 626 q 541 538 579 574 q 450 458 503 501 l 193 244 l 188 306 l 353 453 m 274 361 l 339 417 l 496 218 q 606 76 567 129 q 651 6 646 22 l 651 6 l 651 6 l 651 0 q 644 0 650 0 q 633 0 639 0 q 626 0 628 0 l 554 0 l 274 361 m 217 240 q 218 128 217 178 q 222 50 219 79 q 226 6 224 21 l 226 6 l 226 6 l 226 0 q 222 0 225 0 q 215 0 218 0 q 211 0 213 0 l 129 0 q 124 0 128 0 q 118 0 119 0 l 118 6 q 121 47 119 14 q 123 128 122 79 q 124 240 124 178 l 124 744 q 122 872 124 818 q 116 959 119 926 q 107 1003 113 992 l 107 1003 l 107 1003 l 107 1008 q 110 1009 108 1008 q 115 1010 113 1010 q 120 1011 118 1011 q 124 1011 122 1011 l 206 1022 l 217 1017 l 217 240 m 260 -344 q 276 -200 260 -321 q 299 -72 292 -79 q 353 -83 310 -72 q 404 -100 397 -93 q 378 -176 396 -124 q 340 -282 360 -229 q 310 -361 321 -335 q 283 -356 299 -361 q 260 -344 267 -351 z "},"ĸ":{"ha":667,"x_min":108,"x_max":649,"o":"m 354 453 q 474 574 435 525 q 507 639 513 622 l 507 639 l 507 639 l 507 644 q 513 644 508 644 q 522 644 518 644 q 528 644 526 644 l 617 644 q 623 644 618 644 q 629 644 628 644 l 629 639 q 606 603 628 629 q 544 540 583 576 q 451 458 504 503 l 194 244 l 188 306 l 354 453 m 274 361 l 340 417 l 497 218 q 606 76 568 129 q 649 6 644 22 l 649 6 l 649 6 l 649 0 q 643 0 647 0 q 635 0 639 0 q 631 0 632 0 l 556 0 l 274 361 m 218 240 q 219 128 218 178 q 224 47 221 79 q 229 6 226 15 l 229 6 l 229 6 l 229 0 q 224 0 228 0 q 217 0 221 0 q 213 0 214 0 l 131 0 q 125 0 129 0 q 119 0 121 0 l 119 6 q 122 47 121 14 q 124 128 124 79 q 125 240 125 178 l 125 378 q 123 506 125 451 q 117 592 121 560 q 108 636 114 625 l 108 636 l 108 636 l 108 642 q 112 642 110 642 q 117 643 114 643 q 122 644 119 644 q 125 644 124 644 l 207 656 l 218 650 l 218 240 z "},"l":{"ha":340,"x_min":107,"x_max":226,"o":"m 217 240 q 218 128 217 178 q 222 50 219 79 q 226 6 224 21 l 226 6 l 226 6 l 226 0 q 222 0 225 0 q 215 0 218 0 q 211 0 213 0 l 129 0 q 124 0 128 0 q 118 0 119 0 l 118 6 q 121 47 119 14 q 123 128 122 79 q 124 240 124 178 l 124 744 q 122 872 124 818 q 116 959 119 926 q 107 1003 113 992 l 107 1003 l 107 1003 l 107 1008 q 110 1009 108 1008 q 115 1010 113 1010 q 120 1011 118 1011 q 124 1011 122 1011 l 206 1022 l 217 1017 l 217 240 z "},"ĺ":{"ha":340,"x_min":107,"x_max":382,"o":"m 217 240 q 218 128 217 178 q 222 50 219 79 q 226 6 224 21 l 226 6 l 226 6 l 226 0 q 222 0 225 0 q 215 0 218 0 q 211 0 213 0 l 129 0 q 124 0 128 0 q 118 0 119 0 l 118 6 q 121 47 119 14 q 123 128 122 79 q 124 240 124 178 l 124 744 q 122 872 124 818 q 116 959 119 926 q 107 1003 113 992 l 107 1003 l 107 1003 l 107 1008 q 110 1009 108 1008 q 115 1010 113 1010 q 120 1011 118 1011 q 124 1011 122 1011 l 206 1022 l 217 1017 l 217 240 m 126 1111 l 249 1306 l 382 1306 l 382 1294 l 163 1100 l 126 1111 z "},"ľ":{"ha":340,"x_min":107,"x_max":418,"o":"m 217 240 q 218 128 217 178 q 222 50 219 79 q 226 6 224 21 l 226 6 l 226 6 l 226 0 q 222 0 225 0 q 215 0 218 0 q 211 0 213 0 l 129 0 q 124 0 128 0 q 118 0 119 0 l 118 6 q 121 47 119 14 q 123 128 122 79 q 124 240 124 178 l 124 744 q 122 872 124 818 q 116 959 119 926 q 107 1003 113 992 l 107 1003 l 107 1003 l 107 1008 q 110 1009 108 1008 q 115 1010 113 1010 q 120 1011 118 1011 q 124 1011 122 1011 l 206 1022 l 217 1017 l 217 240 m 274 767 q 290 911 274 790 q 313 1039 306 1032 q 367 1028 324 1039 q 418 1011 411 1018 q 392 935 410 988 q 354 829 374 882 q 324 750 335 776 q 297 755 314 750 q 274 767 281 760 z "},"ļ":{"ha":340,"x_min":96,"x_max":240,"o":"m 217 240 q 218 128 217 178 q 222 50 219 79 q 226 6 224 21 l 226 6 l 226 6 l 226 0 q 222 0 225 0 q 215 0 218 0 q 211 0 213 0 l 129 0 q 124 0 128 0 q 118 0 119 0 l 118 6 q 121 47 119 14 q 123 128 122 79 q 124 240 124 178 l 124 744 q 122 872 124 818 q 116 959 119 926 q 107 1003 113 992 l 107 1003 l 107 1003 l 107 1008 q 110 1009 108 1008 q 115 1010 113 1010 q 120 1011 118 1011 q 124 1011 122 1011 l 206 1022 l 217 1017 l 217 240 m 96 -344 q 112 -200 96 -321 q 135 -72 128 -79 q 190 -83 146 -72 q 240 -100 233 -93 q 214 -176 232 -124 q 176 -282 196 -229 q 146 -361 157 -335 q 119 -356 136 -361 q 96 -344 103 -351 z "},"ŀ":{"ha":307,"x_min":107,"x_max":457,"o":"m 217 240 q 218 128 217 178 q 222 50 219 79 q 226 6 224 21 l 226 6 l 226 6 l 226 0 q 222 0 225 0 q 215 0 218 0 q 211 0 213 0 l 129 0 q 124 0 128 0 q 118 0 119 0 l 118 6 q 121 47 119 14 q 123 128 122 79 q 124 240 124 178 l 124 744 q 122 872 124 818 q 116 959 119 926 q 107 1003 113 992 l 107 1003 l 107 1003 l 107 1008 q 110 1009 108 1008 q 115 1010 113 1010 q 120 1011 118 1011 q 124 1011 122 1011 l 206 1022 l 217 1017 l 217 240 m 290 533 q 329 578 290 540 q 374 617 368 617 q 399 597 378 617 q 438 558 419 578 q 457 533 457 538 q 419 489 457 528 q 374 450 381 450 q 349 469 369 450 q 309 509 328 489 q 290 533 290 529 z "},"ł":{"ha":340,"x_min":7,"x_max":340,"o":"m 217 240 q 218 128 217 178 q 222 50 219 79 q 226 6 224 21 l 226 6 l 226 6 l 226 0 q 222 0 225 0 q 215 0 218 0 q 211 0 213 0 l 129 0 q 124 0 128 0 q 118 0 119 0 l 118 6 q 121 47 119 14 q 123 128 122 79 q 124 240 124 178 l 124 744 q 122 872 124 818 q 116 959 119 926 q 107 1003 113 992 l 107 1003 l 107 1003 l 107 1008 q 110 1009 108 1008 q 115 1010 113 1010 q 120 1011 118 1011 q 124 1011 122 1011 l 206 1022 l 217 1017 l 217 240 m 13 367 l 7 372 l 7 444 l 335 744 l 340 739 l 340 667 l 13 367 z "},"m":{"ha":1208,"x_min":107,"x_max":1113,"o":"m 567 433 q 530 540 567 501 q 429 578 493 578 q 283 543 350 578 q 193 467 217 508 l 181 472 q 232 553 194 510 q 328 629 269 597 q 458 661 386 661 q 606 603 551 661 q 660 439 660 544 l 660 240 q 661 128 660 178 q 665 47 663 79 q 671 6 668 15 l 671 6 l 671 6 l 671 0 q 666 0 669 0 q 659 0 663 0 q 654 0 656 0 l 572 0 q 567 0 571 0 q 561 0 563 0 l 561 6 q 564 47 563 14 q 566 128 565 79 q 567 240 567 178 l 567 433 m 217 240 q 218 128 217 178 q 222 47 219 79 q 228 6 225 15 l 228 6 l 228 6 l 228 0 q 223 0 226 0 q 216 0 219 0 q 211 0 213 0 l 129 0 q 124 0 128 0 q 118 0 119 0 l 118 6 q 121 47 119 14 q 123 128 122 79 q 124 240 124 178 l 124 372 q 122 500 124 446 q 116 587 119 554 q 107 631 113 619 l 107 631 l 107 631 l 107 636 q 110 637 108 636 q 115 638 113 638 q 120 639 118 639 q 124 639 122 639 l 206 650 l 217 644 l 217 240 m 1008 433 q 972 540 1008 501 q 872 578 935 578 q 727 544 793 578 q 636 467 661 510 l 618 467 q 669 553 632 508 q 767 630 707 599 q 900 661 826 661 q 1049 603 994 661 q 1103 439 1103 544 l 1103 240 q 1104 128 1103 178 q 1108 50 1106 79 q 1113 6 1110 21 l 1113 6 l 1113 6 l 1113 0 q 1108 0 1111 0 q 1101 0 1104 0 q 1097 0 1099 0 l 1014 0 q 1008 0 1013 0 q 1003 0 1004 0 l 1003 6 q 1006 47 1004 14 q 1008 128 1007 79 q 1008 240 1008 178 l 1008 433 z "},"n":{"ha":765,"x_min":107,"x_max":669,"o":"m 567 433 q 530 540 567 501 q 429 578 493 578 q 283 543 350 578 q 193 467 217 508 l 182 472 q 233 553 196 510 q 328 629 269 597 q 458 661 386 661 q 606 603 551 661 q 660 439 660 544 l 660 240 q 661 128 660 178 q 665 50 663 79 q 669 6 667 21 l 669 6 l 669 6 l 669 0 q 665 0 668 0 q 658 0 661 0 q 654 0 656 0 l 572 0 q 567 0 571 0 q 561 0 563 0 l 561 6 q 564 47 563 14 q 566 128 565 79 q 567 240 567 178 l 567 433 m 217 240 q 218 128 217 178 q 222 47 219 79 q 228 6 225 15 l 228 6 l 228 6 l 228 0 q 223 0 226 0 q 216 0 219 0 q 211 0 213 0 l 129 0 q 124 0 128 0 q 118 0 119 0 l 118 6 q 121 47 119 14 q 123 128 122 79 q 124 240 124 178 l 124 372 q 122 500 124 446 q 116 587 119 554 q 107 631 113 619 l 107 631 l 107 631 l 107 636 q 110 637 108 636 q 115 638 113 638 q 120 639 118 639 q 124 639 122 639 l 206 650 l 217 644 l 217 240 z "},"ń":{"ha":765,"x_min":107,"x_max":669,"o":"m 567 433 q 530 540 567 501 q 429 578 493 578 q 283 543 350 578 q 193 467 217 508 l 182 472 q 233 553 196 510 q 328 629 269 597 q 458 661 386 661 q 606 603 551 661 q 660 439 660 544 l 660 240 q 661 128 660 178 q 665 50 663 79 q 669 6 667 21 l 669 6 l 669 6 l 669 0 q 665 0 668 0 q 658 0 661 0 q 654 0 656 0 l 572 0 q 567 0 571 0 q 561 0 563 0 l 561 6 q 564 47 563 14 q 566 128 565 79 q 567 240 567 178 l 567 433 m 217 240 q 218 128 217 178 q 222 47 219 79 q 228 6 225 15 l 228 6 l 228 6 l 228 0 q 223 0 226 0 q 216 0 219 0 q 211 0 213 0 l 129 0 q 124 0 128 0 q 118 0 119 0 l 118 6 q 121 47 119 14 q 123 128 122 79 q 124 240 124 178 l 124 372 q 122 500 124 446 q 116 587 119 554 q 107 631 113 619 l 107 631 l 107 631 l 107 636 q 110 637 108 636 q 115 638 113 638 q 120 639 118 639 q 124 639 122 639 l 206 650 l 217 644 l 217 240 m 347 794 l 458 989 l 581 989 l 581 978 l 381 783 l 347 794 z "},"ň":{"ha":765,"x_min":107,"x_max":669,"o":"m 567 433 q 530 540 567 501 q 429 578 493 578 q 283 543 350 578 q 193 467 217 508 l 182 472 q 233 553 196 510 q 328 629 269 597 q 458 661 386 661 q 606 603 551 661 q 660 439 660 544 l 660 240 q 661 128 660 178 q 665 50 663 79 q 669 6 667 21 l 669 6 l 669 6 l 669 0 q 665 0 668 0 q 658 0 661 0 q 654 0 656 0 l 572 0 q 567 0 571 0 q 561 0 563 0 l 561 6 q 564 47 563 14 q 566 128 565 79 q 567 240 567 178 l 567 433 m 217 240 q 218 128 217 178 q 222 47 219 79 q 228 6 225 15 l 228 6 l 228 6 l 228 0 q 223 0 226 0 q 216 0 219 0 q 211 0 213 0 l 129 0 q 124 0 128 0 q 118 0 119 0 l 118 6 q 121 47 119 14 q 123 128 122 79 q 124 240 124 178 l 124 372 q 122 500 124 446 q 116 587 119 554 q 107 631 113 619 l 107 631 l 107 631 l 107 636 q 110 637 108 636 q 115 638 113 638 q 120 639 118 639 q 124 639 122 639 l 206 650 l 217 644 l 217 240 m 486 989 l 519 983 l 392 783 l 369 783 l 247 983 l 275 989 l 381 883 l 486 989 z "},"ņ":{"ha":765,"x_min":107,"x_max":669,"o":"m 567 433 q 530 540 567 501 q 429 578 493 578 q 283 543 350 578 q 193 467 217 508 l 182 472 q 233 553 196 510 q 328 629 269 597 q 458 661 386 661 q 606 603 551 661 q 660 439 660 544 l 660 240 q 661 128 660 178 q 665 50 663 79 q 669 6 667 21 l 669 6 l 669 6 l 669 0 q 665 0 668 0 q 658 0 661 0 q 654 0 656 0 l 572 0 q 567 0 571 0 q 561 0 563 0 l 561 6 q 564 47 563 14 q 566 128 565 79 q 567 240 567 178 l 567 433 m 217 240 q 218 128 217 178 q 222 47 219 79 q 228 6 225 15 l 228 6 l 228 6 l 228 0 q 223 0 226 0 q 216 0 219 0 q 211 0 213 0 l 129 0 q 124 0 128 0 q 118 0 119 0 l 118 6 q 121 47 119 14 q 123 128 122 79 q 124 240 124 178 l 124 372 q 122 500 124 446 q 116 587 119 554 q 107 631 113 619 l 107 631 l 107 631 l 107 636 q 110 637 108 636 q 115 638 113 638 q 120 639 118 639 q 124 639 122 639 l 206 650 l 217 644 l 217 240 m 314 -344 q 330 -200 314 -321 q 353 -72 346 -79 q 408 -83 364 -72 q 458 -100 451 -93 q 432 -176 450 -124 q 394 -282 414 -229 q 364 -361 375 -335 q 338 -356 354 -361 q 314 -344 321 -351 z "},"ŋ":{"ha":785,"x_min":107,"x_max":660,"o":"m 567 433 q 530 540 567 503 q 429 578 493 578 q 285 544 350 578 q 193 467 219 510 l 182 472 q 231 554 193 510 q 328 630 269 599 q 458 661 388 661 q 606 603 551 661 q 660 439 660 546 l 660 0 l 567 0 l 567 433 m 217 240 q 218 128 217 178 q 222 47 219 79 q 228 6 225 15 l 228 6 l 228 6 l 228 0 q 223 0 226 0 q 216 0 219 0 q 211 0 213 0 l 129 0 q 124 0 128 0 q 118 0 119 0 l 118 6 q 121 47 119 14 q 123 128 122 79 q 124 240 124 178 l 124 372 q 122 500 124 446 q 116 587 119 554 q 107 631 113 619 l 107 631 l 107 631 l 107 636 q 110 637 108 636 q 115 638 113 638 q 120 639 118 639 q 124 639 122 639 l 206 650 l 217 644 l 217 240 m 471 -250 q 542 -210 518 -250 q 567 -106 567 -171 l 567 0 l 649 0 l 660 0 l 660 -89 q 613 -240 660 -186 q 465 -294 567 -294 q 381 -288 421 -294 q 317 -272 340 -282 l 317 -217 q 388 -240 349 -231 q 471 -250 426 -250 m 464 -294 q 311 -272 388 -294 l 311 -183 l 322 -183 q 376 -225 350 -211 q 471 -244 418 -244 l 464 -294 z "},"ñ":{"ha":765,"x_min":107,"x_max":669,"o":"m 567 433 q 530 540 567 501 q 429 578 493 578 q 283 543 350 578 q 193 467 217 508 l 182 472 q 233 553 196 510 q 328 629 269 597 q 458 661 386 661 q 606 603 551 661 q 660 439 660 544 l 660 240 q 661 128 660 178 q 665 50 663 79 q 669 6 667 21 l 669 6 l 669 6 l 669 0 q 665 0 668 0 q 658 0 661 0 q 654 0 656 0 l 572 0 q 567 0 571 0 q 561 0 563 0 l 561 6 q 564 47 563 14 q 566 128 565 79 q 567 240 567 178 l 567 433 m 217 240 q 218 128 217 178 q 222 47 219 79 q 228 6 225 15 l 228 6 l 228 6 l 228 0 q 223 0 226 0 q 216 0 219 0 q 211 0 213 0 l 129 0 q 124 0 128 0 q 118 0 119 0 l 118 6 q 121 47 119 14 q 123 128 122 79 q 124 240 124 178 l 124 372 q 122 500 124 446 q 116 587 119 554 q 107 631 113 619 l 107 631 l 107 631 l 107 636 q 110 637 108 636 q 115 638 113 638 q 120 639 118 639 q 124 639 122 639 l 206 650 l 217 644 l 217 240 m 308 972 q 382 953 357 972 q 429 900 407 933 q 451 870 442 879 q 475 861 461 861 q 516 888 503 861 q 536 967 529 915 l 564 961 q 544 835 565 881 q 464 789 522 789 q 389 808 415 789 q 342 863 363 828 q 321 891 331 882 q 297 900 311 900 q 258 874 271 900 q 236 794 244 849 l 208 800 q 229 927 208 882 q 308 972 250 972 z "},"o":{"ha":781,"x_min":63,"x_max":718,"o":"m 385 -17 q 219 26 292 -17 q 104 145 146 68 q 63 322 63 222 q 106 496 63 418 q 225 617 149 574 q 396 661 301 661 q 562 619 489 661 q 676 500 635 576 q 718 322 718 424 q 675 148 718 225 q 556 27 632 71 q 385 -17 481 -17 m 401 39 q 559 111 500 39 q 618 294 618 183 q 585 451 618 379 q 497 564 553 522 q 378 606 442 606 q 220 533 279 606 q 161 350 161 461 q 193 195 161 267 q 281 81 225 124 q 401 39 336 39 z "},"ó":{"ha":781,"x_min":63,"x_max":718,"o":"m 385 -17 q 219 26 292 -17 q 104 145 146 68 q 63 322 63 222 q 106 496 63 418 q 225 617 149 574 q 396 661 301 661 q 562 619 489 661 q 676 500 635 576 q 718 322 718 424 q 675 148 718 225 q 556 27 632 71 q 385 -17 481 -17 m 401 39 q 559 111 500 39 q 618 294 618 183 q 585 451 618 379 q 497 564 553 522 q 378 606 442 606 q 220 533 279 606 q 161 350 161 461 q 193 195 161 267 q 281 81 225 124 q 401 39 336 39 m 351 794 l 463 989 l 585 989 l 585 978 l 385 783 l 351 794 z "},"ŏ":{"ha":781,"x_min":63,"x_max":718,"o":"m 385 -17 q 219 26 292 -17 q 104 145 146 68 q 63 322 63 222 q 106 496 63 418 q 225 617 149 574 q 396 661 301 661 q 562 619 489 661 q 676 500 635 576 q 718 322 718 424 q 675 148 718 225 q 556 27 632 71 q 385 -17 481 -17 m 401 39 q 559 111 500 39 q 618 294 618 183 q 585 451 618 379 q 497 564 553 522 q 378 606 442 606 q 220 533 279 606 q 161 350 161 461 q 193 195 161 267 q 281 81 225 124 q 401 39 336 39 m 529 983 q 490 838 525 892 q 390 783 456 783 q 290 838 325 783 q 251 983 256 892 l 279 989 q 319 903 293 933 q 390 872 346 872 q 461 903 435 872 q 501 989 488 933 l 529 983 z "},"ô":{"ha":781,"x_min":63,"x_max":718,"o":"m 385 -17 q 219 26 292 -17 q 104 145 146 68 q 63 322 63 222 q 106 496 63 418 q 225 617 149 574 q 396 661 301 661 q 562 619 489 661 q 676 500 635 576 q 718 322 718 424 q 675 148 718 225 q 556 27 632 71 q 385 -17 481 -17 m 401 39 q 559 111 500 39 q 618 294 618 183 q 585 451 618 379 q 497 564 553 522 q 378 606 442 606 q 220 533 279 606 q 161 350 161 461 q 193 195 161 267 q 281 81 225 124 q 401 39 336 39 m 490 783 l 385 889 l 279 783 l 251 789 l 374 989 l 396 989 l 524 789 l 490 783 z "},"ö":{"ha":781,"x_min":63,"x_max":718,"o":"m 385 -17 q 219 26 292 -17 q 104 145 146 68 q 63 322 63 222 q 106 496 63 418 q 225 617 149 574 q 396 661 301 661 q 562 619 489 661 q 676 500 635 576 q 718 322 718 424 q 675 148 718 225 q 556 27 632 71 q 385 -17 481 -17 m 401 39 q 559 111 500 39 q 618 294 618 183 q 585 451 618 379 q 497 564 553 522 q 378 606 442 606 q 220 533 279 606 q 161 350 161 461 q 193 195 161 267 q 281 81 225 124 q 401 39 336 39 m 213 856 q 250 901 213 864 q 290 939 288 939 q 333 901 299 939 q 368 856 368 864 q 333 815 368 853 q 290 778 297 778 q 251 816 289 778 q 213 856 213 854 m 413 856 q 447 901 413 864 q 485 939 482 939 q 531 901 493 939 q 568 856 568 864 q 530 815 568 853 q 485 778 492 778 q 448 815 483 778 q 413 856 413 853 z "},"ò":{"ha":781,"x_min":63,"x_max":718,"o":"m 385 -17 q 219 26 292 -17 q 104 145 146 68 q 63 322 63 222 q 106 496 63 418 q 225 617 149 574 q 396 661 301 661 q 562 619 489 661 q 676 500 635 576 q 718 322 718 424 q 675 148 718 225 q 556 27 632 71 q 385 -17 481 -17 m 401 39 q 559 111 500 39 q 618 294 618 183 q 585 451 618 379 q 497 564 553 522 q 378 606 442 606 q 220 533 279 606 q 161 350 161 461 q 193 195 161 267 q 281 81 225 124 q 401 39 336 39 m 429 794 l 396 783 l 196 978 l 196 989 l 318 989 l 429 794 z "},"ő":{"ha":781,"x_min":63,"x_max":718,"o":"m 385 -17 q 219 26 292 -17 q 104 145 146 68 q 63 322 63 222 q 106 496 63 418 q 225 617 149 574 q 396 661 301 661 q 562 619 489 661 q 676 500 635 576 q 718 322 718 424 q 675 148 718 225 q 556 27 632 71 q 385 -17 481 -17 m 401 39 q 559 111 500 39 q 618 294 618 183 q 585 451 618 379 q 497 564 553 522 q 378 606 442 606 q 220 533 279 606 q 161 350 161 461 q 193 195 161 267 q 281 81 225 124 q 401 39 336 39 m 263 794 l 340 989 l 457 989 l 457 978 l 285 783 l 263 794 m 463 794 l 568 989 l 685 989 l 685 978 l 485 783 l 463 794 z "},"ō":{"ha":781,"x_min":63,"x_max":718,"o":"m 385 -17 q 219 26 292 -17 q 104 145 146 68 q 63 322 63 222 q 106 496 63 418 q 225 617 149 574 q 396 661 301 661 q 562 619 489 661 q 676 500 635 576 q 718 322 718 424 q 675 148 718 225 q 556 27 632 71 q 385 -17 481 -17 m 401 39 q 559 111 500 39 q 618 294 618 183 q 585 451 618 379 q 497 564 553 522 q 378 606 442 606 q 220 533 279 606 q 161 350 161 461 q 193 195 161 267 q 281 81 225 124 q 401 39 336 39 m 235 889 l 546 889 l 546 828 l 235 828 l 235 889 z "},"ø":{"ha":781,"x_min":63,"x_max":718,"o":"m 131 0 l 63 0 l 650 644 l 718 644 l 131 0 m 385 -17 q 219 26 292 -17 q 104 145 146 68 q 63 322 63 222 q 106 496 63 418 q 225 617 149 574 q 396 661 301 661 q 562 619 489 661 q 676 500 635 576 q 718 322 718 424 q 675 148 718 225 q 556 27 632 71 q 385 -17 481 -17 m 401 39 q 559 111 500 39 q 618 294 618 183 q 585 451 618 379 q 497 564 553 522 q 378 606 442 606 q 220 533 279 606 q 161 350 161 461 q 193 195 161 267 q 281 81 225 124 q 401 39 336 39 z "},"ǿ":{"ha":781,"x_min":63,"x_max":718,"o":"m 131 0 l 63 0 l 650 644 l 718 644 l 131 0 m 385 -17 q 219 26 292 -17 q 104 145 146 68 q 63 322 63 222 q 106 496 63 418 q 225 617 149 574 q 396 661 301 661 q 562 619 489 661 q 676 500 635 576 q 718 322 718 424 q 675 148 718 225 q 556 27 632 71 q 385 -17 481 -17 m 401 39 q 559 111 500 39 q 618 294 618 183 q 585 451 618 379 q 497 564 553 522 q 378 606 442 606 q 220 533 279 606 q 161 350 161 461 q 193 195 161 267 q 281 81 225 124 q 401 39 336 39 m 351 794 l 463 989 l 585 989 l 585 978 l 385 783 l 351 794 z "},"õ":{"ha":781,"x_min":63,"x_max":718,"o":"m 385 -17 q 219 26 292 -17 q 104 145 146 68 q 63 322 63 222 q 106 496 63 418 q 225 617 149 574 q 396 661 301 661 q 562 619 489 661 q 676 500 635 576 q 718 322 718 424 q 675 148 718 225 q 556 27 632 71 q 385 -17 481 -17 m 401 39 q 559 111 500 39 q 618 294 618 183 q 585 451 618 379 q 497 564 553 522 q 378 606 442 606 q 220 533 279 606 q 161 350 161 461 q 193 195 161 267 q 281 81 225 124 q 401 39 336 39 m 313 972 q 386 953 361 972 q 433 900 411 933 q 456 870 446 879 q 479 861 465 861 q 520 888 507 861 q 540 967 533 915 l 568 961 q 548 835 569 881 q 468 789 526 789 q 393 808 419 789 q 346 863 367 828 q 325 891 335 882 q 301 900 315 900 q 262 874 275 900 q 240 794 249 849 l 213 800 q 233 927 213 882 q 313 972 254 972 z "},"œ":{"ha":1186,"x_min":63,"x_max":1156,"o":"m 376 -17 q 215 26 286 -17 q 103 144 143 68 q 63 322 63 221 q 105 496 63 418 q 222 617 147 574 q 389 661 296 661 q 542 617 474 661 q 651 495 611 574 q 690 317 690 417 q 650 145 690 221 q 538 26 610 69 q 376 -17 467 -17 m 393 39 q 544 111 488 39 q 601 294 601 183 q 569 449 601 378 q 484 563 538 521 q 369 606 431 606 q 218 533 275 606 q 161 350 161 460 q 193 198 161 269 q 278 83 225 126 q 393 39 332 39 m 1140 367 l 651 367 l 651 422 l 1075 422 l 1042 383 q 1040 490 1054 436 q 988 577 1025 543 q 897 611 950 611 q 749 531 803 611 q 694 322 694 451 q 722 184 694 244 q 801 90 750 124 q 917 56 851 56 q 1042 79 979 56 q 1135 161 1104 103 l 1146 156 q 1096 65 1132 104 q 1008 4 1060 25 q 896 -17 956 -17 q 744 24 810 -17 q 642 142 678 65 q 606 322 606 219 q 648 497 606 419 q 763 617 690 574 q 921 661 835 661 q 1059 619 1004 661 q 1135 510 1114 578 q 1140 367 1156 443 z "},"p":{"ha":803,"x_min":107,"x_max":740,"o":"m 214 -11 q 216 -137 214 -81 q 221 -227 218 -193 q 228 -272 224 -261 l 228 -272 l 228 -272 l 228 -278 q 222 -278 226 -278 q 213 -278 217 -278 q 207 -278 208 -278 l 126 -278 q 121 -278 125 -278 q 115 -278 117 -278 l 115 -272 q 118 -231 117 -264 q 120 -149 119 -199 q 121 -37 121 -100 l 121 378 q 119 503 121 447 q 114 593 117 560 q 107 638 111 626 l 107 638 l 107 638 l 107 643 q 110 643 108 643 q 115 644 113 643 q 120 644 118 644 q 124 644 122 644 l 203 650 l 214 644 l 214 -11 m 451 661 q 604 620 539 661 q 705 504 669 579 q 740 328 740 429 q 697 152 740 231 q 572 28 653 74 q 388 -17 492 -17 q 281 -1 336 -17 q 185 39 225 14 l 196 411 q 224 538 193 481 q 314 628 254 594 q 451 661 374 661 m 418 600 q 319 575 367 600 q 243 502 272 550 q 214 389 214 454 l 197 156 q 288 64 233 94 q 400 33 343 33 q 578 108 515 33 q 642 300 642 183 q 614 452 642 383 q 535 560 586 521 q 418 600 485 600 z "},"þ":{"ha":801,"x_min":107,"x_max":743,"o":"m 217 -11 q 219 -137 217 -81 q 224 -227 221 -193 q 231 -272 226 -261 l 231 -272 l 231 -272 l 231 -278 q 224 -278 229 -278 q 215 -278 219 -278 q 210 -278 211 -278 l 129 -278 q 124 -278 128 -278 q 118 -278 119 -278 l 118 -272 q 121 -231 119 -264 q 123 -149 122 -199 q 124 -37 124 -100 l 124 644 l 217 644 l 217 -11 m 454 661 q 607 621 542 661 q 708 505 672 581 q 743 328 743 429 q 700 152 743 231 q 576 28 657 74 q 390 -17 496 -17 q 283 -1 338 -17 q 188 39 228 14 l 199 411 q 227 538 196 481 q 317 628 258 594 q 454 661 376 661 m 421 600 q 322 576 368 600 q 246 503 275 551 q 217 389 217 456 l 200 156 q 292 65 238 96 q 403 33 347 33 q 581 108 517 33 q 644 300 644 183 q 617 452 644 383 q 538 560 589 521 q 421 600 488 600 m 217 1017 l 217 0 l 124 0 l 124 744 q 122 872 124 818 q 116 959 119 926 q 107 1003 113 992 l 107 1003 l 107 1003 l 107 1008 q 110 1009 108 1008 q 115 1010 113 1010 q 120 1011 118 1011 q 124 1011 122 1011 l 206 1022 l 217 1017 z "},"q":{"ha":803,"x_min":63,"x_max":690,"o":"m 596 -278 q 589 -278 593 -278 q 582 -278 585 -278 l 582 -272 q 586 -231 585 -264 q 588 -149 588 -199 q 589 -37 589 -100 l 589 589 l 671 650 l 682 644 l 682 -11 q 683 -135 682 -81 q 686 -223 685 -190 q 690 -272 688 -256 l 690 -272 l 690 -272 l 690 -278 q 686 -278 689 -278 q 681 -278 683 -278 q 678 -278 679 -278 l 596 -278 m 364 -17 q 208 24 276 -17 q 101 141 140 65 q 63 317 63 217 q 106 492 63 414 q 231 616 150 571 q 415 661 311 661 q 518 646 465 661 q 611 606 571 631 l 607 233 q 581 107 610 164 q 496 17 553 50 q 364 -17 439 -17 m 397 44 q 490 69 446 44 q 561 142 533 94 q 589 256 589 190 l 607 489 q 516 581 571 550 q 403 611 461 611 q 224 536 288 611 q 161 344 161 461 q 192 193 161 261 q 276 85 222 125 q 397 44 331 44 z "},"r":{"ha":451,"x_min":107,"x_max":435,"o":"m 217 240 q 219 127 217 178 q 224 46 221 76 q 231 6 226 15 l 231 6 l 231 6 l 231 0 q 224 0 229 0 q 215 0 219 0 q 210 0 211 0 l 129 0 q 124 0 128 0 q 118 0 119 0 l 118 6 q 121 47 119 14 q 123 128 122 79 q 124 240 124 178 l 124 378 q 122 506 124 451 q 116 592 119 560 q 107 636 113 625 l 107 636 l 107 636 l 107 642 q 110 642 108 642 q 115 643 113 643 q 120 644 118 644 q 124 644 122 644 l 206 656 l 217 650 l 217 240 m 424 556 q 405 560 414 560 q 392 561 396 561 q 267 532 324 561 q 193 467 210 503 l 188 472 q 224 549 196 504 q 297 627 253 593 q 393 661 340 661 q 435 656 411 661 l 424 556 z "},"ŕ":{"ha":451,"x_min":107,"x_max":435,"o":"m 217 240 q 219 127 217 178 q 224 46 221 76 q 231 6 226 15 l 231 6 l 231 6 l 231 0 q 224 0 229 0 q 215 0 219 0 q 210 0 211 0 l 129 0 q 124 0 128 0 q 118 0 119 0 l 118 6 q 121 47 119 14 q 123 128 122 79 q 124 240 124 178 l 124 378 q 122 506 124 451 q 116 592 119 560 q 107 636 113 625 l 107 636 l 107 636 l 107 642 q 110 642 108 642 q 115 643 113 643 q 120 644 118 644 q 124 644 122 644 l 206 656 l 217 650 l 217 240 m 424 556 q 405 560 414 560 q 392 561 396 561 q 267 532 324 561 q 193 467 210 503 l 188 472 q 224 549 196 504 q 297 627 253 593 q 393 661 340 661 q 435 656 411 661 l 424 556 m 193 794 l 304 989 l 426 989 l 426 978 l 226 783 l 193 794 z "},"ř":{"ha":451,"x_min":93,"x_max":435,"o":"m 217 240 q 219 127 217 178 q 224 46 221 76 q 231 6 226 15 l 231 6 l 231 6 l 231 0 q 224 0 229 0 q 215 0 219 0 q 210 0 211 0 l 129 0 q 124 0 128 0 q 118 0 119 0 l 118 6 q 121 47 119 14 q 123 128 122 79 q 124 240 124 178 l 124 378 q 122 506 124 451 q 116 592 119 560 q 107 636 113 625 l 107 636 l 107 636 l 107 642 q 110 642 108 642 q 115 643 113 643 q 120 644 118 644 q 124 644 122 644 l 206 656 l 217 650 l 217 240 m 424 556 q 405 560 414 560 q 392 561 396 561 q 267 532 324 561 q 193 467 210 503 l 188 472 q 224 549 196 504 q 297 627 253 593 q 393 661 340 661 q 435 656 411 661 l 424 556 m 332 989 l 365 983 l 238 783 l 215 783 l 93 983 l 121 989 l 226 883 l 332 989 z "},"ŗ":{"ha":451,"x_min":107,"x_max":435,"o":"m 217 240 q 219 127 217 178 q 224 46 221 76 q 231 6 226 15 l 231 6 l 231 6 l 231 0 q 224 0 229 0 q 215 0 219 0 q 210 0 211 0 l 129 0 q 124 0 128 0 q 118 0 119 0 l 118 6 q 121 47 119 14 q 123 128 122 79 q 124 240 124 178 l 124 378 q 122 506 124 451 q 116 592 119 560 q 107 636 113 625 l 107 636 l 107 636 l 107 642 q 110 642 108 642 q 115 643 113 643 q 120 644 118 644 q 124 644 122 644 l 206 656 l 217 650 l 217 240 m 424 556 q 405 560 414 560 q 392 561 396 561 q 267 532 324 561 q 193 467 210 503 l 188 472 q 224 549 196 504 q 297 627 253 593 q 393 661 340 661 q 435 656 411 661 l 424 556 m 160 -344 q 176 -200 160 -321 q 199 -72 192 -79 q 253 -83 210 -72 q 304 -100 297 -93 q 278 -176 296 -124 q 240 -282 260 -229 q 210 -361 221 -335 q 183 -356 200 -361 q 160 -344 167 -351 z "},"s":{"ha":500,"x_min":53,"x_max":450,"o":"m 219 -17 q 128 -10 168 -17 q 53 6 89 -4 l 53 94 l 67 94 q 116 58 90 71 q 171 39 142 44 q 203 35 186 36 q 238 33 219 33 q 331 67 296 33 q 367 156 367 101 q 349 223 367 197 q 303 264 331 249 q 231 297 276 279 q 141 339 175 319 q 83 397 107 358 q 60 500 60 436 q 110 619 60 578 q 264 661 160 661 q 348 655 313 661 q 419 639 383 649 l 419 550 l 408 550 q 387 569 399 560 q 364 585 375 579 q 316 604 342 597 q 258 611 290 611 q 173 583 204 611 q 142 511 142 556 q 160 449 142 474 q 203 410 178 425 q 276 378 229 396 q 367 336 332 357 q 426 277 401 315 q 450 178 450 239 q 390 35 450 86 q 219 -17 329 -17 z "},"ś":{"ha":500,"x_min":53,"x_max":450,"o":"m 219 -17 q 128 -10 168 -17 q 53 6 89 -4 l 53 94 l 67 94 q 116 58 90 71 q 171 39 142 44 q 203 35 186 36 q 238 33 219 33 q 331 67 296 33 q 367 156 367 101 q 349 223 367 197 q 303 264 331 249 q 231 297 276 279 q 141 339 175 319 q 83 397 107 358 q 60 500 60 436 q 110 619 60 578 q 264 661 160 661 q 348 655 313 661 q 419 639 383 649 l 419 550 l 408 550 q 387 569 399 560 q 364 585 375 579 q 316 604 342 597 q 258 611 290 611 q 173 583 204 611 q 142 511 142 556 q 160 449 142 474 q 203 410 178 425 q 276 378 229 396 q 367 336 332 357 q 426 277 401 315 q 450 178 450 239 q 390 35 450 86 q 219 -17 329 -17 m 215 794 l 326 989 l 449 989 l 449 978 l 249 783 l 215 794 z "},"š":{"ha":500,"x_min":53,"x_max":450,"o":"m 219 -17 q 128 -10 168 -17 q 53 6 89 -4 l 53 94 l 67 94 q 116 58 90 71 q 171 39 142 44 q 203 35 186 36 q 238 33 219 33 q 331 67 296 33 q 367 156 367 101 q 349 223 367 197 q 303 264 331 249 q 231 297 276 279 q 141 339 175 319 q 83 397 107 358 q 60 500 60 436 q 110 619 60 578 q 264 661 160 661 q 348 655 313 661 q 419 639 383 649 l 419 550 l 408 550 q 387 569 399 560 q 364 585 375 579 q 316 604 342 597 q 258 611 290 611 q 173 583 204 611 q 142 511 142 556 q 160 449 142 474 q 203 410 178 425 q 276 378 229 396 q 367 336 332 357 q 426 277 401 315 q 450 178 450 239 q 390 35 450 86 q 219 -17 329 -17 m 354 989 l 388 983 l 260 783 l 238 783 l 115 983 l 143 989 l 249 883 l 354 989 z "},"ş":{"ha":500,"x_min":53,"x_max":450,"o":"m 219 -17 q 128 -10 168 -17 q 53 6 89 -4 l 53 94 l 67 94 q 116 58 90 71 q 171 39 142 44 q 203 35 186 36 q 238 33 219 33 q 331 67 296 33 q 367 156 367 101 q 349 223 367 197 q 303 264 331 249 q 231 297 276 279 q 141 339 175 319 q 83 397 107 358 q 60 500 60 436 q 110 619 60 578 q 264 661 160 661 q 348 655 313 661 q 419 639 383 649 l 419 550 l 408 550 q 387 569 399 560 q 364 585 375 579 q 316 604 342 597 q 258 611 290 611 q 173 583 204 611 q 142 511 142 556 q 160 449 142 474 q 203 410 178 425 q 276 378 229 396 q 367 336 332 357 q 426 277 401 315 q 450 178 450 239 q 390 35 450 86 q 219 -17 329 -17 m 208 -294 q 131 -283 164 -294 l 142 -239 q 203 -256 175 -256 q 242 -242 226 -256 q 258 -206 258 -229 q 240 -170 258 -185 q 186 -150 222 -156 l 219 11 l 264 11 l 242 -117 l 236 -76 q 317 -119 288 -89 q 347 -193 347 -150 q 305 -267 347 -240 q 208 -294 263 -294 z "},"ŝ":{"ha":500,"x_min":53,"x_max":450,"o":"m 219 -17 q 128 -10 168 -17 q 53 6 89 -4 l 53 94 l 67 94 q 116 58 90 71 q 171 39 142 44 q 203 35 186 36 q 238 33 219 33 q 331 67 296 33 q 367 156 367 101 q 349 223 367 197 q 303 264 331 249 q 231 297 276 279 q 141 339 175 319 q 83 397 107 358 q 60 500 60 436 q 110 619 60 578 q 264 661 160 661 q 348 655 313 661 q 419 639 383 649 l 419 550 l 408 550 q 387 569 399 560 q 364 585 375 579 q 316 604 342 597 q 258 611 290 611 q 173 583 204 611 q 142 511 142 556 q 160 449 142 474 q 203 410 178 425 q 276 378 229 396 q 367 336 332 357 q 426 277 401 315 q 450 178 450 239 q 390 35 450 86 q 219 -17 329 -17 m 354 783 l 249 889 l 143 783 l 115 789 l 238 989 l 260 989 l 388 789 l 354 783 z "},"ș":{"ha":500,"x_min":53,"x_max":450,"o":"m 219 -17 q 128 -10 168 -17 q 53 6 89 -4 l 53 94 l 67 94 q 116 58 90 71 q 171 39 142 44 q 203 35 186 36 q 238 33 219 33 q 331 67 296 33 q 367 156 367 101 q 349 223 367 197 q 303 264 331 249 q 231 297 276 279 q 141 339 175 319 q 83 397 107 358 q 60 500 60 436 q 110 619 60 578 q 264 661 160 661 q 348 655 313 661 q 419 639 383 649 l 419 550 l 408 550 q 387 569 399 560 q 364 585 375 579 q 316 604 342 597 q 258 611 290 611 q 173 583 204 611 q 142 511 142 556 q 160 449 142 474 q 203 410 178 425 q 276 378 229 396 q 367 336 332 357 q 426 277 401 315 q 450 178 450 239 q 390 35 450 86 q 219 -17 329 -17 m 169 -344 q 185 -200 169 -321 q 208 -72 201 -79 q 263 -83 219 -72 q 314 -100 307 -93 q 288 -176 306 -124 q 250 -282 269 -229 q 219 -361 231 -335 q 193 -356 210 -361 q 169 -344 176 -351 z "},"ß":{"ha":742,"x_min":29,"x_max":692,"o":"m 499 689 q 510 857 519 792 q 463 953 500 922 q 367 983 426 983 q 262 942 294 983 q 229 828 229 900 l 229 240 q 230 128 229 178 q 231 50 231 79 q 233 6 232 21 l 233 6 l 233 6 l 233 0 q 231 0 233 0 q 228 0 229 0 q 226 0 226 0 l 142 0 q 136 0 140 0 q 131 0 132 0 l 131 6 q 133 47 132 14 q 135 128 135 79 q 136 240 136 178 l 136 578 l 29 578 l 29 589 q 41 594 35 592 q 53 600 47 597 q 136 644 103 624 l 136 817 q 157 926 136 879 q 231 1000 178 972 q 374 1028 283 1028 q 511 994 451 1028 q 595 885 571 960 q 593 694 619 810 q 460 641 507 672 q 413 567 413 610 q 438 506 413 529 q 517 449 463 482 q 607 389 572 417 q 667 312 642 361 q 692 189 692 263 q 633 39 692 89 q 476 -11 575 -11 q 405 -7 436 -11 q 347 6 374 -3 l 347 61 l 353 61 q 369 56 361 58 q 385 51 378 54 q 429 39 407 44 q 465 33 451 33 q 560 71 524 33 q 597 178 597 108 q 580 266 597 231 q 538 322 563 301 q 471 368 514 342 q 406 411 431 392 q 365 463 382 431 q 349 544 349 496 q 375 629 349 594 q 453 688 401 664 q 589 728 506 711 l 499 689 m 478 -11 q 342 6 399 -11 l 342 67 l 354 67 q 360 64 357 65 q 367 61 364 63 q 417 40 394 47 q 465 33 439 33 l 478 -11 z "},"t":{"ha":467,"x_min":11,"x_max":474,"o":"m 11 589 q 124 671 74 625 q 213 772 174 717 l 222 767 l 222 644 l 474 644 l 474 633 l 431 578 l 222 578 l 222 156 q 248 80 222 104 q 324 56 274 56 q 438 72 386 56 l 442 61 q 371 3 415 24 q 274 -17 326 -17 q 160 28 192 -17 q 129 161 129 74 l 129 578 l 11 578 l 11 589 z "},"ŧ":{"ha":467,"x_min":11,"x_max":474,"o":"m 11 589 q 124 671 74 625 q 213 772 174 717 l 222 767 l 222 644 l 474 644 l 474 633 l 431 578 l 222 578 l 222 156 q 248 80 222 104 q 324 56 274 56 q 438 72 386 56 l 442 61 q 371 3 415 24 q 274 -17 326 -17 q 160 28 192 -17 q 129 161 129 74 l 129 578 l 11 578 l 11 589 m 33 294 l 33 306 l 33 350 l 456 350 l 456 339 l 456 294 l 33 294 z "},"ť":{"ha":467,"x_min":11,"x_max":536,"o":"m 11 589 q 124 671 74 625 q 213 772 174 717 l 222 767 l 222 644 l 474 644 l 474 633 l 431 578 l 222 578 l 222 156 q 248 80 222 104 q 324 56 274 56 q 438 72 386 56 l 442 61 q 371 3 415 24 q 274 -17 326 -17 q 160 28 192 -17 q 129 161 129 74 l 129 578 l 11 578 l 11 589 m 392 767 q 408 911 392 790 q 431 1039 424 1032 q 485 1028 442 1039 q 536 1011 529 1018 q 510 935 528 988 q 472 829 492 882 q 442 750 453 776 q 415 755 431 750 q 392 767 399 760 z "}}}
